<svg width="21" height="21" viewBox="0 0 21 21" fill="none" xmlns="http://www.w3.org/2000/svg">
<path d="M10.7002 2.99038C10.6058 2.99037 10.5152 2.95286 10.4485 2.88612C10.3818 2.81937 10.3442 2.72884 10.3442 2.63444V0.350571C10.3457 0.257107 10.3838 0.167952 10.4504 0.102359C10.517 0.0367665 10.6067 0 10.7002 0C10.7936 0 10.8834 0.0367665 10.95 0.102359C11.0166 0.167952 11.0547 0.257107 11.0561 0.350571V2.63444C11.0561 2.72884 11.0186 2.81938 10.9519 2.88613C10.8851 2.95288 10.7946 2.99038 10.7002 2.99038Z" fill="#4E5058"/>
<path d="M12.1238 4.01368V2.47117C12.1238 2.37677 12.0863 2.28625 12.0196 2.2195C11.9528 2.15275 11.8623 2.11525 11.7679 2.11523H9.63228C9.43832 2.11523 9.27635 2.27716 9.27635 2.47117V4.01368C5.23635 4.69155 2.15771 8.20462 2.15771 12.4373C2.15771 17.1551 5.98226 20.9796 10.7001 20.9796C15.4179 20.9796 19.2424 17.1551 19.2424 12.4373C19.2425 8.20462 16.1638 4.69159 12.1238 4.01368Z" fill="#FD5E95"/>
<path d="M12.1238 4.25084H9.27637V2.47117C9.27638 2.37677 9.31388 2.28625 9.38063 2.2195C9.44738 2.15275 9.5379 2.11525 9.6323 2.11523H11.7679C11.8623 2.11525 11.9528 2.15275 12.0196 2.2195C12.0863 2.28625 12.1238 2.37677 12.1238 2.47117V4.25084Z" fill="#FD5E95"/>
<path d="M10.3442 2.11523H9.6323C9.5379 2.11525 9.44738 2.15275 9.38063 2.2195C9.31388 2.28625 9.27638 2.37677 9.27637 2.47117V4.25084H9.98823V2.47117C9.98824 2.37677 10.0257 2.28625 10.0925 2.2195C10.1592 2.15275 10.2498 2.11525 10.3442 2.11523Z" fill="#D14D7B"/>
<path d="M15.5912 8.0595C17.7986 9.02477 19.2426 10.6253 19.2426 12.4369C19.2426 7.71907 15.418 3.89453 10.7002 3.89453C12.7786 3.89453 14.5968 5.56506 15.5912 8.0595Z" fill="#FD5E95"/>
<path d="M15.5912 16.8149C14.5968 19.3093 12.7787 20.9799 10.7002 20.9799C15.418 20.9799 19.2426 17.1553 19.2426 12.4375C19.2426 14.2491 17.7986 15.8497 15.5912 16.8149Z" fill="#B169BF"/>
<path d="M5.80909 16.8143C3.60167 15.8491 2.15771 14.2485 2.15771 12.4369C2.15771 17.1547 5.98226 20.9793 10.7001 20.9793C8.62161 20.9793 6.80347 19.3088 5.80909 16.8143ZM5.80909 8.0595C6.80347 5.56506 8.62157 3.89453 10.7001 3.89453C5.98226 3.89453 2.15771 7.71907 2.15771 12.4369C2.15771 10.6254 3.60167 9.02477 5.80909 8.0595Z" fill="#FD5E95"/>
<path d="M15.5911 8.06055C15.9561 8.97618 16.2101 10.0027 16.3252 11.0987C18.1131 11.4249 19.2425 11.9039 19.2425 12.438C19.2425 10.6264 17.7985 9.02581 15.5911 8.06055ZM5.07503 11.0987C5.19008 10.0028 5.44409 8.97618 5.80909 8.06055C3.60167 9.02581 2.15771 10.6264 2.15771 12.4379C2.15771 11.9039 3.28708 11.4249 5.07503 11.0987Z" fill="#FD8EB4"/>
<path d="M16.3254 13.7767C16.2103 14.8726 15.9563 15.8993 15.5913 16.8149C17.7988 15.8496 19.2427 14.2491 19.2427 12.4375C19.2427 12.9715 18.1133 13.4506 16.3254 13.7767Z" fill="#FD5E95"/>
<path d="M5.80909 16.8149C5.44409 15.8993 5.19008 14.8728 5.07503 13.7768C3.28708 13.4506 2.15771 12.9715 2.15771 12.4375C2.15771 14.2491 3.60167 15.8497 5.80909 16.8149Z" fill="#D14D7B"/>
<path d="M16.3252 11.0977C16.3718 11.5426 16.3951 11.9896 16.395 12.4369C16.395 12.8926 16.371 13.3399 16.3252 13.7762C18.1131 13.45 19.2425 12.971 19.2425 12.4369C19.2425 11.9029 18.1131 11.4238 16.3252 11.0977Z" fill="#B169BF"/>
<path d="M5.07503 13.7762C5.02842 13.3313 5.0051 12.8843 5.00518 12.4369C5.00518 11.9813 5.02922 11.534 5.07503 11.0977C3.28708 11.4239 2.15771 11.9029 2.15771 12.4369C2.15771 12.971 3.28708 13.4501 5.07503 13.7762Z" fill="#FD5E95"/>
<path d="M15.5912 16.8143C14.5692 17.2612 13.3835 17.5717 12.1014 17.704C11.7756 19.698 11.2691 20.9793 10.7002 20.9793C12.7787 20.9792 14.5968 19.3087 15.5912 16.8143ZM12.1014 7.16979C13.3834 7.30203 14.5692 7.61256 15.5912 8.0595C14.5968 5.56506 12.7787 3.89453 10.7002 3.89453C11.2691 3.89449 11.7756 5.17574 12.1014 7.16979Z" fill="#E58FD0"/>
<path d="M5.80908 8.05955C6.83115 7.61264 8.01683 7.30211 9.2989 7.16983C9.62468 5.17582 10.1312 3.89453 10.7001 3.89453C8.62161 3.89457 6.80346 5.5651 5.80908 8.05955Z" fill="#FD8EB4"/>
<path d="M9.2989 17.7042C8.01683 17.5719 6.83111 17.2614 5.80908 16.8145C6.80346 19.3089 8.62156 20.9794 10.7001 20.9794C10.1312 20.9794 9.62468 19.6982 9.2989 17.7042Z" fill="#844A8F"/>
<path d="M16.3253 11.0978C16.2103 10.0019 15.9563 8.97527 15.5913 8.05963C14.5692 7.61273 13.3835 7.3022 12.1015 7.16992C12.2673 8.18506 12.3863 9.38489 12.4428 10.6944C13.9099 10.7578 15.2391 10.8996 16.3253 11.0978ZM9.29907 7.16996C8.017 7.3022 6.83128 7.61273 5.80925 8.05967C5.44425 8.97531 5.19024 10.0018 5.0752 11.0978C6.16141 10.8997 7.49056 10.7578 8.95769 10.6946C9.01425 9.38493 9.13324 8.18506 9.29907 7.16996ZM5.0752 13.7763C5.19024 14.8722 5.44425 15.8988 5.80925 16.8145C6.83132 17.2614 8.017 17.5719 9.29907 17.7042C9.1332 16.6891 9.01421 15.4892 8.95769 14.1797C7.49061 14.1163 6.16141 13.9745 5.0752 13.7763Z" fill="#FD5E95"/>
<path d="M12.4427 14.1807C12.3861 15.4903 12.2672 16.6901 12.1013 17.7052C13.3834 17.573 14.5691 17.2624 15.5911 16.8155C15.9561 15.8999 16.2101 14.8733 16.3252 13.7773C15.239 13.9756 13.9098 14.1174 12.4427 14.1807Z" fill="#FD8EB4"/>
<path d="M8.9206 12.4379C8.9206 11.8407 8.9334 11.2579 8.95772 10.6953C7.49055 10.7587 6.16144 10.9004 5.07522 11.0986C5.02941 11.5349 5.00537 11.9822 5.00537 12.4379C5.00537 12.8935 5.02941 13.3408 5.07522 13.7771C6.16144 13.9753 7.49059 14.1171 8.95772 14.1804C8.93282 13.5999 8.92044 13.0189 8.9206 12.4379Z" fill="#844A8F"/>
<path d="M12.48 12.4379C12.48 13.035 12.4672 13.6178 12.4429 14.1804C13.91 14.117 15.2392 13.9753 16.3254 13.7771C16.372 13.3322 16.3953 12.8852 16.3952 12.4379C16.3952 11.9822 16.3712 11.5349 16.3254 11.0986C15.2392 10.9004 13.91 10.7586 12.4429 10.6953C12.4672 11.258 12.48 11.8407 12.48 12.4379Z" fill="#E58FD0"/>
<path d="M9.29907 7.16983C9.76459 7.12187 10.2323 7.09788 10.7002 7.09793C11.1775 7.09793 11.6455 7.12279 12.1014 7.16983C11.7756 5.17582 11.2691 3.89453 10.7002 3.89453C10.1314 3.89453 9.62486 5.17578 9.29907 7.16983ZM12.1014 17.704C11.6359 17.752 11.1682 17.776 10.7002 17.7759C10.223 17.7759 9.75504 17.751 9.29907 17.704C9.62486 19.698 10.1314 20.9793 10.7002 20.9793C11.2691 20.9793 11.7757 19.6981 12.1014 17.704Z" fill="#FD5E95"/>
<path d="M10.7001 14.2168C10.1029 14.2168 9.52009 14.204 8.95752 14.1797C9.01408 15.4893 9.13303 16.6891 9.29889 17.7042C9.76441 17.7522 10.2321 17.7762 10.7001 17.7761C11.1773 17.7761 11.6453 17.7512 12.1012 17.7042C12.2671 16.6891 12.3861 15.4893 12.4426 14.1797C11.8621 14.2046 11.2811 14.217 10.7001 14.2168Z" fill="#B169BF"/>
<path d="M10.7001 10.657C11.2972 10.657 11.88 10.6697 12.4426 10.6941C12.3861 9.38452 12.2671 8.18465 12.1012 7.16956C11.6357 7.1216 11.1681 7.0976 10.7001 7.09766C10.2228 7.09766 9.75486 7.12251 9.29889 7.16956C9.13303 8.18469 9.01404 9.38452 8.95752 10.6941C9.53804 10.6692 10.119 10.6568 10.7001 10.657Z" fill="#FD8EB4"/>
<path d="M12.4426 10.6953C11.8621 10.6704 11.2811 10.6581 10.7001 10.6582C10.1029 10.6582 9.5201 10.671 8.95753 10.6953C8.93325 11.2579 8.92041 11.8407 8.92041 12.4379C8.92041 13.035 8.93321 13.6179 8.95753 14.1804C9.52014 14.2047 10.1029 14.2175 10.7001 14.2175C11.2972 14.2175 11.8801 14.2047 12.4426 14.1804C12.4669 13.6178 12.4797 13.035 12.4797 12.4379C12.4797 11.8407 12.4669 11.258 12.4426 10.6953Z" fill="#FD5E95"/>
<path d="M3.29254 15.0976C2.57087 14.3144 2.15771 13.4062 2.15771 12.4375C2.15771 17.1553 5.98226 20.9799 10.7001 20.9799C10.2116 20.9799 9.73769 20.8865 9.28525 20.7129C6.45648 19.9881 4.19406 17.8509 3.29254 15.0976Z" fill="#D14D7B"/>
<path d="M2.90063 13.1641C2.4237 12.9422 2.15771 12.6963 2.15771 12.4375C2.15771 13.4062 2.57087 14.3144 3.29254 15.0975C3.08732 14.4704 2.9558 13.8216 2.90063 13.1641Z" fill="#B2325E"/>
<path d="M2.86958 12.4374C2.86958 12.1927 2.88049 11.9505 2.90063 11.7109C2.42362 11.9328 2.15771 12.1786 2.15771 12.4374C2.15771 12.6963 2.4237 12.9421 2.90063 13.164C2.88012 12.9223 2.86976 12.6799 2.86958 12.4374Z" fill="#D14D7B"/>
<path d="M3.29254 9.77734C2.57087 10.5605 2.15771 11.4687 2.15771 12.4373C2.15771 12.1785 2.42366 11.9327 2.90063 11.7108C2.9558 11.0533 3.08732 10.4044 3.29254 9.77734Z" fill="#FD5E95"/>
<path d="M9.28525 4.16146C9.73769 3.98784 10.2115 3.89453 10.7001 3.89453C5.98226 3.89453 2.15771 7.71907 2.15771 12.4369C2.15771 11.4682 2.57087 10.56 3.29254 9.77687C4.19402 7.02349 6.45648 4.88633 9.28525 4.16146Z" fill="#D14D7B"/>
<path d="M20.7742 2.86749L19.0002 2.26177L18.4985 0.254837C18.4805 0.182613 18.4388 0.11849 18.3802 0.0726673C18.3215 0.0268443 18.2492 0.00195313 18.1748 0.00195312C18.1003 0.00195312 18.028 0.0268443 17.9694 0.0726673C17.9107 0.11849 17.869 0.182613 17.851 0.254837L17.3493 2.26173L15.5754 2.86745C15.5095 2.88996 15.4523 2.93251 15.4118 2.98914C15.3713 3.04577 15.3495 3.11365 15.3495 3.18327C15.3495 3.25289 15.3713 3.32077 15.4118 3.3774C15.4523 3.43403 15.5095 3.47658 15.5754 3.49909L17.3493 4.10481L17.851 6.1117C17.869 6.18393 17.9107 6.24805 17.9694 6.29387C18.028 6.3397 18.1003 6.36459 18.1748 6.36459C18.2492 6.36459 18.3215 6.3397 18.3802 6.29387C18.4388 6.24805 18.4805 6.18393 18.4985 6.1117L19.0002 4.10481L20.7742 3.49909C20.84 3.47657 20.8972 3.43402 20.9377 3.3774C20.9782 3.32077 21 3.2529 21 3.18329C21 3.11368 20.9782 3.04581 20.9377 2.98919C20.8972 2.93256 20.84 2.89001 20.7742 2.86749ZM5.4246 4.29118L3.65068 3.68547L3.14893 1.67857C3.11222 1.53178 2.97654 1.42583 2.8252 1.42583C2.67385 1.42583 2.53817 1.53178 2.50146 1.67857L1.99976 3.68551L0.225832 4.29123C0.0923262 4.33679 0 4.46587 0 4.60696C0 4.7481 0.0923262 4.87713 0.225832 4.92278L1.99976 5.5285L2.5015 7.5354C2.53821 7.68219 2.67389 7.78814 2.82524 7.78814C2.97659 7.78814 3.11227 7.68219 3.14897 7.5354L3.65072 5.5285L5.42464 4.92278C5.49051 4.90026 5.54769 4.85771 5.58817 4.80108C5.62865 4.74445 5.65041 4.67658 5.65041 4.60697C5.6504 4.53736 5.62863 4.46949 5.58814 4.41287C5.54765 4.35624 5.49047 4.3137 5.4246 4.29118ZM17.2723 17.3791L15.4984 16.7734L14.9966 14.7665C14.9786 14.6943 14.9369 14.6301 14.8783 14.5843C14.8196 14.5385 14.7473 14.5136 14.6729 14.5136C14.5985 14.5136 14.5262 14.5385 14.4675 14.5843C14.4088 14.6301 14.3672 14.6943 14.3492 14.7665L13.8474 16.7734L12.0735 17.3791C12.0076 17.4016 11.9504 17.4442 11.9099 17.5008C11.8694 17.5574 11.8476 17.6253 11.8476 17.6949C11.8476 17.7645 11.8694 17.8324 11.9099 17.8891C11.9504 17.9457 12.0076 17.9882 12.0735 18.0107L13.8474 18.6165L14.3492 20.6234C14.3672 20.6956 14.4088 20.7597 14.4675 20.8055C14.5262 20.8514 14.5985 20.8762 14.6729 20.8762C14.7473 20.8762 14.8196 20.8514 14.8783 20.8055C14.9369 20.7597 14.9786 20.6956 14.9966 20.6234L15.4984 18.6165L17.2723 18.0107C17.3382 17.9882 17.3954 17.9457 17.4359 17.8891C17.4764 17.8324 17.4981 17.7645 17.4981 17.6949C17.4981 17.6253 17.4764 17.5574 17.4359 17.5008C17.3954 17.4442 17.3382 17.4016 17.2723 17.3791Z" fill="#FFE88A"/>
</svg>
