<svg width="88" height="40" viewBox="0 0 88 40" fill="none" xmlns="http://www.w3.org/2000/svg">
<g clip-path="url(#clip0_316_3221)">
<path d="M80.6582 17.2571V18.5361L87.999 17.0215V14.2261L80.6582 17.2571Z" fill="white"/>
<path d="M80.6582 21.7432L87.999 22.2956V19.9133L80.6582 20.4641V21.7432Z" fill="white"/>
<path d="M80.6582 24.9526L87.999 27.9836V25.1882L80.6582 23.6719V24.9526Z" fill="white"/>
<path d="M3.43241 12.0837L2.9292 19.1627H2.28828V12.0837H0V27.7148H2.28828V20.3024H2.69969L3.43241 27.7148H5.9485L4.53065 19.7881L5.9485 12.0837H3.43241Z" fill="white"/>
<path d="M11.3044 14.2056C11.2273 14.846 11.1468 15.4708 11.063 16.0803C10.9791 16.6897 10.8952 17.3151 10.8114 17.9566C10.7286 18.5969 10.6334 19.3042 10.5258 20.0784C10.366 21.2541 10.2305 22.2042 10.1194 22.9286L8.37519 12.0837H6.17871L8.21878 24.7452H10.6788L9.68083 24.9808C9.62718 25.1737 9.52954 25.3524 9.39522 25.5033C9.25539 25.6252 9.07257 25.6895 8.8852 25.6825C8.7152 25.6825 8.54519 25.6825 8.39388 25.6609C8.24354 25.6474 8.09421 25.6246 7.94677 25.5929C7.79376 25.578 7.64076 25.5564 7.48945 25.5266V27.4908L8.03857 27.6252C8.12834 27.6477 8.2199 27.6627 8.31228 27.67L8.75939 27.7148C8.9192 27.7297 9.08751 27.7397 9.26941 27.7479C9.45132 27.7562 9.59242 27.7596 9.71483 27.7596C10.2645 27.7596 10.6878 27.6401 10.9848 27.4012C11.2823 27.164 11.5237 26.7509 11.7056 26.162C11.9282 25.3866 12.089 24.5957 12.1867 23.7962C12.3238 22.8008 12.5069 21.5616 12.7358 20.0784C12.8276 19.4978 12.9194 18.8652 13.0112 18.1805C13.103 17.4959 13.1982 16.7958 13.2968 16.0803C13.3954 15.3669 13.4907 14.6673 13.5825 13.9816C13.6743 13.2959 13.7581 12.6633 13.8341 12.0837H11.556C11.4642 12.859 11.3803 13.5663 11.3044 14.2056Z" fill="white"/>
<path d="M18.1899 12.0837H16.7941H15.9016H14.5059V27.7148H16.7941V14.622L15.837 14.3848H15.9016H17.6442H18.1899V27.7148H20.4782V12.0837H20.2503H18.1899Z" fill="white"/>
<path d="M25.5147 12.0837L24.0969 23.204H23.9354L24.1428 12.0837H21.8545V27.7148H24.1428V27.6932L25.6065 16.5498H25.7663L25.5385 27.7148H27.8268V12.0837H25.5385H25.5147Z" fill="white"/>
<path d="M32.2705 27.7978L35.4275 28.6687V13.6366L34.3446 13.4558L36.1398 13.3496C36.9338 13.3048 37.7311 13.2666 38.5199 13.2401C38.8599 12.227 39.1965 11.21 39.5297 10.1892L32.2705 12.1634V27.7978Z" fill="white"/>
<path d="M47.0719 8.86763C46.3239 8.26044 44.906 8.3384 44.073 8.60716C42.985 8.95886 41.8374 9.52459 41.0418 10.4055C40.2967 11.2611 39.903 12.3557 39.9368 13.478V26.1145C39.9185 26.8308 40.0143 27.5455 40.2207 28.2331C40.3899 28.7638 40.6753 29.2523 41.0571 29.6648C41.4339 30.0603 41.8838 30.3828 42.3832 30.6154C42.9371 30.8745 43.5127 31.0871 44.1036 31.2508C44.6432 31.4096 45.1991 31.5103 45.7612 31.5511C46.2138 31.5879 46.6656 31.4707 47.0396 31.2193C47.3966 30.9737 47.6771 30.5557 47.876 29.97C48.0749 29.3844 48.1769 28.5599 48.1769 27.5164C48.1645 22.3492 48.1537 17.1808 48.1446 12.0114C48.1701 10.9231 47.9763 9.60422 47.0719 8.86763ZM45.1134 26.2555C45.1255 26.8213 45.0731 27.3866 44.957 27.9411C44.8516 28.3724 44.5558 28.5333 44.073 28.4388C43.8547 28.405 43.652 28.3078 43.4912 28.1598C43.3305 28.0118 43.2192 27.82 43.172 27.6093C43.0478 27.0649 42.9907 26.5079 43.002 25.9503V13.6887C42.9974 13.2095 43.0615 12.7321 43.1924 12.2702C43.2427 12.0663 43.3533 11.8814 43.5105 11.7383C43.6677 11.5953 43.8645 11.5004 44.0764 11.4656C44.168 11.4388 44.2641 11.4304 44.3591 11.4409C44.4541 11.4515 44.5459 11.4808 44.6289 11.527C44.774 11.6256 44.8839 11.766 44.9434 11.9285C45.0248 12.1374 45.0729 12.3573 45.0862 12.5805C45.1066 12.8359 45.1168 13.0931 45.1168 13.3519L45.1134 26.2555Z" fill="white"/>
<path d="M51.4794 10.4879C51.4488 11.5375 51.4176 12.5882 51.3859 13.64C51.3541 14.6918 51.3173 15.7386 51.2754 16.7804C51.2278 17.9583 51.1751 19.1357 51.1172 20.3124C51.0322 22.0693 50.9472 23.8279 50.8333 25.5814C50.7924 26.4896 50.6816 27.3935 50.5018 28.2856C50.3641 28.8463 50.1907 29.1632 49.9799 29.2428C49.7002 29.3186 49.4033 29.3082 49.1299 29.2129V32.4413L49.8558 32.6769C50.8027 32.9872 51.5338 33.0651 52.0489 32.8876C52.564 32.7101 52.9635 32.1676 53.2185 31.2651C53.5823 29.9678 53.6639 28.5925 53.7387 27.257C53.8679 24.9692 53.9325 22.6367 54.0226 20.334C54.0634 19.3121 54.0974 18.3781 54.1179 17.5353C54.1383 16.6925 54.1604 15.8763 54.1808 15.065C54.2012 14.2538 54.2283 13.4342 54.2589 12.5865C54.2895 11.7918 54.3133 10.9126 54.3338 9.957H53.125L54.3389 9.76457L55.2535 9.62188V34.1318L58.4105 35.0028V5.05469L51.5916 6.90943C51.5496 8.1028 51.5122 9.29563 51.4794 10.4879Z" fill="white"/>
<path d="M67.432 3.66904C66.8302 2.813 65.3579 2.58075 64.4331 2.89098C63.1848 3.3123 62.1175 4.13014 61.4019 5.21357C60.5519 6.56068 60.3054 8.29101 60.2969 9.85876V29.6008C60.3258 30.6957 60.3428 31.7973 60.5808 32.874C60.7256 33.621 61.0097 34.3356 61.4189 34.9825C61.7538 35.5003 62.2071 35.9353 62.7433 36.2533C63.2845 36.5604 63.8631 36.8001 64.4654 36.9667C65.0012 37.1286 65.5606 37.2032 66.1213 37.1874C66.3687 37.1735 66.6104 37.109 66.8306 36.9981C67.0508 36.8872 67.2447 36.7324 67.3997 36.5437C67.7584 36.1405 68.0423 35.4935 68.2378 34.6176C68.4695 33.4287 68.5698 32.219 68.537 31.0093C68.5268 23.473 68.5161 15.9356 68.5047 8.39717C68.4503 6.78795 68.3874 5.02776 67.432 3.66904ZM65.4752 29.3669C65.4876 30.2129 65.4347 31.0586 65.3171 31.8968C65.2117 32.5505 64.9171 32.827 64.4331 32.7263C63.9486 32.6251 63.6494 32.2286 63.5338 31.5534C63.408 30.7237 63.3512 29.8854 63.3638 29.0467V10.4245C63.3583 9.70804 63.4215 8.99266 63.5525 8.28769C63.6783 7.63903 63.9741 7.26243 64.4365 7.16621C64.5334 7.13745 64.6366 7.13588 64.7343 7.1617C64.832 7.18752 64.9203 7.23969 64.989 7.31221C65.1439 7.49696 65.2522 7.71458 65.3052 7.94759C65.3858 8.27067 65.433 8.6008 65.4463 8.93305C65.469 9.31572 65.4798 9.70282 65.4786 10.0943L65.4752 29.3669Z" fill="white"/>
<path d="M74.5363 0.115351C73.2479 0.561779 72.1742 1.45764 71.5221 2.63039C70.6432 4.23796 70.4069 6.19556 70.4324 7.99557V31.3874C70.4076 32.6602 70.5078 33.9323 70.7316 35.1865C70.8762 36.043 71.1633 36.8707 71.5816 37.6368C71.9011 38.215 72.3618 38.7074 72.923 39.0702C73.4616 39.4023 74.0461 39.6576 74.6587 39.8283C75.2037 40.0007 75.7824 40.0462 76.3486 39.9611C76.8416 39.8698 77.2581 39.5729 77.5947 39.0619C77.9314 38.5509 78.1932 37.7795 78.3683 36.7509C78.5709 35.4227 78.6607 34.0804 78.6369 32.7378V28.811L75.6057 28.451V30.9262C75.618 31.9117 75.5652 32.897 75.4476 33.8759C75.3422 34.6412 75.0481 34.973 74.5652 34.8713C74.0807 34.7701 73.7747 34.3205 73.6489 33.5291C73.5107 32.5591 73.4477 31.5803 73.4602 30.601V8.76369C73.4522 7.94937 73.509 7.13566 73.6302 6.32994C73.7458 5.61491 74.045 5.20347 74.5295 5.10228C75.0141 5.00108 75.3133 5.28311 75.4289 5.95168C75.5542 6.76866 75.6111 7.59426 75.5989 8.42026V13.7075L78.6301 13.4454V6.52903C78.5842 4.70413 78.5043 2.67186 77.5403 1.09084C76.9963 0.180053 75.5156 -0.214789 74.5363 0.115351Z" fill="white"/>
</g>
<defs>
<clipPath id="clip0_316_3221">
<rect width="88" height="40" fill="white"/>
</clipPath>
</defs>
</svg>
