<svg width="42" height="42" viewBox="0 0 42 42" fill="none" xmlns="http://www.w3.org/2000/svg">
<path d="M19.8516 1.65625C20.4777 1.00361 21.5223 1.00361 22.1484 1.65625L24.7344 4.35156C25.2818 4.92197 26.0905 5.15952 26.8594 4.97559L30.4922 4.10645C31.3718 3.89594 32.2499 4.46008 32.4238 5.34766L33.1426 9.0127C33.2946 9.78871 33.8463 10.4265 34.5928 10.6875L38.1191 11.9199C38.9728 12.2184 39.4058 13.1681 39.0723 14.0088L37.6953 17.4805C37.4037 18.2155 37.5239 19.0498 38.0107 19.6729L40.3105 22.6162C40.8674 23.3289 40.7185 24.3627 39.9834 24.8896L36.9473 27.0654C36.3048 27.5261 35.9548 28.2929 36.0273 29.0801L36.3711 32.7998C36.4543 33.7004 35.7705 34.4893 34.8672 34.5352L31.1367 34.7246C30.3471 34.7647 29.638 35.2203 29.2734 35.9219L27.5518 39.2373C27.1348 40.0398 26.1332 40.3334 25.3486 39.8838L22.1074 38.0264C21.4214 37.6332 20.5786 37.6332 19.8926 38.0264L16.6514 39.8838C15.8667 40.3334 14.8652 40.0398 14.4482 39.2373L12.7266 35.9219C12.362 35.2203 11.6529 34.7647 10.8633 34.7246L7.13281 34.5352C6.22952 34.4893 5.54573 33.7004 5.62891 32.7998L5.97266 29.0801C6.04521 28.2929 5.69517 27.5261 5.05273 27.0654L2.0166 24.8896C1.28149 24.3627 1.13257 23.3289 1.68945 22.6162L3.98926 19.6729C4.47606 19.0498 4.59629 18.2155 4.30469 17.4805L2.92773 14.0088C2.59421 13.1681 3.02716 12.2184 3.88086 11.9199L7.40723 10.6875C8.1537 10.4265 8.70535 9.78871 8.85742 9.0127L9.57617 5.34766C9.7501 4.46008 10.6282 3.89594 11.5078 4.10645L15.1406 4.97559C15.9095 5.15951 16.7182 4.92197 17.2656 4.35156L19.8516 1.65625Z" fill="#C1492E" stroke="#C1492E" stroke-width="0.636364"/>
<path d="M27.9782 16.0744C27.5253 15.6209 26.7899 15.6212 26.3365 16.0744L18.9479 23.4633L15.6639 20.1794C15.2105 19.7259 14.4754 19.7259 14.022 20.1794C13.5685 20.6328 13.5685 21.3679 14.022 21.8213L18.1267 25.9261C18.3533 26.1526 18.6504 26.2662 18.9475 26.2662C19.2447 26.2662 19.5421 26.1529 19.7687 25.9261L27.9782 17.7163C28.4316 17.2631 28.4316 16.5278 27.9782 16.0744Z" fill="white"/>
</svg>
