<svg width="21" height="21" viewBox="0 0 21 21" fill="none" xmlns="http://www.w3.org/2000/svg">
<path d="M7.94144 19.0808C7.81374 19.2034 7.65729 19.292 7.48645 19.3384L5.86014 19.7831C5.24601 19.9511 4.59522 19.7751 4.16181 19.3237L3.31122 18.4378C2.87781 17.9864 2.72835 17.329 2.92116 16.7221L3.44731 14.9931L1.34276 15.537C0.776868 15.6918 0.192641 15.3585 0.0378894 14.7926C-0.116863 14.2267 0.21643 13.6425 0.782323 13.4877L2.40863 13.043C3.02284 12.875 3.67364 13.0511 4.10701 13.5025L4.95759 14.3884C5.391 14.8397 5.54046 15.4971 5.34769 16.104L4.7391 17.8492L6.92605 17.2891C7.49195 17.1344 8.07617 17.4677 8.23092 18.0336C8.33728 18.4224 8.21312 18.82 7.94144 19.0808Z" fill="#8BB6EF"/>
<path d="M3.44732 14.993L3.39191 15.1751L2.92113 16.7221C2.75543 17.2437 2.84275 17.8025 3.14569 18.2358C3.62623 18.126 4.26534 17.9868 4.73911 17.8491L4.81712 17.6254L5.3477 16.1039C5.52123 15.5576 5.41726 14.9703 5.07859 14.5293C4.59424 14.6732 3.93368 14.8566 3.44732 14.993Z" fill="#8388EF"/>
<path d="M14.8959 19.3215C15.0602 19.3875 15.2383 19.4113 15.4142 19.3906L17.0889 19.1962C17.7214 19.1228 18.2594 18.7165 18.493 18.136L18.9515 16.9966C19.185 16.416 19.0783 15.7503 18.6729 15.2593L17.5394 13.8516L19.6948 13.5707C20.2776 13.503 20.6952 12.9758 20.6275 12.393C20.5599 11.8102 20.0326 11.3927 19.4498 11.4603L17.775 11.6548C17.1425 11.7282 16.6045 12.1345 16.3709 12.715L15.9125 13.8543C15.6789 14.4349 15.7856 15.1005 16.191 15.5916L17.4071 16.9834L15.1691 17.2802C14.5864 17.3479 14.1688 17.8751 14.2364 18.4579C14.2829 18.8584 14.5465 19.1809 14.8959 19.3215Z" fill="#A183E2"/>
<path d="M17.5393 13.8516L17.6586 13.9998L18.6728 15.2593C19.0213 15.6813 19.1489 16.2323 19.0296 16.7475C18.5427 16.8249 17.8978 16.9343 17.4069 16.9834L17.2511 16.805L16.1909 15.5915C15.8259 15.1495 15.7032 14.5659 15.8528 14.0303C16.3559 13.9831 17.0371 13.9066 17.5393 13.8516Z" fill="#9762E2"/>
<path d="M10.1627 14.1938C10.3228 14.1181 10.4613 14.0035 10.5655 13.8604L11.5606 12.4993C11.9364 11.9853 12.0038 11.3145 11.7365 10.7487L11.2118 9.63831C10.9445 9.0725 10.3835 8.6986 9.74773 8.66251L7.94468 8.53802L9.20288 6.76545C9.54913 6.29185 9.44585 5.62723 8.97229 5.28097C8.49868 4.93472 7.83406 5.038 7.48777 5.51156L6.49273 6.87267C6.11694 7.38672 6.04955 8.05753 6.31685 8.62325L6.84148 9.73367C7.10882 10.2994 7.66979 10.6733 8.3055 10.7095L10.153 10.7627L8.85043 12.6065C8.50418 13.0801 8.60745 13.7448 9.08102 14.091C9.40652 14.329 9.82221 14.3547 10.1627 14.1938Z" fill="#FFA585"/>
<path d="M7.84454 8.68922L7.94474 8.53906L9.74779 8.66355C10.2942 8.69455 10.7852 8.9753 11.0822 9.41278C10.8386 9.77724 10.5811 10.132 10.3178 10.4829C10.2523 10.5699 10.1971 10.6642 10.153 10.7637L8.30555 10.7105C7.73322 10.678 7.22159 10.3716 6.93018 9.89803C7.2373 9.49678 7.54377 9.09511 7.84454 8.68922Z" fill="#EF7C85"/>
<path d="M2.60022 10.9743L1.70957 10.529C1.44387 10.3961 1.33616 10.073 1.46901 9.80725L1.91436 8.9166C2.04721 8.6509 2.37033 8.54319 2.63603 8.67604L3.52668 9.12139C3.79238 9.25424 3.90009 9.57736 3.76724 9.8431L3.32189 10.7338C3.18904 10.9995 2.86596 11.1072 2.60022 10.9743Z" fill="#FFE266"/>
<path d="M10.0624 18.9877L11.0199 18.7142C11.3056 18.6326 11.6033 18.798 11.6849 19.0837L11.9584 20.0412C12.0401 20.3268 11.8746 20.6245 11.589 20.7062L10.6315 20.9797C10.3458 21.0613 10.0481 20.8959 9.96647 20.6102L9.69294 19.6527C9.61136 19.367 9.77677 19.0694 10.0624 18.9877Z" fill="#EF8BBD"/>
<path d="M16.8908 8.99616L15.6335 9.72205C15.2584 9.93862 14.7788 9.81012 14.5623 9.43503L13.8364 8.17773C13.6198 7.80265 13.7484 7.32301 14.1234 7.10649L15.3807 6.38059C15.7558 6.16403 16.2354 6.29253 16.452 6.66762L17.1779 7.92487C17.3944 8.3 17.2659 8.7796 16.8908 8.99616Z" fill="#78EAC4"/>
<path d="M3.5423 2.02508L3.88876 2.99932C3.9036 3.04104 3.93297 3.0741 3.97001 3.09079L4.83556 3.48077C4.95783 3.53585 4.95783 3.73072 4.83556 3.7858L3.97001 4.17578C3.93297 4.19247 3.90356 4.22553 3.88876 4.26724L3.5423 5.24144C3.49337 5.37909 3.32024 5.37909 3.27131 5.24144L2.92481 4.2672C2.90996 4.22549 2.88059 4.19243 2.84356 4.17573L1.97796 3.7858C1.85565 3.73072 1.85565 3.53589 1.97796 3.48077L2.84351 3.09079C2.88059 3.0741 2.90996 3.04104 2.92477 2.99932L3.27127 2.02508C3.32024 1.88747 3.49333 1.88747 3.5423 2.02508Z" fill="#CAB4EF"/>
<path d="M16.4772 0.0765659L16.7342 0.79922C16.7452 0.830146 16.7669 0.854673 16.7945 0.86706L17.4365 1.15634C17.5272 1.19724 17.5272 1.34173 17.4365 1.38263L16.7945 1.67191C16.767 1.6843 16.7452 1.70882 16.7342 1.73975L16.4772 2.4624C16.4409 2.56449 16.3124 2.56449 16.2761 2.4624L16.0191 1.73975C16.0082 1.70882 15.9864 1.6843 15.9589 1.67191L15.3168 1.38263C15.2261 1.34173 15.2261 1.19724 15.3168 1.15634L15.9589 0.86706C15.9863 0.854673 16.0081 0.830146 16.0191 0.79922L16.2761 0.0765659C16.3124 -0.025522 16.4408 -0.025522 16.4772 0.0765659Z" fill="#FFC7B6"/>
<path d="M12.947 4.52484C13.3331 4.36508 13.5166 3.9226 13.3568 3.53652C13.197 3.15045 12.7546 2.96699 12.3685 3.12675C11.9824 3.28651 11.7989 3.72899 11.9587 4.11506C12.1185 4.50113 12.5609 4.6846 12.947 4.52484Z" fill="#8BB6EF"/>
<path d="M5.82856 1.92225C6.0088 1.92225 6.15492 1.77614 6.15492 1.59589C6.15492 1.41565 6.0088 1.26953 5.82856 1.26953C5.64831 1.26953 5.5022 1.41565 5.5022 1.59589C5.5022 1.77614 5.64831 1.92225 5.82856 1.92225Z" fill="#EF8BBD"/>
<path d="M19.2927 6.91054C19.4729 6.91054 19.619 6.76442 19.619 6.58417C19.619 6.40393 19.4729 6.25781 19.2927 6.25781C19.1124 6.25781 18.9663 6.40393 18.9663 6.58417C18.9663 6.76442 19.1124 6.91054 19.2927 6.91054Z" fill="#FFE266"/>
</svg>
