<svg width="24" height="21" viewBox="0 0 24 21" fill="none" xmlns="http://www.w3.org/2000/svg">
<mask id="path-1-inside-1_2335_10449" fill="white">
<path fill-rule="evenodd" clip-rule="evenodd" d="M13.7249 0.954181C12.9172 -0.31806 11.0836 -0.31806 10.276 0.954181L6.19601 7.37715L3.07839 5.55772C1.51598 4.64615 -0.362029 6.07403 0.0603731 7.85022L2.17959 16.7448C2.22714 16.9407 2.33719 17.1145 2.49211 17.2383C2.64702 17.3621 2.83784 17.4289 3.03399 17.4279H20.9669C21.163 17.4289 21.3539 17.3621 21.5088 17.2383C21.6637 17.1145 21.7737 16.9407 21.8213 16.7448L23.9393 7.85146C24.3629 6.07279 22.4849 4.64615 20.9225 5.55772L17.8049 7.37591L13.7249 0.954181ZM12.2464 1.9201C12.2195 1.87831 12.183 1.84403 12.14 1.82032C12.0971 1.79661 12.0492 1.7842 12.0004 1.7842C11.9517 1.7842 11.9038 1.79661 11.8608 1.82032C11.8179 1.84403 11.7814 1.87831 11.7544 1.9201L7.22201 9.05576C7.09784 9.24843 6.90735 9.38549 6.68891 9.43936C6.47047 9.49322 6.24031 9.45987 6.04481 9.34603L2.20119 7.10541C1.97798 6.97571 1.70918 7.17952 1.77038 7.43273L3.72639 15.6455H20.2745L22.2305 7.43273C22.2905 7.17952 22.0229 6.97571 21.7985 7.10541L17.9561 9.34603C17.7607 9.4595 17.5308 9.49265 17.3127 9.4388C17.0945 9.38495 16.9042 9.24811 16.7801 9.05576L12.2464 1.9201Z"/>
</mask>
<path fill-rule="evenodd" clip-rule="evenodd" d="M13.7249 0.954181C12.9172 -0.31806 11.0836 -0.31806 10.276 0.954181L6.19601 7.37715L3.07839 5.55772C1.51598 4.64615 -0.362029 6.07403 0.0603731 7.85022L2.17959 16.7448C2.22714 16.9407 2.33719 17.1145 2.49211 17.2383C2.64702 17.3621 2.83784 17.4289 3.03399 17.4279H20.9669C21.163 17.4289 21.3539 17.3621 21.5088 17.2383C21.6637 17.1145 21.7737 16.9407 21.8213 16.7448L23.9393 7.85146C24.3629 6.07279 22.4849 4.64615 20.9225 5.55772L17.8049 7.37591L13.7249 0.954181ZM12.2464 1.9201C12.2195 1.87831 12.183 1.84403 12.14 1.82032C12.0971 1.79661 12.0492 1.7842 12.0004 1.7842C11.9517 1.7842 11.9038 1.79661 11.8608 1.82032C11.8179 1.84403 11.7814 1.87831 11.7544 1.9201L7.22201 9.05576C7.09784 9.24843 6.90735 9.38549 6.68891 9.43936C6.47047 9.49322 6.24031 9.45987 6.04481 9.34603L2.20119 7.10541C1.97798 6.97571 1.70918 7.17952 1.77038 7.43273L3.72639 15.6455H20.2745L22.2305 7.43273C22.2905 7.17952 22.0229 6.97571 21.7985 7.10541L17.9561 9.34603C17.7607 9.4595 17.5308 9.49265 17.3127 9.4388C17.0945 9.38495 16.9042 9.24811 16.7801 9.05576L12.2464 1.9201Z" fill="#C1492E"/>
<path d="M13.7249 0.954181L12.0363 2.02604L12.0368 2.02671L13.7249 0.954181ZM10.276 0.954181L11.9642 2.02656L11.9646 2.02604L10.276 0.954181ZM6.19601 7.37715L5.18793 9.10451L6.85145 10.0753L7.8842 8.44953L6.19601 7.37715ZM3.07839 5.55772L4.08647 3.83036L4.08627 3.83024L3.07839 5.55772ZM0.0603731 7.85022L-1.88536 8.31294L-1.88517 8.31376L0.0603731 7.85022ZM2.17959 16.7448L0.234027 17.2083L0.236048 17.2167L2.17959 16.7448ZM3.03399 17.4279V15.4278L3.02333 15.4279L3.03399 17.4279ZM20.9669 17.4279L20.9776 15.4279H20.9669V17.4279ZM21.8213 16.7448L23.7649 17.2167L23.7669 17.2081L21.8213 16.7448ZM23.9393 7.85146L21.9937 7.3881V7.3881L23.9393 7.85146ZM20.9225 5.55772L21.9301 7.28538L21.9304 7.2852L20.9225 5.55772ZM17.8049 7.37591L16.1168 8.44844L17.1493 10.0735L18.8124 9.10357L17.8049 7.37591ZM12.2464 1.9201L13.9346 0.847544L13.9276 0.836707L12.2464 1.9201ZM11.7544 1.9201L10.0733 0.836683L10.0662 0.847769L11.7544 1.9201ZM7.22201 9.05576L8.90314 10.1393L8.91024 10.1281L7.22201 9.05576ZM6.04481 9.34603L5.03756 11.0739L5.03842 11.0744L6.04481 9.34603ZM2.20119 7.10541L3.20843 5.37755L3.206 5.37614L2.20119 7.10541ZM1.77038 7.43273L3.71597 6.96935L3.71441 6.96287L1.77038 7.43273ZM3.72639 15.6455L1.78081 16.1089L2.14679 17.6455H3.72639V15.6455ZM20.2745 15.6455V17.6455H21.8541L22.2201 16.1089L20.2745 15.6455ZM22.2305 7.43273L24.1761 7.8961L24.1766 7.89387L22.2305 7.43273ZM21.7985 7.10541L20.7977 5.3738L20.791 5.37769L21.7985 7.10541ZM17.9561 9.34603L18.9605 11.0755L18.9636 11.0737L17.9561 9.34603ZM16.7801 9.05576L15.092 10.1283L15.0958 10.1343L15.0997 10.1404L16.7801 9.05576ZM13.7249 0.954181L15.4134 -0.117677C13.8202 -2.62744 10.1807 -2.62744 8.58751 -0.117677L10.276 0.954181L11.9646 2.02604C11.9732 2.01236 11.9792 2.00667 11.9807 2.00525C11.9825 2.00363 11.9832 2.00326 11.9835 2.00313C11.9845 2.00258 11.9902 2 12.0004 2C12.0106 2 12.0164 2.00258 12.0174 2.00313C12.0177 2.00326 12.0184 2.00363 12.0202 2.00525C12.0217 2.00667 12.0276 2.01236 12.0363 2.02604L13.7249 0.954181ZM10.276 0.954181L8.58784 -0.118201L4.50781 6.30476L6.19601 7.37715L7.8842 8.44953L11.9642 2.02656L10.276 0.954181ZM6.19601 7.37715L7.20409 5.64978L4.08647 3.83036L3.07839 5.55772L2.07031 7.28508L5.18793 9.10451L6.19601 7.37715ZM3.07839 5.55772L4.08627 3.83024C0.936083 1.9923 -2.69629 4.90301 -1.88536 8.31294L0.0603731 7.85022L2.00611 7.3875C1.99927 7.35874 1.99986 7.34347 2.00016 7.33895C2.0005 7.33388 2.00132 7.33087 2.0024 7.32804C2.00529 7.3205 2.0148 7.30392 2.03512 7.28848C2.05545 7.27303 2.06671 7.27361 2.05944 7.27424C2.05494 7.27463 2.0498 7.27422 2.04643 7.27347C2.04252 7.27259 2.05031 7.27341 2.07051 7.2852L3.07839 5.55772ZM0.0603731 7.85022L-1.88517 8.31376L0.234045 17.2083L2.17959 16.7448L4.12513 16.2812L2.00591 7.38668L0.0603731 7.85022ZM2.17959 16.7448L0.236048 17.2167C0.386238 17.8353 0.736404 18.3953 1.24324 18.8005L2.49211 17.2383L3.74098 15.6761C3.93798 15.8336 4.06805 16.0461 4.12312 16.2729L2.17959 16.7448ZM2.49211 17.2383L1.24324 18.8005C1.75121 19.2066 2.3854 19.4313 3.04465 19.4278L3.03399 17.4279L3.02333 15.4279C3.29028 15.4265 3.54284 15.5177 3.74098 15.6761L2.49211 17.2383ZM3.03399 17.4279V19.4279H20.9669V17.4279V15.4279H3.03399V17.4279ZM20.9669 17.4279L20.9562 19.4278C21.6155 19.4313 22.2497 19.2066 22.7576 18.8005L21.5088 17.2383L20.2599 15.6761C20.458 15.5177 20.7106 15.4265 20.9776 15.4279L20.9669 17.4279ZM21.5088 17.2383L22.7576 18.8005C23.2645 18.3953 23.6146 17.8353 23.7648 17.2167L21.8213 16.7448L19.8778 16.2729C19.9328 16.0461 20.0629 15.8336 20.2599 15.6761L21.5088 17.2383ZM21.8213 16.7448L23.7669 17.2081L25.8849 8.31481L23.9393 7.85146L21.9937 7.3881L19.8757 16.2814L21.8213 16.7448ZM23.9393 7.85146L25.8849 8.31481C26.6977 4.90196 23.0648 1.99228 19.9146 3.83024L20.9225 5.55772L21.9304 7.2852C21.9507 7.27336 21.9586 7.2725 21.9547 7.27336C21.9514 7.27409 21.9463 7.27451 21.9418 7.27412C21.9345 7.27349 21.9454 7.27284 21.9654 7.28803C21.9854 7.30318 21.9947 7.31945 21.9975 7.32691C21.9986 7.32972 21.9995 7.33284 21.9998 7.33819C22.0002 7.34301 22.0007 7.35873 21.9937 7.3881L23.9393 7.85146ZM20.9225 5.55772L19.9149 3.83006L16.7973 5.64825L17.8049 7.37591L18.8124 9.10357L21.9301 7.28538L20.9225 5.55772ZM17.8049 7.37591L19.493 6.30338L15.413 -0.118348L13.7249 0.954181L12.0368 2.02671L16.1168 8.44844L17.8049 7.37591ZM12.2464 1.9201L13.9276 0.836707C13.7241 0.520858 13.4437 0.255609 13.1071 0.0696741L12.14 1.82032L11.173 3.57097C10.9222 3.43246 10.715 3.23576 10.5653 3.00349L12.2464 1.9201ZM12.14 1.82032L13.1071 0.0696741C12.7702 -0.116463 12.3897 -0.215797 12.0004 -0.215797V1.7842V3.7842C11.7086 3.7842 11.4241 3.70969 11.173 3.57097L12.14 1.82032ZM12.0004 1.7842V-0.215797C11.6111 -0.215797 11.2307 -0.116463 10.8938 0.0696741L11.8608 1.82032L12.8279 3.57097C12.5768 3.70969 12.2923 3.7842 12.0004 3.7842V1.7842ZM11.8608 1.82032L10.8938 0.0696741C10.5572 0.255609 10.2768 0.520858 10.0733 0.836707L11.7544 1.9201L13.4356 3.00349C13.2859 3.23576 13.0787 3.43246 12.8279 3.57097L11.8608 1.82032ZM11.7544 1.9201L10.0662 0.847769L5.53379 7.98344L7.22201 9.05576L8.91024 10.1281L13.4427 2.99242L11.7544 1.9201ZM7.22201 9.05576L5.54092 7.97228C5.6875 7.74485 5.92266 7.56839 6.2101 7.49752L6.68891 9.43936L7.16771 11.3812C7.89204 11.2026 8.50818 10.752 8.90311 10.1392L7.22201 9.05576ZM6.68891 9.43936L6.2101 7.49752C6.4988 7.42633 6.80089 7.47194 7.05119 7.61768L6.04481 9.34603L5.03842 11.0744C5.67974 11.4478 6.44214 11.5601 7.16771 11.3812L6.68891 9.43936ZM6.04481 9.34603L7.05205 7.61818L3.20843 5.37756L2.20119 7.10541L1.19394 8.83325L5.03756 11.0739L6.04481 9.34603ZM2.20119 7.10541L3.206 5.37614C1.41013 4.33263 -0.63481 5.99453 -0.173642 7.90259L1.77038 7.43273L3.71441 6.96287C4.05317 8.3645 2.54583 9.61879 1.19637 8.83467L2.20119 7.10541ZM1.77038 7.43273L-0.175198 7.8961L1.78081 16.1089L3.72639 15.6455L5.67197 15.1821L3.71596 6.96935L1.77038 7.43273ZM3.72639 15.6455V17.6455H20.2745V15.6455V13.6455H3.72639V15.6455ZM20.2745 15.6455L22.2201 16.1089L24.1761 7.8961L22.2305 7.43273L20.2849 6.96935L18.3289 15.1821L20.2745 15.6455ZM22.2305 7.43273L24.1766 7.89387C24.6261 5.99703 22.5971 4.33382 20.7977 5.37381L21.7985 7.10541L22.7993 8.837C21.4487 9.61761 19.9549 8.362 20.2844 6.97159L22.2305 7.43273ZM21.7985 7.10541L20.791 5.37769L16.9486 7.61832L17.9561 9.34603L18.9636 11.0737L22.806 8.83312L21.7985 7.10541ZM17.9561 9.34603L16.9517 7.61653C17.2019 7.47123 17.5036 7.42591 17.7919 7.49707L17.3127 9.4388L16.8334 11.3805C17.558 11.5594 18.3195 11.4478 18.9605 11.0755L17.9561 9.34603ZM17.3127 9.4388L17.7919 7.49707C18.079 7.56793 18.3139 7.74409 18.4604 7.97117L16.7801 9.05576L15.0997 10.1404C15.4946 10.7521 16.11 11.202 16.8334 11.3805L17.3127 9.4388ZM16.7801 9.05576L18.4682 7.98323L13.9345 0.847567L12.2464 1.9201L10.5583 2.99263L15.092 10.1283L16.7801 9.05576Z" fill="#C1492E" mask="url(#path-1-inside-1_2335_10449)"/>
<mask id="path-3-inside-2_2335_10449" fill="white">
<path d="M3.79318 19.2149C3.67845 19.2141 3.5647 19.2365 3.45841 19.2809C3.35211 19.3254 3.25536 19.3909 3.17368 19.4739C3.092 19.5568 3.02699 19.6555 2.98236 19.7643C2.93773 19.873 2.91436 19.9898 2.91357 20.1079C2.91357 20.6007 3.30838 20.9997 3.79318 20.9997H20.2093C20.4408 21.0014 20.6634 20.9084 20.8283 20.7411C20.9933 20.5739 21.087 20.3462 21.0889 20.1079C21.0881 19.9898 21.0647 19.873 21.0201 19.7643C20.9755 19.6555 20.9104 19.5568 20.8288 19.4739C20.7471 19.3909 20.6503 19.3254 20.544 19.2809C20.4378 19.2365 20.324 19.2141 20.2093 19.2149H3.79318Z"/>
</mask>
<path d="M3.79318 19.2149C3.67845 19.2141 3.5647 19.2365 3.45841 19.2809C3.35211 19.3254 3.25536 19.3909 3.17368 19.4739C3.092 19.5568 3.02699 19.6555 2.98236 19.7643C2.93773 19.873 2.91436 19.9898 2.91357 20.1079C2.91357 20.6007 3.30838 20.9997 3.79318 20.9997H20.2093C20.4408 21.0014 20.6634 20.9084 20.8283 20.7411C20.9933 20.5739 21.087 20.3462 21.0889 20.1079C21.0881 19.9898 21.0647 19.873 21.0201 19.7643C20.9755 19.6555 20.9104 19.5568 20.8288 19.4739C20.7471 19.3909 20.6503 19.3254 20.544 19.2809C20.4378 19.2365 20.324 19.2141 20.2093 19.2149H3.79318Z" fill="#C1492E"/>
<path d="M3.79318 19.2149L3.77899 21.2148L3.78609 21.2149H3.79318V19.2149ZM2.91357 20.1079L0.913574 20.0946V20.1079H2.91357ZM20.2093 20.9997L20.2235 18.9998L20.2164 18.9997H20.2093V20.9997ZM21.0889 20.1079L23.0888 20.1239L23.0889 20.1092L23.0888 20.0946L21.0889 20.1079ZM20.2093 19.2149V21.2149H20.2164L20.2235 21.2148L20.2093 19.2149ZM3.79318 19.2149L3.80737 17.2149C3.42185 17.2122 3.04094 17.2877 2.68695 17.4357L3.45841 19.2809L4.22986 21.1262C4.08846 21.1853 3.93506 21.2159 3.77899 21.2148L3.79318 19.2149ZM3.45841 19.2809L2.68695 17.4357C2.33308 17.5837 2.01482 17.8003 1.74879 18.0704L3.17368 19.4739L4.59857 20.8773C4.49591 20.9816 4.37114 21.0671 4.22986 21.1262L3.45841 19.2809ZM3.17368 19.4739L1.74879 18.0704C1.48289 18.3404 1.27423 18.6585 1.13202 19.0052L2.98236 19.7643L4.83271 20.5233C4.77975 20.6524 4.70112 20.7732 4.59857 20.8773L3.17368 19.4739ZM2.98236 19.7643L1.13202 19.0052C0.989842 19.3517 0.916098 19.7218 0.913618 20.0946L2.91357 20.1079L4.91353 20.1212C4.91262 20.2579 4.88563 20.3944 4.83271 20.5233L2.98236 19.7643ZM2.91357 20.1079H0.913574C0.913574 21.6812 2.17983 22.9997 3.79318 22.9997V20.9997V18.9997C4.43692 18.9997 4.91357 19.5203 4.91357 20.1079H2.91357ZM3.79318 20.9997V22.9997H20.2093V20.9997V18.9997H3.79318V20.9997ZM20.2093 20.9997L20.1951 22.9997C20.9755 23.0052 21.7143 22.691 22.2523 22.1456L20.8283 20.7411L19.4044 19.3367C19.6126 19.1257 19.9061 18.9975 20.2235 18.9998L20.2093 20.9997ZM20.8283 20.7411L22.2523 22.1456C22.7883 21.6021 23.0828 20.8738 23.0888 20.1239L21.0889 20.1079L19.0889 20.0919C19.0911 19.8186 19.1982 19.5458 19.4044 19.3367L20.8283 20.7411ZM21.0889 20.1079L23.0888 20.0946C23.0864 19.7217 23.0126 19.3517 22.8704 19.0052L21.0201 19.7643L19.1697 20.5233C19.1168 20.3944 19.0898 20.2579 19.0889 20.1212L21.0889 20.1079ZM21.0201 19.7643L22.8704 19.0052C22.7282 18.6585 22.5196 18.3404 22.2537 18.0704L20.8288 19.4739L19.4039 20.8773C19.3013 20.7732 19.2227 20.6524 19.1697 20.5233L21.0201 19.7643ZM20.8288 19.4739L22.2537 18.0704C21.9876 17.8003 21.6694 17.5837 21.3155 17.4357L20.544 19.2809L19.7726 21.1262C19.6313 21.0671 19.5065 20.9816 19.4039 20.8773L20.8288 19.4739ZM20.544 19.2809L21.3155 17.4357C20.9615 17.2877 20.5806 17.2122 20.1951 17.2149L20.2093 19.2149L20.2235 21.2148C20.0674 21.2159 19.914 21.1853 19.7726 21.1262L20.544 19.2809ZM20.2093 19.2149V17.2149H3.79318V19.2149V21.2149H20.2093V19.2149Z" fill="#C1492E" mask="url(#path-3-inside-2_2335_10449)"/>
</svg>
