<svg width="18" height="16" viewBox="0 0 18 16" fill="none" xmlns="http://www.w3.org/2000/svg">
<path d="M16.4672 9.66168C16.3022 9.66168 16.1439 9.72346 16.0273 9.83343C15.9106 9.94341 15.8451 10.0926 15.8451 10.2481V12.2506C15.8451 12.7226 15.6461 13.1753 15.2921 13.5091C14.938 13.8428 14.4577 14.0303 13.957 14.0303H3.13231C2.63156 14.0303 2.15131 13.8428 1.79722 13.5091C1.44314 13.1753 1.24421 12.7226 1.24421 12.2506V10.2481C1.24421 10.0926 1.17867 9.94341 1.062 9.83343C0.945336 9.72346 0.7871 9.66168 0.622107 9.66168C0.457114 9.66168 0.298879 9.72346 0.182211 9.83343C0.0655432 9.94341 0 10.0926 0 10.2481V12.2506C0.000823488 13.0334 0.331098 13.784 0.918342 14.3375C1.50559 14.891 2.30182 15.2024 3.13231 15.2031H13.957C14.7875 15.2024 15.5837 14.891 16.1709 14.3375C16.7582 13.784 17.0885 13.0334 17.0893 12.2506V10.2481C17.0893 10.0926 17.0237 9.94341 16.9071 9.83343C16.7904 9.72346 16.6322 9.66168 16.4672 9.66168Z" fill="#C1492E" stroke="#C1492E" stroke-width="0.5"/>
<path d="M8.10448 11.374C8.16231 11.4289 8.23112 11.4725 8.30693 11.5023C8.38274 11.5321 8.46405 11.5474 8.54618 11.5474C8.6283 11.5474 8.70962 11.5321 8.78543 11.5023C8.86123 11.4725 8.93004 11.4289 8.98787 11.374L12.5277 8.03735C12.6264 7.92533 12.6774 7.78267 12.6707 7.63715C12.664 7.49163 12.6001 7.35367 12.4914 7.25013C12.3828 7.14658 12.2371 7.08488 12.0828 7.07701C11.9285 7.06915 11.7766 7.1157 11.6567 7.2076L9.16828 9.55319V0.836397C9.16828 0.680875 9.10274 0.531722 8.98607 0.421752C8.86941 0.311781 8.71117 0.25 8.54618 0.25C8.38118 0.25 8.22295 0.311781 8.10628 0.421752C7.98961 0.531722 7.92407 0.680875 7.92407 0.836397V9.54439L5.43564 7.19881C5.31891 7.08877 5.16058 7.02696 4.9955 7.02696C4.83042 7.02696 4.67209 7.08877 4.55536 7.19881C4.43863 7.30884 4.37305 7.45807 4.37305 7.61368C4.37305 7.76929 4.43863 7.91852 4.55536 8.02856L8.10448 11.374Z" fill="#C1492E" stroke="#C1492E" stroke-width="0.5"/>
</svg>
