<svg width="18" height="15" viewBox="0 0 18 15" fill="none" xmlns="http://www.w3.org/2000/svg">
<path d="M13.1094 1C14.0849 1 15.0211 1.38019 15.748 2.08496C16.5459 2.85856 17.0075 3.96232 17 5.11133C16.9941 6.00201 16.6237 7.05173 15.7588 8.24414C15.0912 9.16442 14.1455 10.148 12.9297 11.1621C11.2499 12.5631 9.58874 13.5803 8.99902 13.9277C8.40623 13.5809 6.73348 12.5637 5.04688 11.1621C3.82643 10.1479 2.88032 9.16449 2.21582 8.24512C1.35435 7.05322 0.994232 6.00589 1 5.11816C1.00732 4.00562 1.41971 2.97366 2.14844 2.20215C2.88759 1.41969 3.85892 1 4.89062 1C6.20685 1.00001 7.43346 1.71128 8.14844 2.87305L9 4.25684L9.85156 2.87305C10.5665 1.71131 11.7932 1.00003 13.1094 1Z" fill="#C1492E" stroke="#C1492E" stroke-width="2"/>
</svg>
