<svg width="15" height="13" viewBox="0 0 15 13" fill="none" xmlns="http://www.w3.org/2000/svg">
<path d="M14.1426 11.0842C13.8493 11.8752 12.685 12.5311 11.7564 12.7226C11.1211 12.8518 10.2912 12.9548 7.49764 11.849C3.92437 10.4356 1.62325 6.96865 1.4439 6.74372C1.27215 6.51878 0 4.90795 0 3.24198C0 1.576 0.886098 0.764781 1.24327 0.416494C1.53661 0.130608 2.02146 0 2.48655 0C2.63702 0 2.77229 0.00725608 2.89388 0.0130609C3.25105 0.0275728 3.4304 0.0478899 3.66598 0.586284C3.95932 1.26109 4.67367 2.92707 4.75879 3.09831C4.84542 3.26955 4.93206 3.50174 4.81046 3.72668C4.69647 3.95887 4.59616 4.0619 4.41681 4.25926C4.23746 4.45663 4.06724 4.60755 3.88789 4.81943C3.72374 5.00373 3.53831 5.20109 3.74502 5.54212C3.95172 5.8759 4.66607 6.98897 5.71784 7.88291C7.07511 9.03661 8.17551 9.40521 8.56916 9.56194C8.8625 9.67804 9.21208 9.65046 9.42638 9.43279C9.69844 9.1527 10.0343 8.68832 10.3763 8.23119C10.6195 7.90322 10.9265 7.86259 11.2487 7.97868C11.577 8.08752 13.3143 8.90745 13.6714 9.07724C14.0286 9.24848 14.2642 9.32975 14.3508 9.47342C14.436 9.61709 14.436 10.2919 14.1426 11.0842Z" fill="#FAFAFA"/>
</svg>
