<svg width="35" height="30" viewBox="0 0 35 30" fill="none" xmlns="http://www.w3.org/2000/svg">
<path d="M17.5 30C17.3229 30 17.1459 29.9547 16.9874 29.8639C16.8151 29.7654 12.7224 27.4103 8.57091 23.8618C6.11039 21.7586 4.1463 19.6727 2.73331 17.6619C0.904842 15.0599 -0.0146573 12.5572 0.000176646 10.223C0.0175399 7.50696 0.999109 4.9527 2.76428 3.03067C4.55925 1.07626 6.95469 0 9.50948 0C12.7837 0 15.7772 1.8177 17.5 4.69715C19.2229 1.81777 22.2164 0 25.4906 0C27.9042 0 30.2071 0.97111 31.9751 2.73447C33.9154 4.66958 35.0178 7.40378 34.9998 10.2359C34.9849 12.566 34.0482 15.0649 32.2156 17.6633C30.7983 19.6731 28.8369 21.7581 26.3861 23.8606C22.2498 27.4088 18.1864 29.7638 18.0155 29.8623C17.8561 29.9541 17.678 30 17.5 30Z" fill="#C1492E"/>
</svg>
