<svg width="23" height="20" viewBox="0 0 23 20" fill="none" xmlns="http://www.w3.org/2000/svg">
<path d="M16.751 1C18.0575 1 19.3179 1.53193 20.3008 2.52637C21.3808 3.61918 22.0102 5.18269 22 6.81738C21.9919 8.1082 21.4789 9.58064 20.3496 11.2051C19.4772 12.4601 18.2489 13.7892 16.6826 15.1523C14.3883 17.149 12.1235 18.5648 11.499 18.9434C10.8708 18.5652 8.59 17.1493 6.28711 15.1523C4.71504 13.7891 3.48688 12.4592 2.61816 11.2051C1.4929 9.58057 0.991926 8.1101 1 6.82129C1.01002 5.24376 1.57118 3.78109 2.55762 2.69141C3.55763 1.58678 4.86729 1.00002 6.24902 1C8.0125 1 9.66825 1.99425 10.6387 3.63965L11.5 5.09961L12.3613 3.63965C13.3318 1.99428 14.9875 1 16.751 1Z" stroke="#C1492E" stroke-width="2"/>
</svg>
