<svg width="35" height="30" viewBox="0 0 35 30" fill="none" xmlns="http://www.w3.org/2000/svg">
<path d="M25.4902 1C27.6289 1 29.6808 1.85892 31.2686 3.44238C32.9032 5.07261 33.8881 7.34879 33.9912 9.74805L34 10.2295C33.9876 12.1641 33.2557 14.309 31.7168 16.6221L31.3984 17.0869C30.0409 19.0119 28.1417 21.0372 25.7354 23.1016C21.6692 26.5896 17.6683 28.9087 17.5166 28.9961C17.5119 28.9988 17.5062 29 17.5 29C17.4936 29 17.4885 28.9984 17.4844 28.9961H17.4834C17.3311 28.909 13.3016 26.5898 9.2207 23.1016C6.80507 21.0368 4.90414 19.0114 3.55176 17.0869C1.80046 14.5948 0.986926 12.2923 1 10.2295C1.01585 7.75059 1.91117 5.43812 3.50098 3.70703C5.11483 1.94989 7.24702 1 9.50977 1C12.4027 1.00011 15.0837 2.60723 16.6416 5.21094L17.5 6.64453L18.3584 5.21094C19.9163 2.60731 22.5973 1.00014 25.4902 1Z" stroke="#C1492E" stroke-width="2"/>
</svg>
