<svg width="28" height="24" viewBox="0 0 28 24" fill="none" xmlns="http://www.w3.org/2000/svg">
<path d="M20.0801 1.19922C21.6463 1.19922 23.1578 1.83622 24.3359 3.02832C25.6308 4.33842 26.3854 6.21309 26.373 8.17285C26.3633 9.72022 25.7473 11.4844 24.3936 13.4316C23.3477 14.9361 21.8766 16.531 19.999 18.165C17.2481 20.559 14.5321 22.2557 13.7842 22.709C13.0308 22.2555 10.2975 20.5577 7.53711 18.1641C5.65256 16.5299 4.18008 14.9361 3.13867 13.4326C1.78976 11.4853 1.1896 9.7227 1.19922 8.17773C1.21039 6.40464 1.80213 4.75255 2.85059 3.47656L3.06641 3.22656C4.2652 1.9024 5.83484 1.19922 7.49121 1.19922C9.60521 1.19922 11.5896 2.39084 12.7529 4.36328L13.7861 6.11328L14.8184 4.36328C15.9816 2.39101 17.9663 1.19938 20.0801 1.19922Z" stroke="#C1492E" stroke-width="2.39753"/>
</svg>
