<svg width="44" height="38" viewBox="0 0 44 38" fill="none" xmlns="http://www.w3.org/2000/svg">
<path d="M32.0449 1C34.8018 1 37.4452 2.11591 39.4883 4.16895C41.7317 6.42333 43.021 9.6271 43 12.959C42.9829 15.6459 41.9089 18.6163 39.6807 21.7998C37.9583 24.2606 35.5542 26.842 32.5176 29.4668C28.669 32.7932 24.8673 35.2823 23.126 36.3662L22.1455 36.9609C22.1004 36.9869 22.0503 37 22 37C21.9494 37 21.9 36.9866 21.8555 36.9609H21.8545C21.6558 36.8464 16.5751 33.8999 11.4277 29.4668C8.37944 26.8415 5.97297 24.2604 4.25684 21.7998C2.03487 18.6139 0.983049 15.6425 1 12.9551C1.02043 9.75 2.16938 6.75586 4.21387 4.5127C6.29012 2.23489 9.03801 1 11.9551 1C15.6863 1.00011 19.1381 3.08774 21.1406 6.45996L22 7.9082L22.8604 6.45996C24.8629 3.08806 28.3139 1.00016 32.0449 1Z" stroke="#C1492E" stroke-width="2"/>
</svg>
