<svg width="44" height="38" viewBox="0 0 44 38" fill="none" xmlns="http://www.w3.org/2000/svg">
<path d="M22 38C21.7774 38 21.5549 37.9426 21.3555 37.8276C21.139 37.7028 15.9938 34.7197 10.7749 30.2249C7.68163 27.5609 5.21249 24.9187 3.43616 22.3717C1.13752 19.0759 -0.0184263 15.9057 0.000222069 12.9491C0.0220501 9.50882 1.25602 6.27342 3.47509 3.83885C5.73163 1.36326 8.74304 0 11.9548 0C16.0709 0 19.8342 2.30242 22.0001 5.94973C24.1659 2.3025 27.9292 0 32.0453 0C35.0796 0 37.9746 1.23007 40.1973 3.46367C42.6365 5.9148 44.0224 9.37812 43.9997 12.9654C43.981 15.9169 42.8034 19.0823 40.4997 22.3735C38.7179 24.9192 36.2521 27.5603 33.171 30.2234C27.9711 34.7178 22.863 37.7008 22.648 37.8256C22.4477 37.9418 22.2238 38 22 38Z" fill="#C1492E"/>
</svg>
