<svg width="13" height="18" viewBox="0 0 13 18" fill="none" xmlns="http://www.w3.org/2000/svg">
<path d="M6.5 0C2.91633 0 0 3.0495 0 6.79875C0 12.126 5.889 17.6265 6.13961 17.8575C6.24289 17.9527 6.37144 18 6.5 18C6.62856 18 6.75711 17.9528 6.86039 17.8582C7.111 17.6265 13 12.126 13 6.79875C13 3.0495 10.0837 0 6.5 0ZM6.5 10.5C4.50883 10.5 2.88889 8.81775 2.88889 6.75C2.88889 4.68225 4.50883 3 6.5 3C8.49117 3 10.1111 4.68225 10.1111 6.75C10.1111 8.81775 8.49117 10.5 6.5 10.5Z" fill="#3B4173"/>
</svg>
