<svg width="150" height="70" viewBox="0 0 150 70" fill="none" xmlns="http://www.w3.org/2000/svg">
<g clip-path="url(#clip0_2006_145)">
<path d="M137.485 30.1431V32.3773L149.998 29.7316V24.8488L137.485 30.1431Z" fill="#C1492E"/>
<path d="M137.485 37.9817L149.998 38.9467V34.7854L137.485 35.7475V37.9817Z" fill="#C1492E"/>
<path d="M137.485 43.589L149.998 48.8834V44.0005L137.485 41.3519V43.589Z" fill="#C1492E"/>
<path d="M5.8507 21.1078L4.99295 33.4728H3.90047V21.1078H0V48.4111H3.90047V35.4636H4.60174L5.8507 48.4111H10.1395L7.7227 34.5653L10.1395 21.1078H5.8507Z" fill="#C1492E"/>
<path d="M19.2692 24.8141C19.1378 25.9326 19.0006 27.0242 18.8577 28.0886C18.7147 29.1531 18.5718 30.2456 18.4288 31.3661C18.2878 32.4846 18.1255 33.7201 17.942 35.0724C17.6696 37.126 17.4387 38.7855 17.2494 40.0509L14.2762 21.1078H10.5322L14.0096 43.224H18.2028L16.5017 43.6355C16.4103 43.9725 16.2439 44.2846 16.0149 44.5483C15.7766 44.7612 15.4649 44.8734 15.1456 44.8612C14.8558 44.8612 14.566 44.8612 14.3081 44.8236C14.0518 44.7998 13.7973 44.7601 13.546 44.7047C13.2852 44.6787 13.0244 44.641 12.7664 44.5888V48.0199L13.7024 48.2546C13.8554 48.2939 14.0115 48.3201 14.169 48.3328L14.9311 48.4111C15.2035 48.4371 15.4904 48.4545 15.8005 48.469C16.1105 48.4835 16.3511 48.4893 16.5597 48.4893C17.4967 48.4893 18.2182 48.2807 18.7244 47.8634C19.2315 47.449 19.643 46.7274 19.9531 45.6987C20.3324 44.3444 20.6066 42.9629 20.7731 41.5664C21.0069 39.8277 21.3189 37.663 21.7091 35.0724C21.8656 34.0581 22.0221 32.9531 22.1786 31.7573C22.3351 30.5615 22.4973 29.3386 22.6654 28.0886C22.8335 26.8426 22.9958 25.6206 23.1522 24.4229C23.3087 23.2251 23.4517 22.1201 23.5811 21.1078H19.698C19.5416 22.462 19.3986 23.6975 19.2692 24.8141Z" fill="#C1492E"/>
<path d="M31.0061 21.1078H28.627H27.1057H24.7266V48.4111H28.627V25.5415L26.9956 25.1271H27.1057H30.0759H31.0061V48.4111H34.9066V21.1078H34.5183H31.0061Z" fill="#C1492E"/>
<path d="M43.49 21.1078L41.0732 40.5319H40.7979L41.1514 21.1078H37.251V48.4111H41.1514V48.3734L43.6465 28.9087H43.9189L43.5306 48.4111H47.431V21.1078H43.5306H43.49Z" fill="#C1492E"/>
<path d="M55.0049 48.553L60.3861 50.0744V23.8172L58.5402 23.5014L61.6003 23.3159C62.9536 23.2377 64.3127 23.171 65.6573 23.1246C66.2368 21.355 66.8106 19.5787 67.3786 17.7955L55.0049 21.2439V48.553Z" fill="#C1492E"/>
<path d="M80.2372 15.486C78.9622 14.4254 76.5454 14.5615 75.1254 15.031C73.2708 15.6453 71.3148 16.6335 69.9586 18.1722C68.6886 19.6666 68.0175 21.5787 68.075 23.539V45.6117C68.0438 46.8628 68.2071 48.1112 68.559 49.3122C68.8474 50.2393 69.3339 51.0926 69.9847 51.8131C70.6269 52.5039 71.3938 53.0673 72.245 53.4735C73.1892 53.9262 74.1703 54.2975 75.1776 54.5834C76.0974 54.8609 77.0449 55.0367 78.003 55.1079C78.7745 55.1723 79.5446 54.9675 80.1822 54.5283C80.7907 54.0995 81.2688 53.3692 81.6079 52.3463C81.9469 51.3233 82.1208 49.8831 82.1208 48.0604C82.0995 39.0346 82.0812 30.0069 82.0657 20.9773C82.1092 19.0763 81.7789 16.7726 80.2372 15.486ZM76.8989 45.858C76.9195 46.8463 76.8301 47.8337 76.6323 48.8022C76.4527 49.5557 75.9484 49.8368 75.1254 49.6716C74.7534 49.6126 74.4078 49.4428 74.1338 49.1843C73.8598 48.9258 73.6701 48.5907 73.5896 48.2227C73.3778 47.2717 73.2806 46.2989 73.2998 45.3248V23.907C73.2921 23.07 73.4013 22.2361 73.6244 21.4294C73.7102 21.0732 73.8987 20.7501 74.1666 20.5003C74.4345 20.2504 74.77 20.0848 75.1313 20.024C75.2873 19.9771 75.4513 19.9624 75.6131 19.9808C75.775 19.9993 75.9315 20.0504 76.073 20.1312C76.3203 20.3035 76.5077 20.5486 76.6091 20.8324C76.7477 21.1974 76.8298 21.5815 76.8526 21.9713C76.8873 22.4176 76.9047 22.8667 76.9047 23.3188L76.8989 45.858Z" fill="#C1492E"/>
<path d="M87.7499 18.3201C87.6977 20.1534 87.6446 21.9887 87.5905 23.8259C87.5364 25.6632 87.4736 27.4917 87.4022 29.3115C87.321 31.369 87.2312 33.4255 87.1327 35.481C86.9878 38.5498 86.8429 41.6215 86.6487 44.6845C86.579 46.2709 86.3901 47.8498 86.0837 49.4079C85.8489 50.3874 85.5534 50.9408 85.194 51.0799C84.7172 51.2124 84.2112 51.1942 83.7451 51.0278V56.667L84.9825 57.0785C86.5966 57.6203 87.8426 57.7565 88.7207 57.4464C89.5987 57.1364 90.2797 56.1888 90.7144 54.6124C91.3345 52.3463 91.4736 49.944 91.6011 47.6113C91.8213 43.6152 91.9315 39.5408 92.0851 35.5186C92.1546 33.7336 92.2126 32.1021 92.2473 30.63C92.2821 29.1579 92.3198 27.7322 92.3546 26.3152C92.3893 24.8981 92.4357 23.4666 92.4878 21.9858C92.54 20.5977 92.5806 19.0619 92.6153 17.3928H90.555L92.624 17.0566L94.1831 16.8074V59.6198L99.5643 61.1412V8.82971L87.9412 12.0695C87.8697 14.154 87.8059 16.2375 87.7499 18.3201Z" fill="#C1492E"/>
<path d="M114.94 6.41285C113.915 4.91757 111.405 4.5119 109.829 5.05379C107.701 5.78972 105.882 7.21827 104.662 9.11074C103.213 11.4638 102.793 14.4862 102.778 17.2246V51.7087C102.828 53.6213 102.857 55.5454 103.262 57.4261C103.509 58.7309 103.993 59.9793 104.691 61.1093C105.262 62.0137 106.034 62.7735 106.948 63.329C107.871 63.8654 108.857 64.284 109.884 64.5751C110.797 64.8579 111.751 64.9881 112.706 64.9605C113.128 64.9363 113.54 64.8236 113.915 64.6299C114.291 64.4362 114.621 64.1658 114.885 63.8361C115.497 63.1319 115.981 62.0018 116.314 60.4717C116.709 58.3951 116.88 56.2821 116.824 54.169C116.807 41.0051 116.788 27.8393 116.769 14.6716C116.676 11.8608 116.569 8.78617 114.94 6.41285ZM111.605 51.3001C111.626 52.7779 111.536 54.2551 111.336 55.7193C111.156 56.861 110.654 57.344 109.829 57.1682C109.003 56.9915 108.493 56.2989 108.296 55.1195C108.081 53.6701 107.985 52.2058 108.006 50.7409V18.2128C107.997 16.9614 108.104 15.7118 108.328 14.4804C108.542 13.3474 109.046 12.6896 109.835 12.5215C110 12.4712 110.176 12.4685 110.342 12.5136C110.509 12.5587 110.659 12.6498 110.776 12.7765C111.04 13.0992 111.225 13.4793 111.315 13.8863C111.453 14.4507 111.533 15.0273 111.556 15.6077C111.594 16.2761 111.613 16.9523 111.611 17.6361L111.605 51.3001Z" fill="#C1492E"/>
<path d="M127.05 0.199901C124.854 0.979692 123.024 2.54452 121.913 4.59301C120.414 7.401 120.012 10.8204 120.055 13.9646V54.8239C120.013 57.0471 120.184 59.2692 120.565 61.4599C120.812 62.956 121.301 64.4018 122.014 65.74C122.559 66.75 123.344 67.6099 124.3 68.2437C125.219 68.8238 126.215 69.2698 127.259 69.568C128.188 69.8691 129.174 69.9485 130.14 69.7998C130.98 69.6404 131.69 69.1217 132.264 68.2292C132.837 67.3367 133.284 65.9892 133.582 64.1925C133.928 61.8725 134.081 59.5279 134.04 57.1827V50.3235L128.873 49.6947V54.0183C128.894 55.7397 128.804 57.4607 128.604 59.1706C128.424 60.5075 127.923 61.087 127.1 60.9093C126.274 60.7325 125.752 59.9472 125.538 58.565C125.302 56.8706 125.195 55.1608 125.216 53.4503V15.3063C125.202 13.8838 125.299 12.4625 125.506 11.0551C125.703 9.80617 126.213 9.0875 127.039 8.91074C127.865 8.73397 128.375 9.2266 128.572 10.3944C128.785 11.8215 128.882 13.2636 128.862 14.7064V23.9417L134.028 23.4839V11.4029C133.95 8.21529 133.814 4.66545 132.171 1.90382C131.244 0.312918 128.72 -0.376766 127.05 0.199901Z" fill="#C1492E"/>
</g>
<defs>
<clipPath id="clip0_2006_145">
<rect width="150" height="69.8694" fill="white"/>
</clipPath>
</defs>
</svg>
