<svg width="262" height="230" viewBox="0 0 262 230" fill="none" xmlns="http://www.w3.org/2000/svg">
<g opacity="0.2">
<g clip-path="url(#clip0_414_1364)">
<path d="M21.643 222.661L35.8711 246.332L33.8766 247.727L18.0825 225.153L10.9614 230.135L45.8366 279.982L52.9576 275L36.4195 251.362L37.6998 250.466L56.5181 272.509L64.3481 267.03L42.2502 244.839L29.4729 217.183L21.643 222.661Z" fill="white"/>
<path d="M50.875 212.288C52.0639 214.498 53.2077 216.666 54.3064 218.792C55.4051 220.918 56.5395 223.095 57.7097 225.323C58.881 227.546 60.1628 230.009 61.5551 232.712C63.6809 236.809 65.3791 240.134 66.6498 242.686L37.0253 211.899L30.1899 216.682L64.7881 252.617L72.4434 247.261L69.8635 250.185C70.1271 250.917 70.2219 251.699 70.1407 252.473C69.9775 253.167 69.5519 253.769 68.9533 254.155C68.4242 254.525 67.8952 254.895 67.3762 255.156C66.878 255.44 66.3626 255.693 65.833 255.913C65.3236 256.198 64.7993 256.463 64.2618 256.697L68.6444 262.961L70.653 262.194C70.9826 262.07 71.301 261.918 71.6047 261.741L73.0961 260.91C73.6267 260.61 74.1726 260.275 74.7572 259.905C75.3418 259.536 75.7884 259.239 76.1693 258.973C77.8799 257.776 78.9307 256.473 79.3218 255.065C79.7183 253.661 79.5479 251.818 78.8 249.543C77.7627 246.586 76.4986 243.714 75.0189 240.952C73.2248 237.479 71.0294 233.128 68.4328 227.9C67.4229 225.848 66.2972 223.631 65.0554 221.248C63.8136 218.865 62.5478 216.425 61.2581 213.928C59.9733 211.439 58.7088 209.001 57.4646 206.614C56.2203 204.227 55.0699 202.027 54.0131 200.014L46.9238 204.974C48.368 207.646 49.685 210.084 50.875 212.288Z" fill="white"/>
<path d="M67.5689 190.53L63.2254 193.569L60.4479 195.512L56.1044 198.551L90.9795 248.398L98.1005 243.416L68.8886 201.663L65.3808 202.991L65.5818 202.85L71.0046 199.056L72.7028 197.868L102.444 240.377L109.565 235.395L74.6899 185.548L73.981 186.044L67.5689 190.53Z" fill="white"/>
<path d="M90.3604 174.584L110.759 213.133L110.256 213.485L86.091 177.571L78.97 182.553L113.845 232.4L120.966 227.418L120.918 227.349L100.61 188.626L101.108 188.278L125.31 224.379L132.431 219.397L97.5555 169.55L90.4345 174.532L90.3604 174.584Z" fill="white"/>
<path d="M146.44 209.982L158.207 205.886L124.668 157.949L120.895 159.73L126.245 155.482C128.615 153.611 131.012 151.753 133.407 149.951C132.205 145.98 130.983 142.004 129.743 138.023L111.557 160.124L146.44 209.982Z" fill="white"/>
<path d="M150.268 117.382C146.586 117.074 142.348 120.41 140.355 123.081C137.754 126.571 135.445 130.874 134.934 135.416C134.524 139.766 135.742 144.114 138.351 147.62L166.545 187.917C168.086 190.241 169.978 192.312 172.155 194.055C173.866 195.379 175.844 196.316 177.952 196.8C180.007 197.241 182.127 197.29 184.2 196.944C186.502 196.565 188.767 195.989 190.971 195.225C193.005 194.556 194.959 193.667 196.8 192.573C198.29 191.705 199.435 190.348 200.038 188.732C200.601 187.171 200.541 185.227 199.853 182.927C199.166 180.626 197.644 177.775 195.315 174.447C183.748 157.996 172.183 141.538 160.621 125.072C158.272 121.546 154.726 117.762 150.268 117.382ZM182.969 177.096C184.269 178.874 185.367 180.791 186.243 182.812C186.877 184.417 186.316 185.574 184.602 186.324C183.848 186.691 183 186.823 182.169 186.701C181.339 186.579 180.564 186.209 179.947 185.64C178.346 184.175 176.926 182.523 175.717 180.72L148.359 141.618C147.276 140.1 146.41 138.438 145.787 136.68C145.489 135.92 145.42 135.089 145.59 134.291C145.76 133.492 146.161 132.762 146.743 132.189C146.968 131.904 147.249 131.668 147.568 131.495C147.887 131.322 148.238 131.215 148.599 131.182C149.271 131.181 149.926 131.389 150.474 131.777C151.193 132.267 151.834 132.863 152.373 133.546C153.007 134.316 153.612 135.114 154.189 135.939L182.969 177.096Z" fill="white"/>
<path d="M167.604 112.96C169.851 116.374 172.098 119.792 174.346 123.216C176.594 126.639 178.815 130.057 181.009 133.471C183.489 137.331 185.952 141.2 188.397 145.079C192.053 150.867 195.712 156.66 199.27 162.5C201.169 165.485 202.841 168.609 204.271 171.845C205.094 173.933 205.261 175.321 204.783 176.034C204.082 176.885 203.135 177.498 202.071 177.79L209.274 188.085L212.059 187.256C215.698 186.183 218.147 184.84 219.354 183.153C220.561 181.465 220.594 178.865 219.374 175.432C217.611 170.503 214.797 165.939 212.05 161.517C207.347 153.94 202.344 146.361 197.487 138.822C195.334 135.474 193.356 132.422 191.539 129.69C189.722 126.958 187.97 124.307 186.223 121.675C184.477 119.044 182.733 116.371 180.937 113.601C179.259 111 177.371 108.144 175.303 105.052L171.541 107.684L174.889 104.428L177.417 101.981L232.102 180.143L243.87 176.047L177.051 80.5429L159.969 101.304C162.501 105.201 165.046 109.086 167.604 112.96Z" fill="white"/>
<path d="M202.036 56.4903C198.254 55.0707 193.154 57.5355 190.968 60.5384C188.023 64.5999 186.527 69.5319 186.717 74.5449C187.077 80.6915 190.171 86.7462 193.642 91.7642L237.69 154.721C240.223 158.15 242.733 161.626 245.876 164.541C247.993 166.608 250.472 168.269 253.189 169.441C255.386 170.363 257.768 170.763 260.146 170.61C262.515 170.411 264.85 169.915 267.097 169.135C269.125 168.485 271.032 167.505 272.742 166.234C273.481 165.651 274.089 164.919 274.527 164.086C274.965 163.253 275.223 162.337 275.284 161.397C275.501 159.331 274.941 156.649 273.595 153.43C271.663 149.135 269.276 145.059 266.475 141.272C249.629 117.261 232.779 93.248 215.924 69.2326C212.164 64.2193 208.041 58.743 202.036 56.4903ZM253.283 142.701C255.209 145.372 256.931 148.184 258.435 151.113C259.566 153.427 259.266 154.95 257.535 155.683C255.801 156.415 253.986 155.802 252.119 153.901C249.877 151.528 247.83 148.979 245.997 146.277L204.449 86.8909C202.833 84.6181 201.434 82.1992 200.268 79.6658C199.213 77.3233 199.293 75.4784 200.517 74.1647C200.754 73.8621 201.072 73.6324 201.434 73.502C201.796 73.3716 202.187 73.3457 202.562 73.4273C203.457 73.6793 204.279 74.1375 204.964 74.7651C205.936 75.62 206.819 76.5699 207.602 77.6005C208.526 78.7714 209.423 79.9825 210.293 81.2335L253.283 142.701Z" fill="white"/>
<path d="M216.209 29.679C213.196 33.908 211.853 39.1026 212.441 44.2622C213.292 51.3023 216.925 58.0596 221.02 63.7443L273.211 138.341C275.973 142.453 279.124 146.292 282.618 149.804C284.979 152.221 287.719 154.235 290.73 155.768C293.015 156.916 295.547 157.483 298.103 157.418C300.52 157.305 302.908 156.846 305.196 156.057C307.276 155.42 309.179 154.305 310.751 152.801C312.081 151.436 312.715 149.583 312.623 147.22C312.53 144.858 311.624 141.828 309.874 138.166C307.541 133.49 304.825 129.013 301.756 124.784L292.994 112.261L282.758 117.713L288.281 125.606C290.518 128.722 292.552 131.979 294.37 135.357C295.749 138.027 295.574 139.726 293.845 140.452C292.111 141.185 290.156 140.417 287.999 138.167C285.405 135.375 283.024 132.391 280.879 129.241L232.156 59.6015C230.314 57.0221 228.676 54.3035 227.255 51.4702C226.02 48.9383 226.033 46.9747 227.315 45.5971C228.597 44.2194 230.157 44.4674 232.009 46.3478C234.222 48.6802 236.24 51.1893 238.046 53.8499L249.842 70.7107L258.69 63.2752L243.259 41.219C239.044 35.4994 234.261 29.1925 227.734 26.2494C224.009 24.5294 218.52 26.4942 216.209 29.679Z" fill="white"/>
</g>
</g>
<defs>
<clipPath id="clip0_414_1364">
<rect width="334.224" height="155.68" fill="white" transform="translate(-16 191.599) rotate(-34.9782)"/>
</clipPath>
</defs>
</svg>
