<svg width="109" height="51" viewBox="0 0 109 51" fill="none" xmlns="http://www.w3.org/2000/svg">
<g clip-path="url(#clip0_2006_593)">
<path d="M99.906 21.9041V23.5276L108.999 21.6051V18.0569L99.906 21.9041Z" fill="white"/>
<path d="M99.906 27.6L108.999 28.3012V25.2773L99.906 25.9765V27.6Z" fill="white"/>
<path d="M99.906 31.6747L108.999 35.5219V31.9737L99.906 30.0491V31.6747Z" fill="white"/>
<path d="M4.25151 15.3384L3.62821 24.3236H2.83434V15.3384H0V35.1788H2.83434V25.7703H3.34393L4.25151 35.1788H7.36802L5.61183 25.1175L7.36802 15.3384H4.25151Z" fill="white"/>
<path d="M14.0023 18.0316C13.9068 18.8444 13.8072 19.6376 13.7033 20.4111C13.5994 21.1846 13.4955 21.9785 13.3916 22.7927C13.2891 23.6055 13.1712 24.5033 13.0379 25.486C12.8399 26.9783 12.6721 28.1842 12.5346 29.1037L10.3741 15.3384H7.65344L10.1803 31.4095H13.2274L11.9913 31.7085C11.9248 31.9534 11.8039 32.1802 11.6375 32.3718C11.4643 32.5265 11.2379 32.608 11.0058 32.5992C10.7952 32.5992 10.5846 32.5992 10.3972 32.5718C10.211 32.5546 10.0261 32.5258 9.84342 32.4855C9.6539 32.4665 9.46439 32.4392 9.27698 32.4013V34.8945L9.95713 35.065C10.0683 35.0936 10.1817 35.1126 10.2962 35.1219L10.85 35.1788C11.0479 35.1977 11.2564 35.2103 11.4817 35.2209C11.707 35.2314 11.8818 35.2356 12.0334 35.2356C12.7143 35.2356 13.2386 35.084 13.6064 34.7808C13.9749 34.4796 14.2739 33.9553 14.4992 33.2078C14.7749 32.2237 14.9741 31.2198 15.0952 30.205C15.265 28.9415 15.4918 27.3685 15.7753 25.486C15.889 24.749 16.0027 23.946 16.1165 23.077C16.2302 22.208 16.3481 21.3194 16.4702 20.4111C16.5924 19.5057 16.7103 18.6177 16.824 17.7473C16.9377 16.877 17.0416 16.074 17.1356 15.3384H14.3139C14.2002 16.3225 14.0963 17.2202 14.0023 18.0316Z" fill="white"/>
<path d="M22.5312 15.3384H20.8024H19.6968H17.968V35.1788H20.8024V18.5602L19.6168 18.2591H19.6968H21.8552H22.5312V35.1788H25.3655V15.3384H25.0834H22.5312Z" fill="white"/>
<path d="M31.6028 15.3384L29.8466 29.4532H29.6465L29.9034 15.3384H27.0691V35.1788H29.9034V35.1514L31.7165 21.0071H31.9144L31.6323 35.1788H34.4666V15.3384H31.6323H31.6028Z" fill="white"/>
<path d="M39.9702 35.2818L43.8806 36.3874V17.3072L42.5392 17.0776L44.7629 16.9429C45.7463 16.886 46.7339 16.8376 47.711 16.8039C48.1321 15.518 48.549 14.2271 48.9618 12.9314L39.9702 15.4372V35.2818Z" fill="white"/>
<path d="M58.3057 11.2531C57.3791 10.4824 55.6229 10.5814 54.5911 10.9225C53.2434 11.3689 51.822 12.087 50.8366 13.2052C49.9137 14.2911 49.426 15.6805 49.4678 17.105V33.1445C49.4451 34.0537 49.5638 34.9608 49.8195 35.8336C50.0291 36.5072 50.3826 37.1273 50.8555 37.6508C51.3222 38.1528 51.8794 38.5622 52.498 38.8574C53.1841 39.1864 53.897 39.4562 54.629 39.6639C55.2974 39.8656 55.9859 39.9934 56.6821 40.0451C57.2428 40.0919 57.8023 39.9431 58.2656 39.6239C58.7079 39.3123 59.0553 38.7816 59.3017 38.0383C59.548 37.2949 59.6744 36.2484 59.6744 34.9239C59.659 28.3652 59.6456 21.805 59.6344 15.2435C59.666 13.8621 59.4259 12.1881 58.3057 11.2531ZM55.8798 33.3235C55.8948 34.0416 55.8298 34.7592 55.6861 35.4629C55.5555 36.0104 55.1891 36.2147 54.5911 36.0947C54.3207 36.0518 54.0696 35.9285 53.8705 35.7406C53.6714 35.5528 53.5336 35.3092 53.4751 35.0418C53.3212 34.3508 53.2505 33.6438 53.2645 32.936V17.3724C53.2588 16.7642 53.3382 16.1582 53.5003 15.572C53.5627 15.3132 53.6997 15.0784 53.8944 14.8969C54.0891 14.7153 54.3328 14.5949 54.5953 14.5507C54.7087 14.5167 54.8279 14.506 54.9455 14.5194C55.0631 14.5328 55.1769 14.57 55.2797 14.6287C55.4594 14.7539 55.5956 14.932 55.6693 15.1382C55.77 15.4035 55.8296 15.6826 55.8461 15.9658C55.8714 16.2901 55.884 16.6165 55.884 16.945L55.8798 33.3235Z" fill="white"/>
<path d="M63.7649 13.3126C63.727 14.6448 63.6884 15.9785 63.6491 17.3135C63.6098 18.6486 63.5641 19.9773 63.5122 21.2997C63.4532 22.7948 63.388 24.2892 63.3164 25.7828C63.2111 28.0128 63.1058 30.2449 62.9647 32.4707C62.914 33.6235 62.7768 34.7709 62.5541 35.9031C62.3835 36.6148 62.1687 37.017 61.9076 37.1181C61.5611 37.2143 61.1934 37.2011 60.8547 37.0802V41.178L61.7539 41.477C62.9268 41.8708 63.8323 41.9697 64.4703 41.7444C65.1083 41.5191 65.6032 40.8305 65.9191 39.685C66.3697 38.0383 66.4708 36.2926 66.5634 34.5975C66.7235 31.6937 66.8035 28.733 66.9151 25.8102C66.9656 24.5131 67.0077 23.3275 67.033 22.2578C67.0583 21.1881 67.0857 20.1521 67.1109 19.1224C67.1362 18.0926 67.1699 17.0524 67.2078 15.9763C67.2457 14.9677 67.2752 13.8517 67.3004 12.6387H65.8033L67.3068 12.3945L68.4397 12.2134V43.3237L72.35 44.4293V6.41626L63.9039 8.77047C63.8519 10.2852 63.8056 11.7993 63.7649 13.3126Z" fill="white"/>
<path d="M83.5234 4.66C82.778 3.57343 80.9544 3.27864 79.8088 3.67241C78.2626 4.20719 76.9406 5.24527 76.0543 6.62047C75.0014 8.33034 74.6961 10.5266 74.6855 12.5166V37.575C74.7213 38.9648 74.7424 40.363 75.0372 41.7296C75.2166 42.6778 75.5685 43.5849 76.0753 44.4061C76.4901 45.0633 77.0516 45.6154 77.7157 46.0191C78.3861 46.4088 79.1028 46.7131 79.8489 46.9245C80.5125 47.13 81.2054 47.2247 81.8998 47.2046C82.2063 47.187 82.5057 47.1052 82.7785 46.9644C83.0513 46.8237 83.2914 46.6271 83.4834 46.3876C83.9277 45.8759 84.2793 45.0546 84.5215 43.9428C84.8085 42.4338 84.9327 40.8983 84.8921 39.3628C84.8795 29.7971 84.8662 20.2299 84.8521 10.6614C84.7847 8.61881 84.7068 6.38461 83.5234 4.66ZM81.0997 37.2781C81.1149 38.3519 81.0495 39.4254 80.9038 40.4894C80.7733 41.319 80.4083 41.67 79.8088 41.5422C79.2087 41.4138 78.8381 40.9105 78.6949 40.0535C78.5392 39.0003 78.4687 37.9362 78.4843 36.8717V13.2346C78.4775 12.3253 78.5558 11.4172 78.7181 10.5224C78.8739 9.69908 79.2403 9.22107 79.813 9.09894C79.933 9.06243 80.0608 9.06043 80.1819 9.09321C80.3029 9.12598 80.4123 9.1922 80.4974 9.28425C80.6892 9.51875 80.8234 9.79498 80.8891 10.0907C80.9888 10.5008 81.0474 10.9199 81.0639 11.3416C81.0919 11.8273 81.1053 12.3186 81.1039 12.8156L81.0997 37.2781Z" fill="white"/>
<path d="M92.3233 0.145194C90.7274 0.711842 89.3975 1.84895 88.5898 3.33752C87.5012 5.37799 87.2085 7.86277 87.24 10.1475V39.8386C87.2093 41.4541 87.3335 43.0689 87.6107 44.6608C87.7897 45.748 88.1454 46.7986 88.6635 47.771C89.0592 48.5049 89.6299 49.1298 90.325 49.5903C90.9921 50.0119 91.7161 50.336 92.475 50.5527C93.1499 50.7715 93.8668 50.8291 94.5681 50.7211C95.1787 50.6053 95.6946 50.2284 96.1116 49.5798C96.5285 48.9312 96.8528 47.9521 97.0697 46.6465C97.3207 44.9606 97.4319 43.2569 97.4024 41.5527V36.5684L93.6478 36.1114V39.2532C93.6631 40.5041 93.5977 41.7547 93.452 42.9972C93.3215 43.9687 92.9572 44.3898 92.3591 44.2607C91.759 44.1322 91.38 43.5616 91.2241 42.5571C91.053 41.3259 90.9749 40.0835 90.9904 38.8405V11.1225C90.9804 10.0889 91.0508 9.05603 91.201 8.03333C91.3442 7.12575 91.7148 6.60352 92.3149 6.47507C92.9151 6.34662 93.2857 6.70459 93.4289 7.55321C93.5841 8.59021 93.6545 9.63813 93.6394 10.6866V17.3976L97.394 17.0649V8.28604C97.3371 5.96971 97.2382 3.39016 96.0442 1.38338C95.3704 0.227319 93.5362 -0.273851 92.3233 0.145194Z" fill="white"/>
</g>
<defs>
<clipPath id="clip0_2006_593">
<rect width="109" height="50.7718" fill="white"/>
</clipPath>
</defs>
</svg>
