<svg width="364" height="320" viewBox="0 0 364 320" fill="none" xmlns="http://www.w3.org/2000/svg">
<g opacity="0.2">
<g clip-path="url(#clip0_4012_1749)">
<path d="M289.507 71.0171L292.361 75.0961L311.826 54.283L305.589 45.3685L289.507 71.0171Z" fill="white"/>
<path d="M299.52 85.328L323.597 71.1068L318.282 63.5097L296.666 81.249L299.52 85.328Z" fill="white"/>
<path d="M306.682 95.5651L336.289 89.248L330.052 80.3335L303.825 91.4808L306.682 95.5651Z" fill="white"/>
<path d="M37.643 222.661L51.8711 246.332L49.8766 247.727L34.0825 225.153L26.9614 230.135L61.8366 279.982L68.9576 275L52.4195 251.362L53.6998 250.466L72.5181 272.509L80.3481 267.03L58.2502 244.839L45.4729 217.183L37.643 222.661Z" fill="white"/>
<path d="M66.875 212.288C68.0639 214.498 69.2077 216.666 70.3064 218.792C71.4051 220.918 72.5395 223.095 73.7097 225.323C74.881 227.546 76.1628 230.009 77.5551 232.712C79.6809 236.809 81.3791 240.134 82.6498 242.686L53.0253 211.899L46.1899 216.682L80.7881 252.617L88.4434 247.261L85.8635 250.185C86.1271 250.917 86.2219 251.699 86.1407 252.473C85.9775 253.167 85.5519 253.769 84.9533 254.155C84.4242 254.525 83.8952 254.895 83.3762 255.156C82.878 255.44 82.3626 255.693 81.833 255.913C81.3236 256.198 80.7993 256.463 80.2618 256.697L84.6444 262.961L86.653 262.194C86.9826 262.07 87.301 261.918 87.6047 261.741L89.0961 260.91C89.6267 260.61 90.1726 260.275 90.7572 259.905C91.3418 259.536 91.7884 259.239 92.1693 258.973C93.8799 257.776 94.9307 256.473 95.3218 255.065C95.7183 253.661 95.5479 251.818 94.8 249.543C93.7627 246.586 92.4986 243.714 91.0189 240.952C89.2248 237.479 87.0294 233.128 84.4328 227.9C83.4229 225.848 82.2972 223.631 81.0554 221.248C79.8136 218.865 78.5478 216.425 77.2581 213.928C75.9733 211.439 74.7088 209.001 73.4646 206.614C72.2203 204.227 71.0699 202.027 70.0131 200.014L62.9238 204.974C64.368 207.646 65.685 210.084 66.875 212.288Z" fill="white"/>
<path d="M83.5689 190.53L79.2254 193.569L76.4479 195.512L72.1044 198.551L106.98 248.398L114.101 243.416L84.8886 201.663L81.3808 202.991L81.5818 202.85L87.0046 199.056L88.7028 197.868L118.444 240.377L125.565 235.395L90.6899 185.548L89.981 186.044L83.5689 190.53Z" fill="white"/>
<path d="M106.36 174.584L126.759 213.133L126.256 213.485L102.091 177.571L94.97 182.553L129.845 232.4L136.966 227.418L136.918 227.349L116.61 188.626L117.108 188.278L141.31 224.379L148.431 219.397L113.556 169.55L106.435 174.532L106.36 174.584Z" fill="white"/>
<path d="M162.44 209.982L174.207 205.886L140.668 157.949L136.895 159.73L142.245 155.482C144.615 153.611 147.012 151.753 149.407 149.951C148.205 145.98 146.983 142.004 145.743 138.023L127.557 160.124L162.44 209.982Z" fill="white"/>
<path d="M166.268 117.382C162.586 117.074 158.348 120.41 156.355 123.081C153.754 126.571 151.445 130.874 150.934 135.416C150.524 139.766 151.742 144.114 154.351 147.62L182.545 187.917C184.086 190.241 185.978 192.312 188.155 194.055C189.866 195.379 191.844 196.316 193.952 196.8C196.007 197.241 198.127 197.29 200.2 196.944C202.502 196.565 204.767 195.989 206.971 195.225C209.005 194.556 210.959 193.667 212.8 192.573C214.29 191.705 215.435 190.348 216.038 188.732C216.601 187.171 216.541 185.227 215.853 182.927C215.166 180.626 213.644 177.775 211.315 174.447C199.748 157.996 188.183 141.538 176.621 125.072C174.272 121.546 170.726 117.762 166.268 117.382ZM198.969 177.096C200.269 178.874 201.367 180.791 202.243 182.812C202.877 184.417 202.316 185.574 200.602 186.324C199.848 186.691 199 186.823 198.169 186.701C197.339 186.579 196.564 186.209 195.947 185.64C194.346 184.175 192.926 182.523 191.717 180.72L164.359 141.618C163.276 140.1 162.41 138.437 161.787 136.68C161.489 135.92 161.42 135.089 161.59 134.291C161.76 133.492 162.161 132.762 162.743 132.189C162.968 131.904 163.249 131.668 163.568 131.495C163.887 131.322 164.238 131.215 164.599 131.182C165.271 131.181 165.926 131.389 166.474 131.777C167.193 132.267 167.834 132.863 168.373 133.546C169.007 134.316 169.612 135.114 170.189 135.939L198.969 177.096Z" fill="white"/>
<path d="M183.604 112.96C185.851 116.374 188.098 119.792 190.346 123.216C192.594 126.639 194.815 130.057 197.009 133.471C199.489 137.331 201.952 141.2 204.397 145.079C208.053 150.867 211.712 156.66 215.27 162.5C217.169 165.485 218.841 168.609 220.271 171.845C221.094 173.933 221.261 175.321 220.783 176.034C220.082 176.885 219.135 177.498 218.071 177.79L225.274 188.085L228.059 187.256C231.698 186.183 234.147 184.84 235.354 183.153C236.561 181.465 236.594 178.865 235.374 175.432C233.611 170.503 230.797 165.939 228.05 161.517C223.347 153.94 218.344 146.361 213.487 138.822C211.334 135.474 209.356 132.422 207.539 129.69C205.722 126.958 203.97 124.307 202.223 121.675C200.477 119.044 198.733 116.371 196.937 113.601C195.259 111 193.371 108.144 191.303 105.052L187.541 107.684L190.889 104.428L193.417 101.981L248.102 180.143L259.87 176.047L193.051 80.5429L175.969 101.304C178.501 105.201 181.046 109.086 183.604 112.96Z" fill="white"/>
<path d="M218.036 56.4903C214.254 55.0707 209.154 57.5355 206.968 60.5384C204.023 64.5999 202.527 69.5318 202.717 74.5448C203.077 80.6915 206.171 86.7462 209.642 91.7642L253.69 154.721C256.223 158.15 258.733 161.626 261.876 164.541C263.993 166.608 266.472 168.269 269.189 169.441C271.386 170.363 273.768 170.763 276.146 170.61C278.515 170.411 280.85 169.915 283.097 169.135C285.125 168.485 287.032 167.505 288.742 166.234C289.481 165.651 290.089 164.919 290.527 164.086C290.965 163.253 291.223 162.337 291.284 161.397C291.501 159.331 290.941 156.649 289.595 153.43C287.663 149.135 285.276 145.058 282.475 141.272C265.629 117.261 248.779 93.248 231.924 69.2326C228.164 64.2192 224.041 58.743 218.036 56.4903ZM269.283 142.701C271.209 145.372 272.931 148.184 274.435 151.113C275.566 153.427 275.266 154.95 273.535 155.683C271.801 156.415 269.986 155.802 268.119 153.901C265.877 151.528 263.83 148.979 261.998 146.277L220.449 86.8909C218.833 84.618 217.434 82.1992 216.268 79.6658C215.213 77.3233 215.293 75.4783 216.517 74.1647C216.754 73.8621 217.072 73.6324 217.434 73.502C217.796 73.3715 218.187 73.3457 218.562 73.4273C219.457 73.6793 220.279 74.1374 220.964 74.765C221.936 75.62 222.819 76.5699 223.602 77.6004C224.526 78.7714 225.423 79.9824 226.293 81.2335L269.283 142.701Z" fill="white"/>
<path d="M232.209 29.679C229.196 33.908 227.853 39.1025 228.441 44.2621C229.292 51.3023 232.925 58.0596 237.02 63.7443L289.211 138.34C291.973 142.453 295.124 146.292 298.618 149.804C300.979 152.221 303.719 154.235 306.73 155.768C309.015 156.916 311.547 157.483 314.103 157.418C316.52 157.305 318.908 156.846 321.196 156.057C323.276 155.42 325.179 154.305 326.751 152.801C328.081 151.436 328.715 149.583 328.623 147.22C328.53 144.858 327.624 141.828 325.874 138.166C323.541 133.49 320.825 129.013 317.756 124.784L308.994 112.261L298.758 117.713L304.281 125.606C306.518 128.722 308.552 131.979 310.37 135.357C311.749 138.027 311.574 139.726 309.845 140.452C308.111 141.185 306.156 140.417 303.999 138.167C301.405 135.375 299.024 132.391 296.879 129.24L248.156 59.6015C246.314 57.0221 244.676 54.3034 243.255 51.4701C242.02 48.9382 242.033 46.9747 243.315 45.5971C244.597 44.2194 246.157 44.4674 248.009 46.3477C250.222 48.6802 252.24 51.1892 254.046 53.8499L265.842 70.7107L274.69 63.2751L259.259 41.219C255.044 35.4994 250.261 29.1925 243.734 26.2494C240.009 24.5293 234.52 26.4942 232.209 29.679Z" fill="white"/>
</g>
</g>
<defs>
<clipPath id="clip0_4012_1749">
<rect width="334.224" height="155.68" fill="white" transform="translate(0 191.599) rotate(-34.9782)"/>
</clipPath>
</defs>
</svg>
