<svg width="11" height="8" viewBox="0 0 11 8" fill="none" xmlns="http://www.w3.org/2000/svg">
<path d="M6.31322 5.13481C6.04407 5.31212 5.73144 5.40585 5.40912 5.40585C5.08681 5.40585 4.77418 5.31212 4.50503 5.13481L0.07203 2.21431C0.0474354 2.1981 0.0234747 2.18121 0 2.16384V6.94941C0 7.49809 0.450584 7.93353 0.99589 7.93353H9.82232C10.3776 7.93353 10.8182 7.48827 10.8182 6.94941V2.16382C10.7947 2.18123 10.7707 2.19817 10.746 2.21439L6.31322 5.13481Z" fill="white"/>
<path d="M0.423643 1.7063L4.85664 4.52769C5.02445 4.6345 5.21676 4.68789 5.40908 4.68789C5.60142 4.68789 5.79376 4.63448 5.96157 4.52769L10.3946 1.7063C10.6598 1.53757 10.8182 1.25518 10.8182 0.950395C10.8182 0.426333 10.3716 0 9.82266 0H0.99555C0.44661 2.0171e-05 0 0.426353 0 0.950899C0 1.25518 0.158385 1.53757 0.423643 1.7063Z" fill="white"/>
</svg>
