<svg width="8" height="11" viewBox="0 0 8 11" fill="none" xmlns="http://www.w3.org/2000/svg">
<path d="M3.66675 0C1.64494 0 0 1.64494 0 3.66675C0 4.27369 0.151747 4.87548 0.440224 5.40925L3.46623 10.8821C3.50651 10.955 3.58328 11.0002 3.66675 11.0002C3.75022 11.0002 3.82698 10.955 3.86727 10.8821L6.89439 5.40745C7.18175 4.87548 7.3335 4.27367 7.3335 3.66673C7.3335 1.64494 5.68855 0 3.66675 0ZM3.66675 5.50011C2.65584 5.50011 1.83338 4.67765 1.83338 3.66675C1.83338 2.65585 2.65584 1.83338 3.66675 1.83338C4.67765 1.83338 5.50011 2.65585 5.50011 3.66675C5.50011 4.67765 4.67765 5.50011 3.66675 5.50011Z" fill="white"/>
</svg>
