<svg width="43" height="26" viewBox="0 0 43 26" fill="none" xmlns="http://www.w3.org/2000/svg">
<path d="M15.4141 2.78329H26.7541V22.4708H15.4141V2.78329Z" fill="#F26522"/>
<path d="M16.1489 12.5749C16.1489 8.72077 17.9339 5.07494 21.0839 2.78327C15.4139 -1.48756 7.32892 -0.550063 2.81392 4.8666C-1.70108 10.2833 -0.651077 18.1999 5.01892 22.3666C9.74392 25.9083 16.3589 25.9083 21.0839 22.3666C17.9339 20.0749 16.1489 16.4291 16.1489 12.5749Z" fill="#E51B24"/>
<path d="M42.084 12.5749C42.084 19.4499 36.309 25.0749 29.064 25.0749C26.124 25.0749 23.289 24.1374 21.084 22.3666C26.754 18.0958 27.699 10.2833 23.289 4.76245C22.659 4.03328 21.924 3.30411 21.084 2.67911C26.754 -1.59172 34.839 -0.654219 39.354 4.76245C41.139 7.05411 42.084 9.76245 42.084 12.5749Z" fill="#F99F1C"/>
</svg>
