<svg width="30" height="30" viewBox="0 0 30 30" fill="none" xmlns="http://www.w3.org/2000/svg">
<rect width="30" height="30" rx="15" fill="url(#paint0_linear_2042_3448)"/>
<rect width="30" height="30" rx="15" fill="url(#paint1_radial_2042_3448)"/>
<path fill-rule="evenodd" clip-rule="evenodd" d="M15.1847 23.4329C13.4955 23.4329 12.7105 23.1853 11.3461 22.1946C10.483 23.3091 7.74985 24.1801 7.63065 22.6899C7.63065 21.5713 7.38405 20.626 7.10457 19.5941C6.77167 18.3227 6.39355 16.9069 6.39355 14.8554C6.39355 9.95566 10.3967 6.26953 15.1395 6.26953C19.8865 6.26953 23.606 10.1373 23.606 14.9008C23.622 19.5906 19.8542 23.4079 15.1847 23.4329ZM15.2546 10.5047C12.9448 10.385 11.1447 11.9907 10.746 14.5086C10.4172 16.5932 11.0008 19.1318 11.4981 19.2639C11.7365 19.3216 12.3365 18.8346 12.7105 18.4589C13.329 18.888 14.0492 19.1457 14.7984 19.2061C17.1917 19.3217 19.2367 17.4917 19.3974 15.0907C19.491 12.6845 17.6483 10.6465 15.2546 10.5088V10.5047Z" fill="white"/>
<defs>
<linearGradient id="paint0_linear_2042_3448" x1="3.53541" y1="22.8161" x2="30" y2="15" gradientUnits="userSpaceOnUse">
<stop stop-color="#44CCFF"/>
<stop offset="0.662" stop-color="#5533EE"/>
<stop offset="1" stop-color="#9933DD"/>
</linearGradient>
<radialGradient id="paint1_radial_2042_3448" cx="0" cy="0" r="1" gradientUnits="userSpaceOnUse" gradientTransform="translate(-0.713724 -13.1756) rotate(51.356) scale(36.4055 15)">
<stop stop-color="#0000FF"/>
<stop offset="1" stop-opacity="0"/>
</radialGradient>
</defs>
</svg>
