<svg width="30" height="30" viewBox="0 0 30 30" fill="none" xmlns="http://www.w3.org/2000/svg">
<rect width="30" height="30" rx="15" fill="#C1492E"/>
<path fill-rule="evenodd" clip-rule="evenodd" d="M15.1847 23.4346C13.4955 23.4346 12.7105 23.187 11.3461 22.1963C10.483 23.3108 7.74985 24.1818 7.63065 22.6916C7.63065 21.573 7.38405 20.6278 7.10457 19.5958C6.77167 18.3244 6.39355 16.9086 6.39355 14.8571C6.39355 9.95737 10.3967 6.27124 15.1395 6.27124C19.8865 6.27124 23.606 10.139 23.606 14.9025C23.622 19.5923 19.8542 23.4096 15.1847 23.4346ZM15.2546 10.5064C12.9448 10.3867 11.1447 11.9924 10.746 14.5103C10.4172 16.5949 11.0008 19.1335 11.4981 19.2656C11.7365 19.3234 12.3365 18.8363 12.7105 18.4607C13.329 18.8897 14.0492 19.1474 14.7984 19.2078C17.1917 19.3234 19.2367 17.4934 19.3974 15.0924C19.491 12.6862 17.6483 10.6482 15.2546 10.5105V10.5064Z" fill="white"/>
</svg>
