<svg width="29" height="32" viewBox="0 0 29 32" fill="none" xmlns="http://www.w3.org/2000/svg">
<path d="M16.4934 12.3954C15.1891 11.0956 14.1287 9.57225 13.3626 7.89783C12.8835 8.3276 9.17736 12.7577 8.66889 13.408C8.13793 14.0563 4.46743 18.8144 4.24381 19.231C3.87276 19.9088 3.86901 20.9207 4.25568 21.5385C4.91344 22.5478 5.77443 23.4087 6.78367 24.0665C7.40146 24.4525 8.41341 24.4494 9.09116 24.0784C9.50781 23.8547 14.2658 20.1842 14.9142 19.6533C15.5083 19.1892 19.2556 16.0571 20.2276 15.1557C18.8508 14.4292 17.5918 13.4985 16.4934 12.3954ZM14.2521 15.7467L12.0777 17.9211C11.9675 18.0316 11.8366 18.1194 11.6925 18.1793C11.5484 18.2392 11.3939 18.27 11.2378 18.2701C11.0817 18.2702 10.9272 18.2396 10.783 18.1799C10.6388 18.1201 10.5078 18.0326 10.3975 17.9222C10.2872 17.8118 10.1997 17.6807 10.1401 17.5365C10.0805 17.3923 10.05 17.2377 10.0502 17.0816C10.0504 16.9256 10.0814 16.7711 10.1414 16.627C10.2014 16.4829 10.2892 16.3521 10.3998 16.242L12.5743 14.0676C12.7988 13.8551 13.0973 13.7385 13.4065 13.7427C13.7156 13.747 14.0108 13.8716 14.2294 14.0902C14.448 14.3088 14.5727 14.6041 14.577 14.9132C14.5812 15.2224 14.4646 15.5209 14.2521 15.7454V15.7467ZM26.3043 11.7489C27.0867 10.9667 27.669 10.0073 28.0019 8.95223C28.3347 7.89711 28.4083 6.7773 28.2163 5.68771C28.0243 4.59812 27.5725 3.57088 26.899 2.69306C26.2256 1.81525 25.3505 1.11273 24.3478 0.645059C23.3452 0.177389 22.2445 -0.0416434 21.1392 0.00652654C20.0339 0.0546965 18.9565 0.368649 17.9983 0.921772C17.0401 1.4749 16.2294 2.25088 15.6349 3.18396C15.0404 4.11703 14.6796 5.17969 14.5832 6.28184C15.8135 9.5421 18.2332 12.2153 21.3551 13.7634C22.2729 13.7759 23.1838 13.604 24.0339 13.258C24.8841 12.9119 25.6561 12.3987 26.3043 11.7489ZM12.0083 29.9577L11.25 29.2C10.3908 28.3426 9.22651 27.861 8.01269 27.861C6.79886 27.861 5.63461 28.3426 4.77539 29.2C4.51033 29.4568 4.15491 29.5991 3.78583 29.5962C3.41676 29.5933 3.06362 29.4454 2.80264 29.1844C2.54165 28.9234 2.39375 28.5703 2.39084 28.2012C2.38793 27.8321 2.53026 27.4767 2.7871 27.2117L3.07507 26.9237C3.48485 27.1792 4.15511 27.1773 4.60486 26.9312C4.75915 26.8481 5.81607 26.0492 6.79117 25.2996C6.5796 25.2301 6.37704 25.1358 6.18775 25.0185L6.17588 25.011C5.60392 24.6418 5.07343 24.2121 4.59362 23.7292V23.7261C4.11059 23.2466 3.68082 22.7163 3.31182 22.1444L3.30432 22.1326C3.18737 21.9429 3.09303 21.7401 3.02322 21.5285C2.27363 22.5049 1.47469 23.5618 1.39161 23.7148C1.1455 24.1646 1.14175 24.8348 1.39911 25.2446L1.10677 25.5338C0.398117 26.2425 0 27.2036 0 28.2058C0 29.208 0.398117 30.1691 1.10677 30.8778C1.81542 31.5864 2.77656 31.9846 3.77875 31.9846C4.78093 31.9846 5.74207 31.5864 6.45073 30.8778C6.8646 30.4647 7.42545 30.2327 8.01019 30.2327C8.59493 30.2327 9.15578 30.4647 9.56965 30.8778L10.328 31.6361C10.4374 31.7498 10.5684 31.8406 10.7133 31.903C10.8582 31.9655 11.0141 31.9985 11.1719 32C11.3297 32.0015 11.4862 31.9715 11.6323 31.9118C11.7783 31.8521 11.911 31.7638 12.0226 31.6522C12.1341 31.5406 12.2223 31.4079 12.282 31.2618C12.3416 31.1157 12.3715 30.9592 12.37 30.8014C12.3684 30.6436 12.3354 30.4878 12.2729 30.3429C12.2104 30.198 12.1196 30.067 12.0058 29.9577H12.0083Z" fill="white"/>
</svg>
