<svg width="89" height="25" viewBox="0 0 89 25" fill="none" xmlns="http://www.w3.org/2000/svg">
<g clip-path="url(#clip0_2018_2595)">
<path d="M19.4669 3.28125L16.1623 14.7656H15.5969L12.2923 3.28125C11.727 1.33789 9.95278 0 7.92518 0H0V25H7.93493V10.2246H8.50035L13.0429 25H18.7163L23.2492 10.2246H23.8146V25H31.7495V0H23.8243C21.8065 0 20.0323 1.33789 19.4669 3.28125ZM63.4014 25H71.3851V17.6074H79.4178C83.6191 17.6074 87.1969 15.2246 88.5808 11.875H63.4014V25ZM49.257 2.63672L43.6715 14.7754H43.106V0H35.1711V25H41.907C43.6812 25 45.2894 23.9648 46.0304 22.3633L51.616 10.2344H52.1816V25H60.1164V0H53.3804C51.6062 0 49.998 1.03516 49.257 2.63672Z" fill="#006848"/>
<path d="M80.2074 0C82.4982 0 84.5745 0.878906 86.144 2.32422C87.8986 3.92578 89.0002 6.23049 89.0002 8.79884C89.0002 9.32616 88.9417 9.84375 88.8539 10.3516H74.1148C69.1238 10.3516 64.8931 7.07031 63.4699 2.53906C63.4504 2.49023 63.4407 2.43164 63.4212 2.37304C63.3822 2.23633 63.3529 2.08984 63.3139 1.95312C63.1677 1.31836 63.0702 0.673826 63.0312 0H80.2074Z" fill="url(#paint0_linear_2018_2595)"/>
</g>
<defs>
<linearGradient id="paint0_linear_2018_2595" x1="89.0002" y1="32.3746" x2="63.1902" y2="32.3746" gradientUnits="userSpaceOnUse">
<stop stop-color="#1E5CD8"/>
<stop offset="1" stop-color="#02AFFF"/>
</linearGradient>
<clipPath id="clip0_2018_2595">
<rect width="89" height="25" fill="white"/>
</clipPath>
</defs>
</svg>
