<svg width="164" height="35" viewBox="0 0 164 35" fill="none" xmlns="http://www.w3.org/2000/svg">
<path fill-rule="evenodd" clip-rule="evenodd" d="M58.859 17.4984C58.859 11.773 61.813 7.19287 67.14 7.19287C72.468 7.19287 75.421 11.773 75.421 17.4984C75.421 23.2248 72.467 27.804 67.141 27.804C61.813 27.804 58.859 23.2248 58.859 17.4984ZM67.14 24.9457C69.212 24.9457 70.094 21.5098 70.094 17.5062C70.094 13.5006 69.205 10.0668 67.14 10.0668C65.075 10.0668 64.186 13.5016 64.186 17.5062C64.179 21.5098 65.068 24.9457 67.14 24.9457ZM3.843 7.48454V12.9251H4.137L7.98 7.48454H13.3L6.202 13.7787L6.496 14.0636L19.51 7.47773V12.0579L7.973 16.0625V16.3463L19.51 15.3469V19.6431L7.973 18.6437V18.9286L19.51 22.9322V27.5133L6.496 20.9265L6.202 21.2113L13.3 27.5055H7.98L4.137 22.065H3.843V27.5055H0V7.47093H3.843V7.48454ZM23.073 7.48454H28.1L27.806 19.5041H28.1L34.015 7.48454H38.453V27.5201H33.427L33.721 15.4995H33.427L27.51 27.5211H23.072L23.073 7.48454ZM47.028 7.48454H42.002V27.5201H47.028V18.6437H51.165V27.5201H56.191V7.48454H51.165V15.2156H47.028V7.48454ZM92.278 7.48454H78.088V27.5201H83.115V10.9194H87.252V27.5201H92.278V7.48454ZM94.938 17.4984C94.938 11.773 97.892 7.19287 103.22 7.19287C108.54 7.19287 111.501 11.773 111.501 17.4984C111.501 23.2248 108.547 27.804 103.22 27.804C97.9 27.804 94.938 23.2248 94.938 17.4984ZM103.22 24.9457C105.292 24.9457 106.174 21.5098 106.174 17.5062C106.174 13.5006 105.285 10.0668 103.22 10.0668C101.148 10.0668 100.266 13.5016 100.266 17.5062C100.266 21.5098 101.148 24.9457 103.22 24.9457ZM119.187 7.48454H114.161V27.5201H118.599L124.515 15.4995H124.809L124.515 27.5201H129.541V7.48454H125.103L119.187 19.5041H118.893L119.187 7.48454ZM142.856 20.6494L147.588 21.2182C146.699 25.2237 144.634 27.804 140.224 27.804C134.904 27.804 132.208 23.2248 132.208 17.4984C132.208 11.773 134.897 7.19287 140.224 7.19287C144.541 7.19287 146.699 9.76829 147.588 13.488L142.856 14.6323C142.562 12.6266 141.701 10.0531 140.224 10.0531C138.453 10.0531 137.535 13.488 137.535 17.4916C137.535 21.468 138.453 24.9311 140.224 24.9311C141.673 24.9457 142.554 22.6551 142.856 20.6494ZM154.686 7.48551H149.954V27.5201H154.686V18.6437H154.98L158.529 27.5201H164L158.823 17.2145L163.849 7.48454H158.823L154.98 16.3609H154.686V7.48454V7.48551Z" fill="white"/>
</svg>
