<svg width="22" height="26" viewBox="0 0 22 26" fill="none" xmlns="http://www.w3.org/2000/svg">
<path opacity="0.68" d="M18.9194 6.4C19.2194 4.5 18.9194 3.1 17.9194 1.9C16.7194 0.6 14.7194 0 12.0194 0H4.31938C3.81938 0 3.31938 0.4 3.21938 0.9L0.0193815 21.5C-0.0806185 21.9 0.219381 22.2 0.619381 22.3H5.51938L5.21938 24.4C5.21938 24.7 5.41938 25 5.71938 25.1H9.81938C10.3194 25.1 10.7194 24.8 10.8194 24.3V24.1L11.6194 19.3V19C11.7194 18.5 12.1194 18.2 12.6194 18.2H13.0194C16.9194 18.2 19.9194 16.6 20.8194 12C21.2194 9.9 21.0194 8.3 20.0194 7.2C19.7194 6.9 19.3194 6.6 18.9194 6.4Z" fill="#0070BA"/>
<path opacity="0.7" d="M18.9194 6.4C19.2194 4.5 18.9194 3.1 17.9194 1.9C16.7194 0.6 14.7194 0 12.0194 0H4.31938C3.81938 0 3.31938 0.4 3.21938 0.9L0.0193815 21.5C-0.0806185 21.9 0.219381 22.2 0.619381 22.3H5.51938L6.71938 14.7V14.9C6.81938 14.4 7.21938 14 7.81938 14H10.1194C14.5194 14 18.0194 12.2 19.0194 6.9C18.9194 6.7 18.9194 6.5 18.9194 6.4Z" fill="black"/>
<path d="M7.91938 6.4C8.01938 5.9 8.41938 5.6 8.91938 5.6H14.9194C15.6194 5.6 16.2194 5.6 16.9194 5.7C17.1194 5.7 17.2194 5.8 17.4194 5.8C17.6194 5.8 17.7194 5.9 17.9194 5.9C18.0194 5.9 18.1194 5.9 18.1194 6C18.4194 6.1 18.7194 6.2 18.9194 6.4C19.2194 4.5 18.9194 3.1 17.9194 1.9C16.7194 0.6 14.7194 0 12.0194 0H4.31938C3.81938 0 3.31938 0.4 3.21938 0.9L0.0193815 21.5C-0.0806185 21.9 0.219381 22.2 0.619381 22.3H5.51938L6.71938 14.7L7.91938 6.4Z" fill="#0070BA"/>
</svg>
