<svg width="10" height="9" viewBox="0 0 10 9" fill="none" xmlns="http://www.w3.org/2000/svg">
<path d="M9.1927 7.20476C9.00203 7.71885 8.24527 8.14521 7.64165 8.26972C7.22869 8.35367 6.68928 8.42065 4.87346 7.70187C2.55084 6.78312 1.05511 4.52962 0.938534 4.38341C0.826898 4.23721 0 3.19017 0 2.10728C0 1.0244 0.575964 0.497108 0.808128 0.270721C0.998798 0.0848952 1.31395 0 1.61626 0C1.71406 0 1.80199 0.00471645 1.88102 0.00848956C2.11318 0.0179223 2.22976 0.0311285 2.38289 0.381085C2.57356 0.819709 3.03789 1.90259 3.09321 2.0139C3.14952 2.12521 3.20584 2.27613 3.1268 2.42234C3.05271 2.57326 2.9875 2.64024 2.87093 2.76852C2.75435 2.89681 2.6437 2.99491 2.52713 3.13263C2.42043 3.25242 2.2999 3.38071 2.43426 3.60238C2.56862 3.81933 3.03295 4.54283 3.7166 5.12389C4.59882 5.87379 5.31408 6.11339 5.56995 6.21526C5.76063 6.29072 5.98785 6.2728 6.12715 6.13131C6.30399 5.94926 6.52232 5.64741 6.7446 5.35028C6.90267 5.13709 7.10224 5.11068 7.31168 5.18614C7.52507 5.25689 8.65428 5.78984 8.88644 5.90021C9.1186 6.01151 9.27173 6.06434 9.32804 6.15772C9.38337 6.25111 9.38337 6.68973 9.1927 7.20476Z" fill="#FAFAFA"/>
</svg>
