<svg width="18" height="18" viewBox="0 0 18 18" fill="none" xmlns="http://www.w3.org/2000/svg">
<g clip-path="url(#clip0_2335_10426)">
<path d="M14.0401 0.957031H8.51352C8.16373 0.957031 7.8278 1.09629 7.58031 1.34378L0.38658 8.53619C-0.12886 9.05163 -0.12886 9.88716 0.38658 10.4033L5.91321 15.9299C6.42865 16.4453 7.26418 16.4453 7.77962 15.9299L14.9734 8.73748C15.2208 8.48933 15.3601 8.1534 15.3601 7.80296V2.27698C15.3601 1.54771 14.7694 0.957031 14.0401 0.957031ZM11.7302 5.57686C11.1838 5.57686 10.7403 5.13335 10.7403 4.5869C10.7403 4.04044 11.1838 3.59693 11.7302 3.59693C12.2767 3.59693 12.7202 4.04044 12.7202 4.5869C12.7202 5.13335 12.2767 5.57686 11.7302 5.57686Z" fill="#C1492E"/>
<path d="M16.6803 2.27734L16.6797 8.42105C16.6797 8.7253 16.5589 9.01767 16.3431 9.23282L9.0332 16.5427L9.1454 16.6549C9.66084 17.1703 10.4964 17.1703 11.0118 16.6549L17.6129 10.0552C17.861 9.80766 18.0003 9.47173 18.0003 9.12195V3.59729C18.0003 2.86802 17.4096 2.27734 16.6803 2.27734Z" fill="#C1492E"/>
</g>
<defs>
<clipPath id="clip0_2335_10426">
<rect width="18" height="18" fill="white"/>
</clipPath>
</defs>
</svg>
