<svg width="25" height="30" viewBox="0 0 25 30" fill="none" xmlns="http://www.w3.org/2000/svg">
<path d="M12.3113 1C14.0278 1.00009 15.4901 1.60595 16.7058 2.82227V2.82324C17.9218 4.04086 18.5281 5.50576 18.5281 7.22559C18.528 8.94585 17.9222 10.41 16.7068 11.627V11.6279C15.4913 12.845 14.0284 13.4511 12.3113 13.4512C10.5947 13.4512 9.13172 12.8447 7.91577 11.6279C6.69994 10.4109 6.09358 8.94596 6.09351 7.22559C6.09351 5.50556 6.70002 4.0404 7.91577 2.82324C9.13138 1.60632 10.5939 1 12.3113 1Z" stroke="#C1492E" stroke-width="2"/>
<path d="M18.4092 15.491C19.0746 15.491 19.6761 15.6033 20.2041 15.8123V15.8132C20.7553 16.0319 21.2127 16.3235 21.5762 16.6716H21.5771C21.9449 17.0237 22.2838 17.463 22.5791 17.9832C22.8717 18.4985 23.1065 19.0334 23.2783 19.571C23.4077 19.9755 23.5224 20.4133 23.6201 20.8767L23.7119 21.3494C23.8271 21.9931 23.9038 22.5945 23.9414 23.1375V23.1384C23.9797 23.6852 23.9998 24.2581 24 24.8406L23.9951 25.0876C23.9465 26.3028 23.5362 27.2147 22.832 27.8855C22.0798 28.602 21.0605 28.9998 19.7139 28.9998H5.28613C3.9396 28.9998 2.91996 28.6017 2.16797 27.8855C1.41661 27.1691 1.00003 26.1794 1 24.8406C1 24.261 1.01952 23.6883 1.05762 23.1384V23.1375C1.09522 22.5932 1.17201 21.9919 1.28711 21.3494C1.40183 20.7095 1.5484 20.1115 1.7207 19.572C1.89279 19.0338 2.12834 18.4988 2.4209 17.9832C2.71545 17.4639 3.05388 17.0244 3.42188 16.6716C3.78577 16.3231 4.24345 16.0315 4.79395 15.8132C5.32196 15.6038 5.924 15.491 6.58984 15.491C6.5949 15.491 6.59889 15.4913 6.60645 15.4929C6.61631 15.4951 6.64062 15.5022 6.68555 15.5212C6.73604 15.5427 6.80071 15.5748 6.88672 15.6238L7.21582 15.8269C7.57569 16.0616 7.98979 16.3288 8.44629 16.6208H8.44727C8.9368 16.9335 9.55566 17.1995 10.2578 17.4265C10.9935 17.6645 11.7473 17.7878 12.499 17.7878C13.2509 17.7878 14.0058 17.6648 14.7412 17.4265L14.7402 17.4255C15.4432 17.1982 16.062 16.9333 16.5518 16.6208L16.5527 16.6199L17.7822 15.8269C18.0535 15.6501 18.2114 15.5642 18.3125 15.5212C18.3581 15.5019 18.383 15.495 18.3926 15.4929C18.4002 15.4912 18.404 15.491 18.4092 15.491Z" stroke="#C1492E" stroke-width="2"/>
</svg>
