<svg width="17" height="20" viewBox="0 0 17 20" fill="none" xmlns="http://www.w3.org/2000/svg">
<path d="M8.37183 1C9.46056 1.00009 10.376 1.37404 11.1414 2.125C11.9058 2.87564 12.2789 3.76505 12.2791 4.81641C12.2791 5.86855 11.9058 6.75837 11.1414 7.50879C10.3763 8.25986 9.46076 8.6337 8.37183 8.63379C7.28318 8.63379 6.3678 8.25991 5.60229 7.50879C4.83759 6.75831 4.46362 5.86859 4.46362 4.81641C4.46373 3.76472 4.83774 2.87543 5.60229 2.125C6.36751 1.37396 7.28264 1 8.37183 1Z" stroke="#C1492E" stroke-width="2"/>
<path d="M12.5596 10.6617C12.9612 10.6661 13.318 10.7342 13.627 10.8541C13.8833 10.9538 14.1026 11.0765 14.2861 11.2164L14.458 11.3619C14.6825 11.5726 14.893 11.8395 15.0791 12.1607C15.2668 12.4847 15.4172 12.82 15.5264 13.1548C15.6104 13.4124 15.6858 13.6924 15.75 13.9908L15.8096 14.2955C15.8668 14.6094 15.9104 14.906 15.9385 15.1812L15.9609 15.4498C15.9864 15.8056 15.9998 16.1796 16 16.5601C16 17.3715 15.7469 17.9367 15.3125 18.3423C14.871 18.7547 14.2588 18.9996 13.4053 18.9996H3.59473C2.84793 18.9996 2.28576 18.8119 1.86133 18.4888L1.6875 18.3423C1.25291 17.936 1 17.3707 1 16.5601C1 16.3709 1.00338 16.183 1.00977 15.9976L1.03809 15.4498C1.06261 15.1016 1.1131 14.7133 1.18945 14.2955C1.26503 13.8822 1.36169 13.4984 1.47363 13.1548L1.47266 13.1539C1.58192 12.819 1.73245 12.4846 1.91992 12.1607C2.10537 11.8402 2.31616 11.5732 2.54102 11.3619C2.75508 11.1609 3.03083 10.9867 3.37207 10.8541C3.68069 10.7341 4.03708 10.6662 4.43848 10.6617C4.48493 10.6823 4.57336 10.7294 4.73926 10.8355C4.98495 10.9926 5.26807 11.1707 5.5791 11.3658V11.3668C5.94266 11.5944 6.39053 11.7813 6.88184 11.9371C7.41104 12.105 7.95577 12.192 8.5 12.192C9.04398 12.1919 9.58834 12.105 10.1172 11.9371L10.1162 11.9361C10.6081 11.7801 11.0563 11.5942 11.4199 11.3668L11.4209 11.3658C11.7348 11.1689 12.0166 10.9896 12.2588 10.8345C12.424 10.729 12.5128 10.6826 12.5596 10.6617Z" stroke="#C1492E" stroke-width="2"/>
</svg>
