<svg width="21" height="25" viewBox="0 0 21 25" fill="none" xmlns="http://www.w3.org/2000/svg">
<path d="M10.0361 1.4248C11.3411 1.42491 12.4381 1.87241 13.3555 2.77246C14.2723 3.67255 14.7207 4.73919 14.7207 6C14.7207 7.26136 14.272 8.32793 13.3555 9.22754C12.4384 10.1277 11.3414 10.5761 10.0361 10.5762C8.73118 10.5762 7.63345 10.1278 6.71582 9.22754C5.79911 8.32791 5.35159 7.26129 5.35156 6C5.35156 4.73904 5.79917 3.67217 6.71582 2.77246C7.63311 1.8722 8.73051 1.4248 10.0361 1.4248Z" stroke="#C1492E" stroke-width="2.39753"/>
<path d="M15.0576 13.0066C15.5385 13.0121 15.966 13.0926 16.3359 13.2361V13.2371C16.7457 13.3965 17.0758 13.6058 17.332 13.8464C17.6011 14.099 17.8541 14.4184 18.0771 14.8035C18.2458 15.0948 18.3886 15.3937 18.5049 15.6941L18.6123 15.9949C18.713 16.3035 18.803 16.6392 18.8799 16.9968L18.9521 17.3621C19.0437 17.8641 19.1044 18.3295 19.1338 18.7458V18.7468C19.149 18.9601 19.1612 19.1788 19.1689 19.4011L19.1807 20.0779C19.1805 21.0502 18.877 21.7274 18.3564 22.2136C17.8272 22.708 17.0936 23.0017 16.0703 23.0017H4.30859C3.2854 23.0017 2.55149 22.7078 2.02246 22.2136H2.02344C1.50242 21.7266 1.1993 21.0495 1.19922 20.0779C1.19922 19.6239 1.21379 19.1752 1.24414 18.7458H1.24512C1.27452 18.3285 1.33423 17.8631 1.42578 17.3621C1.49375 16.9904 1.57567 16.6386 1.66895 16.3123L1.76562 15.9949C1.89663 15.5932 2.07688 15.1921 2.30176 14.8035V14.8025C2.52388 14.4187 2.77662 14.0996 3.0459 13.8464C3.23837 13.6657 3.47259 13.503 3.75 13.366L4.04199 13.2371C4.41168 13.0933 4.83857 13.0122 5.31934 13.0066C5.37474 13.0311 5.48152 13.0866 5.68164 13.2146C5.9761 13.4029 6.31475 13.6166 6.6875 13.8503L6.68848 13.8513C7.01522 14.0559 7.39872 14.2329 7.81836 14.3875L8.25 14.5349C8.88419 14.7361 9.53628 14.8415 10.1885 14.8416C10.7593 14.8416 11.3309 14.7612 11.8896 14.6062L12.1279 14.5349C12.7174 14.348 13.2536 14.1238 13.6895 13.8513L13.6914 13.8503C14.0677 13.6144 14.406 13.4004 14.6963 13.2146L14.6953 13.2136C14.8949 13.0861 15.0019 13.0313 15.0576 13.0066Z" stroke="#C1492E" stroke-width="2.39753"/>
</svg>
