<svg width="25" height="30" viewBox="0 0 25 30" fill="none" xmlns="http://www.w3.org/2000/svg">
<path d="M12.3111 14.451C14.2941 14.451 16.0113 13.739 17.4143 12.3341C18.8173 10.9295 19.5285 9.21081 19.5285 7.22528C19.5285 5.24043 18.8173 3.52154 17.4141 2.11645C16.0108 0.712045 14.2939 0 12.3111 0C10.3279 0 8.61123 0.712045 7.20821 2.11668C5.8052 3.52132 5.09375 5.2402 5.09375 7.22528C5.09375 9.21081 5.8052 10.9297 7.20844 12.3343C8.61168 13.7387 10.3286 14.451 12.3111 14.451Z" fill="#C1492E"/>
<path d="M24.9394 23.0683C24.899 22.4837 24.8171 21.8461 24.6966 21.1727C24.575 20.4943 24.4184 19.853 24.2309 19.2668C24.0373 18.661 23.7739 18.0627 23.4484 17.4894C23.1105 16.8943 22.7136 16.3761 22.2683 15.9497C21.8026 15.5036 21.2324 15.1449 20.5731 14.8833C19.9161 14.6231 19.1879 14.4913 18.409 14.4913C18.1031 14.4913 17.8073 14.6169 17.236 14.9893C16.8844 15.2189 16.4731 15.4844 16.014 15.778C15.6215 16.0284 15.0898 16.263 14.4329 16.4754C13.7921 16.683 13.1415 16.7883 12.4993 16.7883C11.8571 16.7883 11.2067 16.683 10.5652 16.4754C9.9091 16.2632 9.37734 16.0286 8.98527 15.7782C8.53055 15.4873 8.11904 15.2218 7.76218 14.9891C7.19155 14.6167 6.8955 14.491 6.58961 14.491C5.81049 14.491 5.08258 14.6231 4.42576 14.8836C3.76689 15.1447 3.1965 15.5034 2.73035 15.9499C2.28524 16.3765 1.88813 16.8945 1.5507 17.4894C1.22538 18.0627 0.962013 18.6608 0.768147 19.2671C0.580912 19.8532 0.42431 20.4943 0.302687 21.1727C0.182206 21.8452 0.100362 22.4831 0.0598972 23.069C0.0201181 23.643 0 24.2388 0 24.8405C0 26.4065 0.497238 27.6743 1.47777 28.6093C2.44618 29.5319 3.72757 29.9999 5.28581 29.9999H19.7142C21.2724 29.9999 22.5534 29.5321 23.522 28.6093C24.5028 27.675 25 26.407 25 24.8403C24.9998 24.2358 24.9794 23.6396 24.9394 23.0683Z" fill="#C1492E"/>
</svg>
