<svg width="25" height="25" viewBox="0 0 25 25" fill="none" xmlns="http://www.w3.org/2000/svg">
<path d="M24.881 24.5238C25.119 24.7619 24.7619 25.119 24.5238 24.881C21.9048 22.619 19.6429 22.0238 17.5 21.9048C16.3095 21.9048 15.2381 22.0238 13.9286 22.0238C13.6905 22.0238 13.4524 22.0238 13.2143 22.1429H12.8571C12.381 22.1429 11.9048 22.2619 11.5476 22.2619C9.52381 22.2619 7.5 21.7857 5.71429 20.8333C3.92857 19.881 2.5 18.4524 1.54762 16.7857C0.595238 15 0 13.0952 0 11.1905C0 9.16667 0.595238 7.2619 1.42857 5.59524C3.57143 2.14286 7.26191 0 11.4286 0C13.4524 0 15.4762 0.476191 17.381 1.42857C19.2857 2.38095 20.5952 3.80952 21.5476 5.47619C22.5 7.14286 23.0952 9.16667 23.0952 11.0714C23.0952 11.7857 22.9762 12.619 22.8571 13.3333C22.8571 13.4524 22.8571 13.5714 22.7381 13.6905C22.7381 13.8095 22.619 13.9286 22.619 14.0476C22.2619 15 21.7857 15.8333 21.3095 16.7857C21.1905 16.9048 21.1905 16.7857 21.1905 16.7857C20.9524 15.119 20.119 13.8095 18.8095 12.9762H18.6905L17.9762 12.619L16.9048 12.2619C16.6667 12.1429 16.0714 12.2619 16.3095 12.0238C16.4286 11.9048 17.5 11.9048 18.8095 12.0238H18.9286V11.1905C18.9286 9.04762 18.2143 7.38095 16.7857 5.95238C15.3571 4.52381 13.4524 3.80952 11.3095 3.80952C9.16667 3.80952 7.61905 4.40476 6.19048 5.95238C4.7619 7.38095 3.92857 9.04762 3.92857 11.1905C3.92857 13.2143 4.64286 15 6.07143 16.4286C7.5 17.8571 9.28571 18.5714 11.3095 18.5714H11.6667V18.4524C11.5476 17.0238 11.5476 15.8333 11.7857 16.3095C11.9048 16.4286 12.0238 16.6667 12.1429 16.7857C12.5 17.2619 12.9762 17.8571 13.4524 18.2143H13.5714C15 19.6429 16.5476 20 17.9762 20.3571H18.0952C18.3333 20.4762 18.5714 20.4762 18.9286 20.5952C20.7143 21.0714 22.619 21.7857 24.881 24.5238ZM19.881 15.7143C19.6429 15.5952 19.5238 15.7143 19.4048 15.8333C19.2857 16.0714 19.4048 16.5476 19.6429 16.9048C19.881 17.2619 20.119 17.5 20.3571 17.5C20.4762 17.5 20.4762 17.5 20.4762 17.381C20.5952 17.2619 20.5952 17.0238 20.5952 16.7857C20.4762 16.5476 20.3571 15.9524 19.881 15.7143ZM17.2619 17.619C17.0238 17.619 16.7857 17.7381 16.6667 17.8571C16.3095 18.2143 16.5476 18.8095 17.0238 19.2857C17.2619 19.4048 17.5 19.5238 17.8571 19.5238C18.0952 19.5238 18.4524 19.4048 18.5714 19.1667C18.8095 18.8095 18.6905 18.3333 18.2143 17.8571C17.9762 17.7381 17.619 17.619 17.2619 17.619Z" fill="#FF8C00"/>
</svg>
