<svg width="19" height="18" viewBox="0 0 19 18" fill="none" xmlns="http://www.w3.org/2000/svg">
<path d="M15.0005 6.47919L13.7576 6.98124C13.5976 7.04612 13.4294 7.07888 13.2581 7.07888C12.8908 7.07888 12.5356 6.92392 12.2842 6.65368C12.0341 6.38533 11.905 6.0206 11.9308 5.65335L12.0247 4.31665L11.1623 3.29113C10.9708 3.06309 10.8751 2.78403 10.8618 2.49805H2.68979C1.20946 2.49805 0 3.70751 0 5.19414V12.6903C0 14.1769 1.20946 15.3801 2.68979 15.3801H4.73705L4.69296 16.6336C4.68036 17.1439 4.95123 17.61 5.40478 17.8494C5.60005 17.9502 5.80793 18.0006 6.0221 18.0006C6.29927 18.0006 6.57644 17.9061 6.80951 17.7297L9.93395 15.3801H13.5371C15.0175 15.3801 16.2269 14.1769 16.2269 12.6903V6.97494L15.0005 6.47919ZM8.42654 10.9391H5.12005C4.80697 10.9391 4.55311 10.6852 4.55311 10.3721C4.55311 10.0591 4.80697 9.80521 5.12005 9.80521H8.42654C8.73961 9.80521 8.99347 10.0591 8.99347 10.3721C8.99347 10.6852 8.73961 10.9391 8.42654 10.9391ZM11.3576 8.07543H5.12131C4.80823 8.07543 4.55437 7.82156 4.55437 7.50849C4.55437 7.19542 4.80823 6.94156 5.12131 6.94156H11.3576C11.6707 6.94156 11.9245 7.19542 11.9245 7.50849C11.9245 7.82156 11.6707 8.07543 11.3576 8.07543Z" fill="#C1492E"/>
<path d="M15.3281 0.181892L16.2409 1.64269L17.9121 2.05908C18.1892 2.12837 18.2982 2.46349 18.1149 2.6827L17.0075 4.00177L17.1278 5.71958C17.148 6.00431 16.8626 6.21219 16.5974 6.1051L15.0005 5.45942L13.4037 6.1051C13.1391 6.21219 12.8531 6.00494 12.8733 5.71958L12.9936 4.00177L11.8862 2.6827C11.7022 2.46412 11.8119 2.12837 12.089 2.05908L13.7602 1.64269L14.673 0.181892C14.8235 -0.0606305 15.1769 -0.0606305 15.3281 0.181892Z" fill="#C1492E"/>
</svg>
