<svg width="20" height="16" viewBox="0 0 20 16" fill="none" xmlns="http://www.w3.org/2000/svg">
<path d="M10.9993 5.27415C10.0545 4.15455 8.74549 3.40344 7.3021 3.15262C5.85871 2.90179 4.37309 3.16727 3.10589 3.90246C1.8387 4.63766 0.870883 5.79562 0.372245 7.17318C-0.126394 8.55073 -0.124001 10.0599 0.379003 11.4358C0.882008 12.8118 1.85349 13.9667 3.12301 14.6979C4.39253 15.429 5.87898 15.6898 7.32157 15.4344C8.76416 15.179 10.0707 14.4238 11.0121 13.3012C11.9534 12.1786 12.4693 10.7603 12.4693 9.29532C12.4674 7.82379 11.9469 6.40002 10.9993 5.27415ZM9.1528 12.9043C8.24464 13.7253 7.07074 14.1911 5.84673 14.2161C4.62271 14.2412 3.43076 13.8237 2.48981 13.0405C1.67701 12.0657 1.25812 10.8221 1.31546 9.55421C1.37279 8.28629 1.9022 7.08564 2.79967 6.18817C3.69714 5.2907 4.89779 4.76129 6.16571 4.70396C7.43363 4.64662 8.67715 5.06551 9.65196 5.87831C9.69544 5.9304 9.73768 5.9829 9.7787 6.03663C10.5563 7.05062 10.9237 8.3202 10.8077 9.59276C10.6917 10.8653 10.1009 12.0476 9.1528 12.9043Z" fill="#F3B73F"/>
<path d="M11.4849 9.78615C11.4849 10.8317 11.1628 11.8518 10.5622 12.7076C9.96168 13.5635 9.11196 14.2134 8.12876 14.569C7.14556 14.9245 6.07666 14.9684 5.06762 14.6947C4.05858 14.4209 3.15843 13.8428 2.48975 13.0391C3.45135 13.8394 4.67417 14.2571 5.92441 14.2125C7.17464 14.1678 8.36455 13.6639 9.26663 12.7971C10.1687 11.9303 10.7196 10.7614 10.8141 9.51399C10.9086 8.26653 10.5399 7.02802 9.77863 6.03527C9.73762 5.98154 9.69537 5.92904 9.65189 5.87695C9.70439 5.92084 9.75607 5.96568 9.80693 6.01148C10.3359 6.48766 10.7586 7.06985 11.0477 7.72019C11.3368 8.37053 11.4858 9.07445 11.4849 9.78615Z" fill="#E0802B"/>
<path d="M9.77875 6.03494C10.146 5.72229 10.5573 5.46538 10.9994 5.27246C10.5362 4.72387 9.98204 4.25908 9.36121 3.89844C8.88655 4.20185 8.4537 4.56616 8.07373 4.98207C8.64924 5.18312 9.18386 5.48614 9.65201 5.87662C9.69549 5.92871 9.73773 5.98121 9.77875 6.03494ZM9.15285 12.9026C8.835 13.1905 8.48191 13.4369 8.10203 13.636C8.4751 14.0392 8.89827 14.3931 9.36121 14.6888C9.81152 14.4273 10.2274 14.1106 10.5991 13.7459C10.0793 13.5539 9.59578 13.2754 9.16885 12.9223L9.15285 12.9026Z" fill="#E0802B"/>
<path d="M9.80707 6.01148C9.75621 5.96555 9.70453 5.9207 9.65203 5.87695C9.69551 5.92904 9.73775 5.98154 9.77877 6.03527C9.7882 6.02707 9.79764 6.01887 9.80707 6.01148ZM9.16887 12.9226L9.15287 12.9029C8.83502 13.1908 8.48193 13.4373 8.10205 13.6363C8.3148 13.8662 8.544 14.0803 8.78783 14.277C9.20713 14.0537 9.59302 13.7728 9.93422 13.4423C9.66311 13.2939 9.40682 13.1199 9.16887 12.9226Z" fill="#CF5F1F"/>
<path d="M0.986278 7.48899C0.959723 7.48896 0.933572 7.48249 0.910068 7.47013C0.886563 7.45777 0.866407 7.4399 0.851328 7.41804C0.836249 7.39618 0.826697 7.37099 0.823491 7.34463C0.820285 7.31827 0.82352 7.29152 0.832921 7.26669C1.12371 6.50483 1.58693 5.82064 2.18631 5.26771C2.20209 5.25274 2.22068 5.24105 2.24102 5.23334C2.26135 5.22562 2.28301 5.22202 2.30475 5.22275C2.32649 5.22348 2.34786 5.22852 2.36763 5.23759C2.3874 5.24665 2.40517 5.25956 2.41991 5.27555C2.43464 5.29155 2.44605 5.31031 2.45347 5.33076C2.46089 5.3512 2.46417 5.37292 2.46312 5.39464C2.46207 5.41636 2.45671 5.43766 2.44735 5.4573C2.43799 5.47693 2.42483 5.49451 2.40862 5.50901C1.84667 6.0274 1.41236 6.66886 1.13972 7.38313C1.1279 7.41425 1.1069 7.44104 1.0795 7.45995C1.0521 7.47885 1.01957 7.48898 0.986278 7.48899ZM0.659548 9.12958L0.654257 9.12949C0.632719 9.12882 0.611526 9.1239 0.591888 9.11503C0.57225 9.10616 0.554551 9.09351 0.539804 9.0778C0.525056 9.06209 0.513548 9.04362 0.505937 9.02346C0.498326 9.0033 0.49476 8.98184 0.495444 8.9603C0.502653 8.73336 0.52445 8.50712 0.5607 8.28297C0.567673 8.24002 0.591422 8.2016 0.626725 8.17616C0.662027 8.15072 0.705989 8.14034 0.748941 8.14731C0.791893 8.15429 0.830316 8.17804 0.855757 8.21334C0.881198 8.24864 0.891573 8.2926 0.8846 8.33556C0.850618 8.54575 0.830191 8.75791 0.823446 8.97072C0.822094 9.0133 0.804236 9.05368 0.773649 9.08332C0.743062 9.11297 0.702144 9.12956 0.659548 9.12958Z" fill="#F0CD81"/>
<path d="M4.86509 2.56788L4.67847 3.8931L2.81062 4.92218L1.5904 4.37175C1.1638 4.17929 0.7939 3.88031 0.51627 3.50355C0.23864 3.12679 0.0626228 2.68494 0.00514708 2.22048C0.00352247 2.20645 0.00270076 2.19235 0.00268608 2.17823C0.00254051 2.09554 0.0320186 2.01553 0.0857799 1.9527C0.139541 1.88987 0.214029 1.84837 0.295749 1.83573C0.37747 1.82308 0.461016 1.84012 0.531253 1.88377C0.601489 1.92741 0.65377 1.99477 0.678624 2.07364L0.834483 2.56706C0.904049 2.78711 1.01924 2.99001 1.17253 3.16253C1.32582 3.33504 1.51377 3.47329 1.72411 3.56825L1.80327 3.60394C2.00529 3.69496 2.22363 3.74421 2.44517 3.74872C2.45624 3.74913 2.4669 3.74913 2.47798 3.74913C2.5868 3.74922 2.69535 3.73837 2.802 3.71673C3.13478 3.64945 3.43853 3.48069 3.67144 3.23368C3.90436 2.98666 4.05499 2.67353 4.10261 2.33737L4.1145 2.25124C4.14672 2.0227 4.13034 1.78992 4.06645 1.56814C4.00256 1.34636 3.89259 1.14055 3.74372 0.96417L3.41026 0.56878C3.35471 0.502853 3.32577 0.418553 3.32913 0.332403C3.33249 0.246253 3.36791 0.164463 3.42843 0.103064C3.48896 0.041666 3.57023 0.0050852 3.65632 0.000491641C3.74242 -0.00410192 3.82712 0.0236232 3.89384 0.0782327C4.25581 0.374955 4.5353 0.759863 4.7054 1.1959C4.87551 1.63194 4.9305 2.10443 4.86509 2.56788Z" fill="#F3B73F"/>
<path d="M2.12484 2.48414L1.17607 0.764805C1.11309 0.650475 1.09811 0.515812 1.13441 0.390436C1.17072 0.26506 1.25534 0.159239 1.36966 0.0962502C1.42627 0.0650611 1.48847 0.0453279 1.55271 0.0381774C1.61695 0.031027 1.68197 0.0365991 1.74405 0.0545759C1.80614 0.0725528 1.86408 0.102582 1.91455 0.14295C1.96503 0.183317 2.00707 0.233232 2.03826 0.289844L2.98703 2.00914L2.12484 2.48414Z" fill="#F3B73F"/>
<path d="M3.33354 0.477679L3.74386 0.96392C3.8927 1.14029 4.00266 1.34607 4.06655 1.56784C4.13044 1.7896 4.14683 2.02234 4.11464 2.25087L4.1025 2.33679C4.06696 2.589 3.9732 2.82948 3.82862 3.03917C3.68405 3.24886 3.49264 3.42201 3.26955 3.54491C3.04646 3.66781 2.79782 3.73709 2.54333 3.74725C2.28883 3.75741 2.03546 3.70817 1.80328 3.60344L1.72421 3.56776C1.51384 3.47286 1.32586 3.33464 1.17255 3.16214C1.01924 2.98964 0.904044 2.78674 0.834494 2.56669L0.642746 1.96003C0.614483 1.87063 0.608076 1.77577 0.624063 1.68339C0.640049 1.59101 0.677963 1.50381 0.734621 1.42912C0.984369 1.09993 1.30042 0.826825 1.66234 0.627447C2.02426 0.428068 2.42399 0.30686 2.83569 0.271658C2.9291 0.263679 3.02306 0.278224 3.10969 0.314072C3.19631 0.34992 3.27308 0.406026 3.33354 0.477679Z" fill="#E7F2DA"/>
<path d="M1.19558 2.32506C1.15352 2.32507 1.11307 2.30892 1.08257 2.27996C1.05208 2.251 1.03387 2.21142 1.03171 2.16942C1.02955 2.12742 1.04361 2.08619 1.07097 2.05425C1.09834 2.02231 1.13693 2.0021 1.17877 1.9978C1.54911 1.95827 1.90787 1.84535 2.23409 1.66564C2.56031 1.48593 2.84746 1.24303 3.07878 0.951123C3.10573 0.91696 3.14514 0.894903 3.18836 0.889803C3.23157 0.884703 3.27504 0.896979 3.3092 0.923929C3.34336 0.950879 3.36542 0.990297 3.37052 1.03351C3.37562 1.07672 3.36334 1.12019 3.33639 1.15436C3.07786 1.4806 2.75692 1.75208 2.39232 1.95293C2.02772 2.15379 1.62676 2.28 1.21285 2.3242C1.20713 2.32479 1.20138 2.32507 1.19562 2.32506H1.19558Z" fill="#B1CDB4"/>
<path d="M2.99665 4.07039L1.96757 2.20229C1.9046 2.08796 1.88961 1.9533 1.92592 1.82792C1.96222 1.70254 2.04684 1.59672 2.16117 1.53373C2.2755 1.47076 2.41016 1.45577 2.53553 1.49208C2.66091 1.52838 2.76673 1.61301 2.82972 1.72733L3.85888 3.59543L2.99665 4.07039Z" fill="#F3B73F"/>
<path d="M2.99673 4.07061C3.01772 4.10873 3.02271 4.15364 3.0106 4.19544C2.99848 4.23725 2.97026 4.27253 2.93213 4.29353C2.894 4.31452 2.8491 4.31951 2.80729 4.30739C2.76548 4.29528 2.7302 4.26705 2.70921 4.22893L2.44507 3.74904C2.45614 3.74945 2.46681 3.74945 2.47788 3.74945C2.5867 3.74954 2.69526 3.73869 2.8019 3.71705L2.99673 4.07061ZM4.08159 3.66004C4.04352 3.68102 3.99867 3.68602 3.9569 3.67395C3.91514 3.66187 3.87988 3.63371 3.85888 3.59564L3.66405 3.24209C3.7468 3.15527 3.81983 3.05969 3.88185 2.95703L4.1464 3.43732C4.16731 3.47546 4.17224 3.52033 4.16008 3.56209C4.14793 3.60385 4.1197 3.63908 4.08159 3.66004ZM3.18232 5.06893C3.14592 5.06893 3.11056 5.05684 3.08178 5.03455C3.05301 5.01225 3.03246 4.98103 3.02338 4.94578C3.01429 4.91053 3.01719 4.87326 3.0316 4.83984C3.04601 4.80642 3.07113 4.77873 3.103 4.76114L4.67845 3.89325L4.75564 3.34553C4.7622 3.30288 4.78531 3.26453 4.81995 3.23879C4.85459 3.21305 4.89797 3.20199 4.94071 3.20802C4.98344 3.21405 5.02208 3.23667 5.04825 3.27098C5.07442 3.3053 5.08602 3.34854 5.08053 3.39135L4.99193 4.02024C4.98838 4.04546 4.97901 4.0695 4.96456 4.09048C4.95011 4.11145 4.93097 4.12877 4.90867 4.14107L3.26128 5.04858C3.23709 5.06195 3.20992 5.06896 3.18228 5.06897L3.18232 5.06893Z" fill="#E0802B"/>
<path d="M12.7974 3.06055C11.5643 3.06055 10.359 3.42619 9.33373 4.11123C8.3085 4.79627 7.50942 5.76995 7.03755 6.90913C6.56569 8.04831 6.44223 9.30184 6.68278 10.5112C6.92334 11.7205 7.5171 12.8314 8.389 13.7033C9.26089 14.5752 10.3718 15.169 11.5811 15.4095C12.7905 15.6501 14.044 15.5266 15.1832 15.0547C16.3223 14.5829 17.296 13.7838 17.9811 12.7586C18.6661 11.7333 19.0317 10.528 19.0317 9.29492C19.0318 8.47621 18.8705 7.66551 18.5572 6.90911C18.2439 6.15271 17.7847 5.46544 17.2058 4.88652C16.6269 4.3076 15.9396 3.84838 15.1832 3.53508C14.4268 3.22178 13.6161 3.06053 12.7974 3.06055ZM12.3052 14.2168C11.1163 14.2186 9.96477 13.802 9.05223 13.0401C8.24072 12.065 7.8229 10.822 7.88076 9.55473C7.93863 8.28752 8.46801 7.08767 9.365 6.19068C10.262 5.29369 11.4618 4.76431 12.7291 4.70644C13.9963 4.64858 15.2394 5.0664 16.2144 5.87791C16.8326 6.62067 17.2264 7.52419 17.3496 8.48266C17.4728 9.44114 17.3204 10.4149 16.9103 11.2899C16.5001 12.1649 15.8491 12.9049 15.0335 13.4232C14.2179 13.9416 13.2715 14.2169 12.3052 14.2168Z" fill="#F3B73F"/>
<path d="M18.0474 9.78615C18.0474 10.8317 17.7253 11.8518 17.1247 12.7076C16.5242 13.5635 15.6745 14.2134 14.6913 14.569C13.7081 14.9245 12.6392 14.9684 11.6301 14.6947C10.6211 14.4209 9.72093 13.8428 9.05225 13.0391C10.0273 13.8506 11.2704 14.2684 12.5376 14.2106C13.8048 14.1527 15.0046 13.6233 15.9016 12.7263C16.7986 11.8293 17.328 10.6295 17.3859 9.36228C17.4437 8.09506 17.0259 6.85196 16.2144 5.87695C16.7886 6.35363 17.2506 6.95113 17.5675 7.62684C17.8843 8.30255 18.0482 9.03985 18.0474 9.78615Z" fill="#E0802B"/>
<path d="M7.54878 7.48899C7.52222 7.48896 7.49607 7.48249 7.47257 7.47013C7.44906 7.45777 7.42891 7.4399 7.41383 7.41804C7.39875 7.39618 7.3892 7.37099 7.38599 7.34463C7.38278 7.31827 7.38602 7.29152 7.39542 7.26669C7.68621 6.50483 8.14944 5.82064 8.74881 5.26771C8.76459 5.25274 8.78318 5.24105 8.80352 5.23334C8.82385 5.22562 8.84551 5.22202 8.86725 5.22275C8.88899 5.22348 8.91036 5.22852 8.93013 5.23759C8.9499 5.24665 8.96767 5.25956 8.9824 5.27555C8.99714 5.29155 9.00855 5.31031 9.01597 5.33076C9.02339 5.3512 9.02667 5.37292 9.02562 5.39464C9.02457 5.41636 9.01921 5.43766 9.00985 5.4573C9.00049 5.47693 8.98733 5.49451 8.97112 5.50901C8.40917 6.0274 7.97486 6.66886 7.70222 7.38313C7.6904 7.41425 7.6694 7.44104 7.642 7.45995C7.6146 7.47885 7.58211 7.48898 7.54882 7.48899H7.54878ZM7.22205 9.12958L7.21676 9.12949C7.19522 9.12882 7.17403 9.1239 7.15439 9.11503C7.13475 9.10616 7.11705 9.09351 7.1023 9.0778C7.08756 9.06209 7.07605 9.04362 7.06844 9.02346C7.06083 9.0033 7.05726 8.98184 7.05794 8.9603C7.06515 8.73336 7.08695 8.50712 7.1232 8.28297C7.12665 8.26171 7.13426 8.24133 7.14559 8.223C7.15692 8.20467 7.17174 8.18875 7.18922 8.17616C7.22453 8.15072 7.26849 8.14034 7.31144 8.14731C7.33271 8.15077 7.35309 8.15837 7.37142 8.1697C7.38974 8.18103 7.40566 8.19586 7.41826 8.21334C7.43085 8.23082 7.43988 8.25061 7.44483 8.27158C7.44978 8.29255 7.45055 8.31429 7.4471 8.33556C7.41312 8.54575 7.39269 8.75791 7.38595 8.97072C7.38459 9.0133 7.36674 9.05368 7.33615 9.08332C7.30556 9.11297 7.26464 9.12956 7.22205 9.12958Z" fill="#F0CD81"/>
</svg>
