<svg width="30" height="30" viewBox="0 0 30 30" fill="none" xmlns="http://www.w3.org/2000/svg">
<g clip-path="url(#clip0_2006_560)">
<path d="M15 30C23.2843 30 30 23.2843 30 15C30 6.71573 23.2843 0 15 0C6.71573 0 0 6.71573 0 15C0 23.2843 6.71573 30 15 30Z" fill="#039BE5"/>
<path d="M10.1309 14.4109L20.2409 10.2509C20.7101 10.07 21.1199 10.373 20.9679 11.1302L20.9687 11.1293L19.2473 19.7841C19.1198 20.3977 18.7781 20.547 18.3001 20.2579L15.6787 18.196L14.4143 19.496C14.2745 19.6452 14.1565 19.7711 13.8857 19.7711L14.0718 16.9241L18.9301 12.24C19.1416 12.0413 18.883 11.9294 18.6042 12.1271L12.6003 16.1613L10.0121 15.2996C9.45022 15.1094 9.43798 14.7 10.1309 14.4109Z" fill="white"/>
</g>
<defs>
<clipPath id="clip0_2006_560">
<rect width="30" height="30" fill="white"/>
</clipPath>
</defs>
</svg>
