<svg width="50" height="50" viewBox="0 0 50 50" fill="none" xmlns="http://www.w3.org/2000/svg">
<path d="M25 50C38.8071 50 50 38.8071 50 25C50 11.1929 38.8071 0 25 0C11.1929 0 0 11.1929 0 25C0 38.8071 11.1929 50 25 50Z" fill="#40C1FF"/>
<path d="M16.8847 24.0182L33.7346 17.0849C34.5167 16.7833 35.1997 17.2885 34.9463 18.5505L34.9477 18.5489L32.0787 32.9737C31.8661 33.9963 31.2967 34.245 30.5001 33.7632L26.131 30.3268L24.0237 32.4934C23.7907 32.7421 23.5941 32.9519 23.1426 32.9519L23.4528 28.2069L31.5501 20.4C31.9025 20.069 31.4714 19.8825 31.0069 20.2119L21.0003 26.9355L16.6866 25.4994C15.7502 25.1823 15.7298 24.5 16.8847 24.0182Z" fill="white"/>
</svg>
