<svg width="50" height="50" viewBox="0 0 50 50" fill="none" xmlns="http://www.w3.org/2000/svg">
<rect width="50" height="50" rx="25" fill="#DF3E1A"/>
<path d="M38.0059 31.0466C37.9741 30.978 37.9444 30.9211 37.9168 30.8755C37.4607 30.054 36.589 29.0456 35.3023 27.8502L35.2751 27.8228L35.2615 27.8094L35.2477 27.7956H35.2339C34.65 27.2389 34.2802 26.8646 34.1253 26.673C33.842 26.3079 33.7785 25.9384 33.9334 25.564C34.0428 25.2812 34.4537 24.6838 35.1653 23.771C35.5396 23.2873 35.8361 22.8997 36.055 22.6076C37.6338 20.5086 38.3183 19.1673 38.1083 18.5832L38.0268 18.4467C37.972 18.3645 37.8306 18.2893 37.6027 18.2208C37.3743 18.1524 37.0823 18.141 36.7263 18.1866L32.7842 18.2139C32.7203 18.1912 32.6291 18.1934 32.5103 18.2208C32.3917 18.2482 32.3323 18.262 32.3323 18.262L32.2637 18.2962L32.2092 18.3374C32.1636 18.3647 32.1134 18.4126 32.0586 18.481C32.0041 18.5492 31.9585 18.6293 31.922 18.7205C31.4928 19.8248 31.0049 20.8514 30.4572 21.8004C30.1195 22.3663 29.8094 22.8567 29.5262 23.2719C29.2434 23.6871 29.0061 23.9929 28.8146 24.1889C28.6228 24.3852 28.4498 24.5424 28.2943 24.6611C28.1391 24.7799 28.0207 24.8301 27.9386 24.8118C27.8564 24.7934 27.779 24.7752 27.7057 24.757C27.578 24.6748 27.4753 24.563 27.3979 24.4216C27.3201 24.2802 27.2678 24.1022 27.2404 23.8877C27.2131 23.6731 27.197 23.4885 27.1924 23.3333C27.1882 23.1783 27.1901 22.9591 27.1994 22.6762C27.2089 22.3932 27.2131 22.2017 27.2131 22.1013C27.2131 21.7545 27.2199 21.3781 27.2335 20.972C27.2473 20.5659 27.2584 20.2441 27.2678 20.0071C27.2771 19.7698 27.2814 19.5188 27.2814 19.2541C27.2814 18.9895 27.2653 18.7819 27.2335 18.6313C27.202 18.4808 27.1537 18.3348 27.0901 18.1932C27.0261 18.0518 26.9324 17.9424 26.8095 17.8647C26.6863 17.7871 26.5332 17.7256 26.351 17.6798C25.8673 17.5704 25.2513 17.5112 24.5029 17.5019C22.8056 17.4837 21.715 17.5933 21.2313 17.8306C21.0397 17.9309 20.8663 18.0678 20.7112 18.2411C20.5469 18.4419 20.524 18.5515 20.6426 18.5696C21.1902 18.6516 21.5779 18.8478 21.8061 19.1581L21.8883 19.3225C21.9523 19.4411 22.0161 19.6511 22.08 19.9522C22.1438 20.2533 22.185 20.5863 22.2032 20.9512C22.2487 21.6175 22.2487 22.1878 22.2032 22.6623C22.1575 23.1369 22.1143 23.5064 22.0731 23.7711C22.0319 24.0358 21.9704 24.2502 21.8883 24.4144C21.8061 24.5787 21.7514 24.6791 21.724 24.7155C21.6966 24.7519 21.6738 24.7749 21.6556 24.7839C21.537 24.8294 21.4137 24.8525 21.286 24.8525C21.1581 24.8525 21.0031 24.7886 20.8206 24.6608C20.6382 24.5329 20.4488 24.3574 20.2526 24.1337C20.0564 23.9101 19.835 23.5975 19.5886 23.1961C19.3423 22.7946 19.0867 22.3201 18.8221 21.7725L18.6031 21.3755C18.4662 21.12 18.2792 20.7481 18.042 20.2599C17.8046 19.7716 17.5947 19.2993 17.4123 18.843C17.3393 18.6514 17.2298 18.5055 17.0838 18.4051L17.0153 18.3639C16.9697 18.3275 16.8966 18.2888 16.7963 18.2475C16.6959 18.2063 16.5911 18.1768 16.4815 18.1586L12.7308 18.1859C12.3476 18.1859 12.0875 18.2727 11.9506 18.4461L11.8958 18.5281C11.8684 18.5738 11.8546 18.6468 11.8546 18.7473C11.8546 18.8476 11.882 18.9709 11.9368 19.1168C12.4843 20.4036 13.0797 21.6446 13.7231 22.8401C14.3664 24.0355 14.9254 24.9985 15.3998 25.7281C15.8743 26.4582 16.358 27.1473 16.8508 27.7951C17.3436 28.443 17.6698 28.8583 17.8294 29.0407C17.9892 29.2235 18.1148 29.3601 18.206 29.4513L18.5483 29.7798C18.7673 29.9989 19.0889 30.2612 19.5132 30.5669C19.9377 30.8727 20.4076 31.1738 20.9232 31.4706C21.4389 31.767 22.0388 32.0088 22.7233 32.1958C23.4077 32.383 24.0738 32.4582 24.7218 32.4219H26.296C26.6153 32.3944 26.8572 32.294 27.0216 32.1207L27.076 32.0521C27.1127 31.9976 27.1469 31.913 27.1786 31.7991C27.2106 31.6851 27.2265 31.5594 27.2265 31.4227C27.2172 31.0304 27.247 30.6768 27.3153 30.362C27.3835 30.0473 27.4613 29.81 27.5483 29.6502C27.6352 29.4906 27.7333 29.3558 27.8425 29.2466C27.9519 29.1372 28.0298 29.0709 28.0756 29.048C28.121 29.0251 28.1573 29.0095 28.1847 29.0001C28.4037 28.9272 28.6614 28.9978 28.9583 29.2125C29.2549 29.4269 29.5332 29.6917 29.7934 30.0064C30.0535 30.3214 30.366 30.6748 30.731 31.0672C31.0962 31.4596 31.4155 31.7514 31.6891 31.9433L31.9628 32.1076C32.1456 32.2172 32.3828 32.3176 32.6749 32.4088C32.9665 32.5 33.2219 32.5228 33.4413 32.4772L36.9454 32.4226C37.2919 32.4226 37.5616 32.3652 37.7529 32.2513C37.9446 32.1372 38.0585 32.0116 38.0952 31.8749C38.1318 31.7381 38.1338 31.5828 38.1022 31.4092C38.0697 31.2361 38.0377 31.1151 38.0059 31.0466Z" fill="white"/>
</svg>
