<svg width="30" height="30" viewBox="0 0 30 30" fill="none" xmlns="http://www.w3.org/2000/svg">
<g clip-path="url(#clip0_2006_565)">
<path d="M15.0037 0H14.9963C6.72563 0 0 6.7275 0 15C0 18.2812 1.0575 21.3225 2.85562 23.7919L0.98625 29.3644L6.75187 27.5213C9.12375 29.0925 11.9531 30 15.0037 30C23.2744 30 30 23.2706 30 15C30 6.72938 23.2744 0 15.0037 0Z" fill="#4CAF50"/>
<path d="M20.2071 18.5131C19.9871 19.1063 19.1139 19.5983 18.4174 19.7419C17.9409 19.8388 17.3185 19.9161 15.2233 19.0867C12.5434 18.0266 10.8175 15.4264 10.683 15.2577C10.5542 15.089 9.6001 13.8809 9.6001 12.6314C9.6001 11.382 10.2647 10.7735 10.5326 10.5123C10.7526 10.2979 11.1162 10.2 11.465 10.2C11.5779 10.2 11.6793 10.2054 11.7705 10.2097C12.0384 10.2206 12.1729 10.2359 12.3496 10.6397C12.5696 11.1458 13.1054 12.3953 13.1692 12.5237C13.2342 12.6521 13.2991 12.8263 13.2079 12.995C13.1225 13.1691 13.0472 13.2464 12.9127 13.3944C12.7782 13.5424 12.6505 13.6556 12.516 13.8145C12.3929 13.9527 12.2538 14.1008 12.4089 14.3565C12.5639 14.6069 13.0997 15.4417 13.8885 16.1121C14.9064 16.9774 15.7317 17.2539 16.027 17.3714C16.247 17.4585 16.5092 17.4378 16.6699 17.2745C16.8739 17.0645 17.1259 16.7162 17.3823 16.3733C17.5647 16.1274 17.795 16.0969 18.0366 16.184C18.2829 16.2656 19.5858 16.8805 19.8537 17.0079C20.1216 17.1363 20.2982 17.1973 20.3632 17.305C20.4271 17.4128 20.4271 17.9189 20.2071 18.5131Z" fill="#FAFAFA"/>
</g>
<defs>
<clipPath id="clip0_2006_565">
<rect width="30" height="30" fill="white"/>
</clipPath>
</defs>
</svg>
