<svg width="30" height="30" viewBox="0 0 30 30" fill="none" xmlns="http://www.w3.org/2000/svg">
    <g clip-path="url(#clip0_2001_425)">
        <path d="M15.0037 0H14.9963C6.72563 0 0 6.7275 0 15C0 18.2812 1.0575 21.3225 2.85562 23.7919L0.98625 29.3644L6.75187 27.5213C9.12375 29.0925 11.9531 30 15.0037 30C23.2744 30 30 23.2706 30 15C30 6.72938 23.2744 0 15.0037 0Z" fill="#DF3E1A"/>
        <path d="M20.2066 18.5131C19.9866 19.1063 19.1134 19.5983 18.4169 19.7419C17.9404 19.8388 17.318 19.9161 15.2228 19.0867C12.5429 18.0266 10.817 15.4264 10.6825 15.2577C10.5537 15.089 9.59961 13.8809 9.59961 12.6314C9.59961 11.382 10.2642 10.7735 10.5321 10.5123C10.7521 10.2979 11.1157 10.2 11.4645 10.2C11.5774 10.2 11.6788 10.2054 11.77 10.2097C12.0379 10.2206 12.1724 10.2359 12.3491 10.6397C12.5691 11.1458 13.1049 12.3953 13.1687 12.5237C13.2337 12.6521 13.2987 12.8263 13.2075 12.995C13.122 13.1691 13.0467 13.2464 12.9122 13.3944C12.7777 13.5424 12.65 13.6556 12.5155 13.8145C12.3924 13.9527 12.2533 14.1008 12.4084 14.3565C12.5634 14.6069 13.0992 15.4417 13.888 16.1121C14.9059 16.9774 15.7312 17.2539 16.0265 17.3714C16.2465 17.4585 16.5087 17.4378 16.6694 17.2745C16.8734 17.0645 17.1254 16.7162 17.3818 16.3733C17.5642 16.1274 17.7945 16.0969 18.0362 16.184C18.2824 16.2656 19.5853 16.8805 19.8532 17.0079C20.1211 17.1363 20.2978 17.1973 20.3627 17.305C20.4266 17.4128 20.4266 17.9189 20.2066 18.5131Z" fill="#FAFAFA"/>
    </g>
    <defs>
        <clipPath id="clip0_2001_425">
            <rect width="30" height="30" fill="white"/>
        </clipPath>
    </defs>
</svg>
