<svg width="50" height="50" viewBox="0 0 50 50" fill="none" xmlns="http://www.w3.org/2000/svg">
<path d="M25.0063 0H24.9937C11.2094 0 0 11.2125 0 25C0 30.4688 1.7625 35.5375 4.75938 39.6531L1.64375 48.9406L11.2531 45.8688C15.2063 48.4875 19.9219 50 25.0063 50C38.7906 50 50 38.7844 50 25C50 11.2156 38.7906 0 25.0063 0Z" fill="#58DF5D"/>
<path d="M33.6783 30.8553C33.3116 31.8439 31.8563 32.6639 30.6955 32.9033C29.9013 33.0648 28.864 33.1936 25.372 31.8113C20.9055 30.0445 18.0291 25.7108 17.8049 25.4296C17.5902 25.1485 16 23.1349 16 21.0525C16 18.97 17.1076 17.956 17.5541 17.5206C17.9208 17.1633 18.5268 17 19.1082 17C19.2963 17 19.4654 17.0091 19.6173 17.0163C20.0638 17.0345 20.288 17.0599 20.5825 17.7329C20.9492 18.5764 21.8421 20.6588 21.9485 20.8729C22.0568 21.0869 22.1651 21.3772 22.0131 21.6583C21.8706 21.9486 21.7452 22.0774 21.521 22.3241C21.2968 22.5708 21.084 22.7594 20.8599 23.0243C20.6547 23.2547 20.4229 23.5014 20.6813 23.9277C20.9397 24.3449 21.8326 25.7362 23.1473 26.8536C24.8439 28.2958 26.2194 28.7565 26.7115 28.9524C27.0781 29.0975 27.5151 29.0631 27.783 28.791C28.1231 28.4409 28.5429 27.8604 28.9704 27.289C29.2744 26.879 29.6581 26.8282 30.0609 26.9734C30.4713 27.1094 32.6428 28.1343 33.0893 28.3466C33.5358 28.5606 33.8303 28.6622 33.9385 28.8418C34.0449 29.0214 34.0449 29.8649 33.6783 30.8553Z" fill="#FAFAFA"/>
</svg>
