<svg width="14" height="14" viewBox="0 0 14 14" fill="none" xmlns="http://www.w3.org/2000/svg">
<path d="M13.5049 9.45712L10.7686 6.74898L13.3758 4.16858C13.7602 3.78821 13.7601 3.16932 13.3758 2.78895L10.9493 0.387409C10.5649 0.00703856 9.9396 0.00703772 9.55527 0.387407L6.94799 2.96781L4.23745 0.285205C3.85312 -0.0951655 3.2278 -0.0951663 2.84347 0.285203L0.416894 2.68676C0.0325622 3.06713 0.0325619 3.686 0.416894 4.06637L3.12742 6.74895L0.287817 9.55928C-0.0965141 9.93965 -0.0965128 10.5585 0.287819 10.9389L2.7144 13.3405C3.09873 13.7208 3.72405 13.7208 4.10838 13.3405L6.94798 10.5301L9.68433 13.2383C10.0687 13.6186 10.694 13.6186 11.0783 13.2383L13.5049 10.8367C13.8892 10.4564 13.8892 9.83749 13.5049 9.45712Z" fill="white"/>
</svg>
