<svg width="23" height="25" viewBox="0 0 23 25" fill="none" xmlns="http://www.w3.org/2000/svg">
<path d="M0.174316 12.3864C0.174316 11.0227 0.287574 10.1136 3.79856 7.95454C6.63 6.13636 15.8039 0 15.8039 0V10.2273H22.8258V25H2.32621C1.19363 25 0.174316 24.2045 0.174316 23.1818V12.3864Z" fill="#FD9757"/>
<path d="M15.8037 10.2273V16.1364L3.00562 23.5227L18.2954 17.3864L18.6352 10.2273H15.8037ZM9.91433 9.88637C10.7071 9.09091 11.7264 8.86364 12.406 9.31818C12.9723 9.77273 12.859 10.6818 12.1795 11.4773C11.3867 12.2727 10.3674 12.5 9.68781 12.0455C9.12152 11.5909 9.23478 10.6818 9.91433 9.88637Z" fill="white"/>
</svg>
