<svg width="50" height="50" viewBox="0 0 50 50" fill="none" xmlns="http://www.w3.org/2000/svg">
<rect width="50" height="50" rx="25" fill="#DF3E1A"/>
<path d="M34.5879 19.8471C34.3575 18.9293 33.6819 18.2058 32.8252 17.9587C31.2602 17.5 24.9998 17.5 24.9998 17.5C24.9998 17.5 18.7396 17.5 17.1746 17.9413C16.3344 18.1882 15.6423 18.9295 15.4119 19.8471C15 21.5235 15 25 15 25C15 25 15 28.494 15.4119 30.1529C15.6426 31.0705 16.3179 31.794 17.1747 32.0412C18.7561 32.5 25 32.5 25 32.5C25 32.5 31.2602 32.5 32.8252 32.0587C33.682 31.8117 34.3575 31.0882 34.5882 30.1705C34.9999 28.494 34.9999 25.0177 34.9999 25.0177C34.9999 25.0177 35.0164 21.5235 34.5879 19.8471ZM23.0066 28.2117V21.7883L28.2124 25L23.0066 28.2117Z" fill="white"/>
</svg>
