<svg width="88" height="40" fill="none" xmlns="http://www.w3.org/2000/svg"><g clip-path="url(#clip0_316_3221)" fill="#fff"><path d="M80.658 17.257v1.28L88 17.021v-2.796l-7.34 3.031zm0 4.486l7.341.553v-2.383l-7.34.551v1.28zm0 3.21L88 27.983v-2.795l-7.34-1.516v1.28zM3.432 12.084l-.503 7.079h-.64v-7.08H0v15.632h2.288v-7.413H2.7l.732 7.413H5.95l-1.42-7.927 1.418-7.704H3.432zm7.872 2.122c-.077.64-.157 1.265-.241 1.874-.084.61-.168 1.235-.252 1.877-.082.64-.178 1.347-.285 2.121-.16 1.176-.296 2.126-.407 2.85L8.375 12.085H6.18l2.04 12.661h2.46l-.998.236a1.317 1.317 0 01-.286.522.735.735 0 01-.51.18c-.17 0-.34 0-.491-.022-.15-.014-.3-.036-.447-.068a4.751 4.751 0 01-.458-.066v1.964l.55.134c.09.023.18.038.273.045l.447.045c.16.015.329.025.51.033.182.008.323.012.446.012.55 0 .973-.12 1.27-.359.297-.237.539-.65.72-1.239a15.27 15.27 0 00.482-2.366c.137-.995.32-2.234.549-3.718.092-.58.183-1.213.275-1.898.092-.684.187-1.384.286-2.1a498.17 498.17 0 00.537-3.996h-2.278l-.252 2.122zm6.886-2.122h-3.684v15.63h2.288V14.623l-.957-.237h2.353v13.33h2.288V12.084H18.19zm7.325 0l-1.418 11.12h-.162l.208-11.12h-2.288v15.63h2.288v-.02l1.463-11.144h.16l-.227 11.165h2.288V12.084h-2.312zm6.755 15.714l3.157.87v-15.03l-1.082-.181 1.795-.106c.794-.045 1.591-.083 2.38-.11.34-1.013.676-2.03 1.01-3.05l-7.26 1.973v15.635zm14.802-18.93c-.748-.608-2.166-.53-2.999-.26-1.088.35-2.236.917-3.031 1.797a4.471 4.471 0 00-1.105 3.073v12.636a6.766 6.766 0 00.284 2.12c.169.53.454 1.018.836 1.43.377.396.827.719 1.326.951.554.26 1.13.472 1.72.636.54.159 1.096.26 1.658.3.453.037.905-.08 1.279-.332.357-.245.637-.663.836-1.249.199-.586.3-1.41.3-2.454-.012-5.167-.022-10.335-.031-15.505.025-1.088-.169-2.407-1.073-3.143zm-1.959 17.387a7.447 7.447 0 01-.156 1.686c-.105.431-.401.592-.884.498a1.11 1.11 0 01-.582-.28 1.065 1.065 0 01-.319-.55 6.835 6.835 0 01-.17-1.659V13.69c-.005-.48.06-.957.19-1.419.05-.204.161-.389.319-.532.157-.143.353-.238.565-.272a.724.724 0 01.553.061.832.832 0 01.314.402c.082.208.13.428.143.652.02.255.03.512.03.77l-.003 12.905zm6.367-15.767l-.094 3.152a315.11 315.11 0 01-.11 3.14c-.048 1.178-.1 2.356-.159 3.532-.085 1.757-.17 3.516-.284 5.27a17.72 17.72 0 01-.331 2.704c-.138.56-.311.877-.522.957a1.44 1.44 0 01-.85-.03v3.228l.726.236c.947.31 1.678.388 2.193.21.515-.177.915-.72 1.17-1.622.363-1.297.445-2.672.52-4.008.129-2.288.194-4.62.284-6.923.04-1.022.074-1.956.095-2.799.02-.843.042-1.659.063-2.47.02-.811.047-1.63.078-2.479.03-.794.054-1.673.075-2.629h-1.209l1.214-.192.915-.143v24.51l3.157.87V5.056l-6.82 1.854a466.4 466.4 0 00-.112 3.579zm15.952-6.819c-.602-.856-2.074-1.088-2.999-.778a5.88 5.88 0 00-3.031 2.323c-.85 1.347-1.097 3.077-1.105 4.645V29.6c.029 1.095.046 2.196.284 3.273.145.747.429 1.462.838 2.108.335.518.788.953 1.324 1.271a7.59 7.59 0 001.722.714 5.218 5.218 0 001.656.22c.248-.014.49-.078.71-.189.22-.11.414-.266.569-.454.358-.403.642-1.05.838-1.926a16.52 16.52 0 00.299-3.609c-.01-7.536-.02-15.073-.032-22.612-.055-1.609-.118-3.37-1.073-4.728zm-1.957 25.698a16.47 16.47 0 01-.158 2.53c-.105.654-.4.93-.884.83-.484-.102-.784-.498-.9-1.174a15.197 15.197 0 01-.17-2.506V10.425c-.005-.717.059-1.432.19-2.137.125-.649.421-1.026.883-1.122a.552.552 0 01.553.146c.155.185.263.403.316.636.08.323.128.653.141.985.023.383.034.77.033 1.161l-.004 19.273zM74.536.115a5.502 5.502 0 00-3.014 2.515c-.879 1.608-1.115 3.566-1.09 5.366v23.391a19.465 19.465 0 00.3 3.8c.144.856.431 1.684.85 2.45.32.578.78 1.07 1.341 1.433a6.77 6.77 0 001.736.758 3.756 3.756 0 001.69.133c.493-.091.91-.388 1.246-.9.336-.51.598-1.282.773-2.31.203-1.328.293-2.67.269-4.013V28.81l-3.031-.36v2.475a22.37 22.37 0 01-.158 2.95c-.106.765-.4 1.097-.883.995-.484-.1-.79-.55-.916-1.342a19.035 19.035 0 01-.189-2.928V8.764a15.37 15.37 0 01.17-2.434c.116-.715.415-1.127.9-1.228.484-.1.783.181.899.85.125.817.182 1.642.17 2.468v5.287l3.031-.262V6.53c-.046-1.825-.126-3.857-1.09-5.438-.544-.91-2.024-1.306-3.004-.976z"/></g><defs><clipPath id="clip0_316_3221"><path fill="#fff" d="M0 0h88v40H0z"/></clipPath></defs></svg>