<svg width="21" height="21" fill="none" xmlns="http://www.w3.org/2000/svg"><path d="M7.941 19.08a1.057 1.057 0 01-.455.258l-1.626.445a1.72 1.72 0 01-1.698-.46l-.85-.885a1.72 1.72 0 01-.39-1.716l.525-1.729-2.104.544a1.062 1.062 0 11-.56-2.05l1.626-.444a1.72 1.72 0 011.698.46l.85.885a1.72 1.72 0 01.39 1.716l-.608 1.745 2.187-.56a1.062 1.062 0 011.015 1.792z" fill="#8BB6EF"/><path d="M3.447 14.993l-.055.182-.47 1.547a1.727 1.727 0 00.224 1.514c.48-.11 1.12-.25 1.593-.387l.078-.224.53-1.521a1.725 1.725 0 00-.268-1.575c-.485.144-1.145.328-1.632.464z" fill="#8388EF"/><path d="M14.896 19.322c.164.066.342.09.518.069l1.675-.195a1.72 1.72 0 001.404-1.06l.459-1.14a1.72 1.72 0 00-.28-1.737l-1.133-1.407 2.156-.281a1.062 1.062 0 10-.245-2.11l-1.675.194a1.72 1.72 0 00-1.404 1.06l-.458 1.14a1.72 1.72 0 00.278 1.737l1.216 1.391-2.238.297a1.062 1.062 0 00-.273 2.041z" fill="#A183E2"/><path d="M17.54 13.852l.119.148 1.014 1.26c.348.421.476.972.357 1.487-.487.078-1.132.187-1.623.236l-.156-.178-1.06-1.213a1.725 1.725 0 01-.338-1.562c.503-.047 1.184-.123 1.686-.178z" fill="#9762E2"/><path d="M10.163 14.194c.16-.076.298-.19.402-.334l.996-1.36a1.72 1.72 0 00.175-1.751l-.524-1.11a1.72 1.72 0 00-1.464-.976l-1.803-.125 1.258-1.773a1.062 1.062 0 00-1.715-1.253l-.995 1.36a1.72 1.72 0 00-.176 1.751l.524 1.11c.268.566.829.94 1.465.976l1.847.054-1.303 1.844a1.062 1.062 0 001.313 1.587z" fill="#FFA585"/><path d="M7.845 8.69l.1-.15 1.803.124a1.727 1.727 0 011.334.749c-.243.364-.5.719-.764 1.07a1.43 1.43 0 00-.165.28l-1.847-.053a1.725 1.725 0 01-1.376-.812c.307-.401.614-.803.915-1.209z" fill="#EF7C85"/><path d="M2.6 10.974l-.89-.445a.538.538 0 01-.241-.722l.445-.89a.538.538 0 01.722-.241l.89.445a.538.538 0 01.241.722l-.445.89a.538.538 0 01-.722.241z" fill="#FFE266"/><path d="M10.062 18.988l.958-.274a.538.538 0 01.665.37l.273.957a.538.538 0 01-.369.665l-.957.274a.538.538 0 01-.666-.37l-.273-.957a.538.538 0 01.37-.665z" fill="#EF8BBD"/><path d="M16.89 8.996l-1.257.726a.784.784 0 01-1.07-.287l-.727-1.257a.784.784 0 01.287-1.072l1.258-.725a.784.784 0 011.071.287l.726 1.257a.784.784 0 01-.287 1.071z" fill="#78EAC4"/><path d="M3.542 2.025L3.89 3a.156.156 0 00.081.092l.866.39c.122.055.122.25 0 .305l-.866.39a.156.156 0 00-.081.091l-.347.974c-.049.138-.222.138-.27 0l-.347-.974a.156.156 0 00-.081-.091l-.866-.39c-.122-.055-.122-.25 0-.305l.866-.39A.156.156 0 002.925 3l.347-.974c.05-.138.222-.138.271 0z" fill="#CAB4EF"/><path d="M16.477.077l.257.722a.116.116 0 00.06.068l.642.29c.091.04.091.185 0 .226l-.642.289a.116.116 0 00-.06.068l-.257.722c-.036.102-.165.102-.2 0l-.258-.722a.115.115 0 00-.06-.068l-.642-.29c-.09-.04-.09-.185 0-.226l.642-.289a.116.116 0 00.06-.068l.257-.722c.036-.103.165-.103.201 0z" fill="#FFC7B6"/><path d="M12.947 4.525a.756.756 0 10-.578-1.398.756.756 0 00.578 1.398z" fill="#8BB6EF"/><path d="M5.829 1.922a.326.326 0 100-.652.326.326 0 000 .652z" fill="#EF8BBD"/><path d="M19.293 6.91a.326.326 0 100-.652.326.326 0 000 .653z" fill="#FFE266"/></svg>