<svg width="18" height="16" fill="none" xmlns="http://www.w3.org/2000/svg"><path d="M16.467 9.662a.642.642 0 00-.44.171.57.57 0 00-.182.415v2.003c0 .472-.199.924-.553 1.258a1.948 1.948 0 01-1.335.521H3.132c-.5 0-.98-.187-1.335-.52a1.73 1.73 0 01-.553-1.26v-2.002a.57.57 0 00-.182-.415.642.642 0 00-.44-.171.642.642 0 00-.44.171.57.57 0 00-.182.415v2.003c0 .782.331 1.533.918 2.087a3.235 3.235 0 002.214.865h10.825c.83 0 1.627-.312 2.214-.865a2.872 2.872 0 00.918-2.087v-2.003a.57.57 0 00-.182-.415.642.642 0 00-.44-.171z" fill="#C1492E" stroke="#C1492E" stroke-width=".5"/><path d="M8.104 11.374a.627.627 0 00.442.173.655.655 0 00.442-.173l3.54-3.337a.565.565 0 00-.037-.787.648.648 0 00-.835-.043L9.169 9.554V.836a.57.57 0 00-.182-.414.642.642 0 00-.44-.172.642.642 0 00-.44.172.57.57 0 00-.182.414v8.708L5.436 7.2a.642.642 0 00-.44-.172.642.642 0 00-.44.172.57.57 0 00-.183.415.57.57 0 00.182.415l3.55 3.345z" fill="#C1492E" stroke="#C1492E" stroke-width=".5"/></svg>