<svg width="15" height="13" fill="none" xmlns="http://www.w3.org/2000/svg"><path d="M14.143 11.084c-.294.791-1.458 1.447-2.387 1.639-.635.129-1.465.232-4.258-.874-3.574-1.413-5.875-4.88-6.054-5.105C1.272 6.519 0 4.908 0 3.242 0 1.576.886.765 1.243.416 1.537.131 2.021 0 2.487 0c.15 0 .285.007.407.013.357.015.536.035.772.573.293.675 1.008 2.341 1.093 2.512.086.172.173.404.051.629-.114.232-.214.335-.393.532-.18.198-.35.349-.53.56-.163.185-.349.382-.142.723.207.334.921 1.447 1.973 2.34 1.357 1.155 2.458 1.523 2.851 1.68.293.116.643.088.857-.13.272-.28.608-.744.95-1.2.244-.329.55-.37.873-.253.328.109 2.065.928 2.422 1.098.358.171.593.253.68.396.085.144.085.819-.208 1.611z" fill="#FAFAFA"/></svg>