<svg width="18" height="15" fill="none" xmlns="http://www.w3.org/2000/svg"><path d="M13.11 1c.975 0 1.911.38 2.638 1.085A4.194 4.194 0 0117 5.111c-.006.891-.376 1.94-1.241 3.133-.668.92-1.614 1.904-2.83 2.918A31.1 31.1 0 019 13.928a30.979 30.979 0 01-3.952-2.766c-1.22-1.014-2.167-1.998-2.831-2.917C1.354 7.053.994 6.005 1 5.118a4.26 4.26 0 011.148-2.916C2.888 1.42 3.858 1 4.891 1c1.316 0 2.542.711 3.257 1.873L9 4.257l.852-1.384C10.566 1.711 11.793 1 13.109 1z" fill="#fff" stroke="#fff" stroke-width="2"/></svg>