<svg width="23" height="20" fill="none" xmlns="http://www.w3.org/2000/svg"><path d="M16.751 1c1.306 0 2.567.532 3.55 1.526C21.38 3.62 22.01 5.183 22 6.817c-.008 1.291-.521 2.764-1.65 4.388-.873 1.255-2.101 2.584-3.667 3.947a39.88 39.88 0 01-5.184 3.791 39.725 39.725 0 01-5.212-3.79c-1.572-1.364-2.8-2.694-3.669-3.948C1.493 9.581.992 8.11 1 6.821c.01-1.577.571-3.04 1.558-4.13C3.558 1.587 4.868 1 6.249 1c1.763 0 3.42.994 4.39 2.64L11.5 5.1l.861-1.46c.97-1.646 2.627-2.64 4.39-2.64z" stroke="#C1492E" stroke-width="2"/></svg>