<svg width="35" height="30" fill="none" xmlns="http://www.w3.org/2000/svg"><path d="M25.49 1c2.139 0 4.19.859 5.779 2.442 1.634 1.63 2.62 3.907 2.722 6.306l.009.482c-.012 1.934-.744 4.079-2.283 6.392l-.319.465c-1.357 1.925-3.256 3.95-5.663 6.015-4.066 3.488-8.067 5.807-8.218 5.894A.033.033 0 0117.5 29a.031.031 0 01-.016-.004h0c-.153-.087-4.182-2.406-8.263-5.894-2.416-2.065-4.317-4.09-5.67-6.015C1.802 14.595.988 12.292 1 10.23c.016-2.48.911-4.792 2.501-6.523C5.115 1.95 7.247 1 9.51 1c2.893 0 5.574 1.607 7.132 4.21l.858 1.435.858-1.434C19.916 2.607 22.598 1 25.49 1z" stroke="#C1492E" stroke-width="2"/></svg>