<svg width="28" height="24" fill="none" xmlns="http://www.w3.org/2000/svg"><path d="M20.08 1.2c1.566 0 3.078.636 4.256 1.828 1.295 1.31 2.05 3.185 2.037 5.145-.01 1.547-.626 3.311-1.98 5.259-1.045 1.504-2.516 3.099-4.394 4.733a47.759 47.759 0 01-6.215 4.544 47.65 47.65 0 01-6.247-4.545C5.653 16.53 4.18 14.936 3.14 13.433c-1.35-1.948-1.95-3.71-1.94-5.255.011-1.773.603-3.425 1.652-4.701l.215-.25c1.2-1.325 2.769-2.028 4.425-2.028 2.114 0 4.099 1.192 5.262 3.164l1.033 1.75 1.032-1.75C15.982 2.391 17.966 1.2 20.08 1.2z" stroke="#C1492E" stroke-width="2.398"/></svg>