<svg width="150" height="70" fill="none" xmlns="http://www.w3.org/2000/svg"><g clip-path="url(#clip0_2006_145)" fill="#C1492E"><path d="M137.485 30.143v2.234l12.513-2.645v-4.883l-12.513 5.294zm0 7.839l12.513.965v-4.162l-12.513.963v2.234zm0 5.607l12.513 5.294V44l-12.513-2.648v2.237zM5.85 21.108l-.857 12.365H3.9V21.108H0V48.41h3.9V35.464h.702L5.85 48.41h4.288L7.723 34.565l2.417-13.457H5.85zm13.42 3.706c-.132 1.119-.27 2.21-.412 3.275a501.137 501.137 0 00-.43 3.277 397.502 397.502 0 01-.486 3.706 315.753 315.753 0 01-.693 4.979l-2.973-18.943h-3.744l3.478 22.116h4.193l-1.701.412a2.324 2.324 0 01-.487.912c-.238.213-.55.325-.87.313-.29 0-.579 0-.837-.037a6.205 6.205 0 01-.762-.12 7.87 7.87 0 01-.78-.115v3.43l.936.236c.153.039.31.065.467.078l.762.078c.273.026.56.044.87.058.31.014.55.02.759.02.937 0 1.658-.208 2.164-.626.508-.414.919-1.136 1.23-2.164a27.31 27.31 0 00.82-4.133 419.9 419.9 0 01.935-6.494c.157-1.014.313-2.119.47-3.315.156-1.196.318-2.418.486-3.668a869.811 869.811 0 00.916-6.981h-3.883l-.429 3.706zm11.736-3.706h-6.28V48.41h3.901V25.54l-1.631-.414h4.01V48.41h3.9V21.108h-3.9zm12.484 0l-2.417 19.424h-.275l.353-19.424h-3.9V48.41h3.9v-.038l2.495-19.464h.273L43.53 48.41h3.9V21.108h-3.94zm11.515 27.445l5.381 1.521V23.817l-1.846-.316 3.06-.185c1.354-.078 2.713-.145 4.057-.191a691.25 691.25 0 001.722-5.33l-12.374 3.449v27.309zm25.232-33.067c-1.275-1.06-3.692-.925-5.112-.455-1.854.614-3.81 1.603-5.166 3.141a7.929 7.929 0 00-1.884 5.367v22.073c-.031 1.25.132 2.5.484 3.7a6.7 6.7 0 001.426 2.501 7.492 7.492 0 002.26 1.66 18.41 18.41 0 002.933 1.11c.92.278 1.867.454 2.825.525a3.35 3.35 0 002.18-.58c.608-.428 1.086-1.159 1.425-2.182.339-1.023.513-2.463.513-4.286-.021-9.025-.04-18.053-.055-27.083.043-1.9-.287-4.204-1.829-5.491zM76.9 45.858c.02.988-.069 1.976-.267 2.944-.18.754-.684 1.035-1.507.87a1.872 1.872 0 01-1.535-1.45 12.222 12.222 0 01-.29-2.897V23.907a8.985 8.985 0 01.324-2.478 1.868 1.868 0 011.507-1.405 1.202 1.202 0 01.942.107c.247.172.435.418.536.701.139.365.22.75.244 1.14.034.446.052.895.052 1.347L76.9 45.858zM87.75 18.32a3508.66 3508.66 0 01-.16 5.506 561.338 561.338 0 01-.188 5.485 731.794 731.794 0 01-.27 6.17c-.144 3.069-.29 6.14-.483 9.203a31.688 31.688 0 01-.565 4.724c-.235.98-.53 1.533-.89 1.672a2.399 2.399 0 01-1.449-.052v5.639l1.237.411c1.615.542 2.86.678 3.739.368.878-.31 1.559-1.257 1.993-2.834.62-2.266.76-4.668.887-7 .22-3.997.33-8.071.484-12.093.07-1.785.128-3.417.162-4.889.035-1.472.073-2.898.108-4.315.034-1.417.08-2.848.133-4.33.052-1.387.093-2.923.127-4.592h-2.06l2.069-.336 1.56-.25V59.62l5.38 1.521V8.83l-11.623 3.24a844.567 844.567 0 00-.191 6.25zm27.19-11.907c-1.025-1.495-3.535-1.901-5.111-1.36a10.06 10.06 0 00-5.167 4.058c-1.449 2.353-1.869 5.375-1.884 8.114v34.484c.05 1.912.079 3.836.484 5.717a10.847 10.847 0 001.429 3.683 6.92 6.92 0 002.257 2.22 12.79 12.79 0 002.936 1.246 8.692 8.692 0 002.822.385 3.01 3.01 0 002.179-1.124c.612-.704 1.096-1.834 1.429-3.364a29.54 29.54 0 00.51-6.303c-.017-13.164-.036-26.33-.055-39.497-.093-2.811-.2-5.886-1.829-8.26zM111.605 51.3a29.55 29.55 0 01-.269 4.42c-.18 1.141-.682 1.624-1.507 1.448-.826-.176-1.336-.87-1.533-2.048a27.184 27.184 0 01-.29-4.38V18.214a20.048 20.048 0 01.322-3.733c.214-1.133.718-1.79 1.507-1.959a.916.916 0 01.941.255c.264.323.449.703.539 1.11.138.565.218 1.141.241 1.722.038.668.057 1.344.055 2.028l-.006 33.664zM127.05.2a9.436 9.436 0 00-5.137 4.393c-1.499 2.808-1.901 6.227-1.858 9.372v40.859a34.884 34.884 0 00.51 6.636 13.925 13.925 0 001.449 4.28 6.981 6.981 0 002.286 2.504c.919.58 1.915 1.026 2.959 1.324.929.301 1.915.38 2.881.232.84-.16 1.55-.678 2.124-1.57.573-.893 1.02-2.24 1.318-4.038.346-2.32.499-4.664.458-7.01v-6.858l-5.167-.63v4.324a40.136 40.136 0 01-.269 5.153c-.18 1.337-.681 1.916-1.504 1.738-.826-.176-1.348-.962-1.562-2.344a34.046 34.046 0 01-.322-5.115V15.306a27.364 27.364 0 01.29-4.25c.197-1.25.707-1.968 1.533-2.145.826-.177 1.336.316 1.533 1.483.213 1.428.31 2.87.29 4.312v9.236l5.166-.458V11.403c-.078-3.188-.214-6.738-1.857-9.5-.927-1.59-3.451-2.28-5.121-1.703z"/></g><defs><clipPath id="clip0_2006_145"><path fill="#fff" d="M0 0h150v69.869H0z"/></clipPath></defs></svg>