<svg width="43" height="26" fill="none" xmlns="http://www.w3.org/2000/svg"><path d="M15.414 2.783h11.34v19.688h-11.34V2.783z" fill="#F26522"/><path d="M16.149 12.575c0-3.854 1.785-7.5 4.935-9.792-5.67-4.27-13.755-3.333-18.27 2.084-4.515 5.416-3.465 13.333 2.205 17.5 4.725 3.541 11.34 3.541 16.065 0-3.15-2.292-4.935-5.938-4.935-9.792z" fill="#E51B24"/><path d="M42.084 12.575c0 6.875-5.775 12.5-13.02 12.5-2.94 0-5.775-.938-7.98-2.708 5.67-4.271 6.615-12.084 2.205-17.605a13.982 13.982 0 00-2.205-2.083c5.67-4.27 13.755-3.333 18.27 2.083 1.785 2.292 2.73 5 2.73 7.813z" fill="#F99F1C"/></svg>