<svg width="20" height="20" fill="none" xmlns="http://www.w3.org/2000/svg"><rect width="20" height="20" rx="10" fill="url(#paint0_linear_344_3306)"/><rect width="20" height="20" rx="10" fill="url(#paint1_radial_344_3306)"/><path fill-rule="evenodd" clip-rule="evenodd" d="M10.123 15.622c-1.126 0-1.65-.165-2.56-.826-.575.743-2.397 1.324-2.476.33 0-.745-.164-1.375-.35-2.063-.223-.848-.475-1.792-.475-3.16 0-3.266 2.669-5.723 5.83-5.723 3.165 0 5.645 2.578 5.645 5.754.01 3.126-2.501 5.671-5.614 5.688zm.047-8.619c-1.54-.08-2.74.99-3.006 2.67-.22 1.39.17 3.082.501 3.17.16.038.56-.287.809-.537.412.286.892.458 1.391.498a2.936 2.936 0 003.066-2.744 2.94 2.94 0 00-2.761-3.054v-.003z" fill="#fff"/><defs><radialGradient id="paint1_radial_344_3306" cx="0" cy="0" r="1" gradientUnits="userSpaceOnUse" gradientTransform="rotate(51.356 8.897 -4.887) scale(24.2703 10)"><stop stop-color="#00F"/><stop offset="1" stop-opacity="0"/></radialGradient><linearGradient id="paint0_linear_344_3306" x1="2.357" y1="15.211" x2="20" y2="10" gradientUnits="userSpaceOnUse"><stop stop-color="#4CF"/><stop offset=".662" stop-color="#53E"/><stop offset="1" stop-color="#93D"/></linearGradient></defs></svg>