<svg width="30" height="30" fill="none" xmlns="http://www.w3.org/2000/svg"><rect width="30" height="30" rx="15" fill="url(#paint0_linear_2042_3448)"/><rect width="30" height="30" rx="15" fill="url(#paint1_radial_2042_3448)"/><path fill-rule="evenodd" clip-rule="evenodd" d="M15.185 23.433c-1.69 0-2.475-.248-3.839-1.238-.863 1.114-3.596 1.985-3.715.495 0-1.119-.247-2.064-.526-3.096-.333-1.271-.711-2.687-.711-4.739 0-4.9 4.003-8.585 8.745-8.585 4.748 0 8.467 3.867 8.467 8.63.016 4.69-3.752 8.508-8.421 8.533zm.07-12.928c-2.31-.12-4.11 1.486-4.509 4.004-.329 2.084.255 4.623.752 4.755.239.058.838-.43 1.213-.805a4.256 4.256 0 002.087.747c2.394.116 4.439-1.714 4.6-4.115.093-2.406-1.75-4.444-4.143-4.582v-.004z" fill="#fff"/><defs><radialGradient id="paint1_radial_2042_3448" cx="0" cy="0" r="1" gradientUnits="userSpaceOnUse" gradientTransform="rotate(51.356 13.345 -7.33) scale(36.4055 15)"><stop stop-color="#00F"/><stop offset="1" stop-opacity="0"/></radialGradient><linearGradient id="paint0_linear_2042_3448" x1="3.535" y1="22.816" x2="30" y2="15" gradientUnits="userSpaceOnUse"><stop stop-color="#4CF"/><stop offset=".662" stop-color="#53E"/><stop offset="1" stop-color="#93D"/></linearGradient></defs></svg>