<svg width="30" height="30" fill="none" xmlns="http://www.w3.org/2000/svg"><rect width="30" height="30" rx="15" fill="#DF3E1A"/><path fill-rule="evenodd" clip-rule="evenodd" d="M15.185 23.435c-1.69 0-2.475-.248-3.839-1.239-.863 1.115-3.596 1.986-3.715.496 0-1.119-.247-2.064-.526-3.096-.333-1.272-.711-2.687-.711-4.739 0-4.9 4.003-8.586 8.745-8.586 4.748 0 8.467 3.868 8.467 8.631.016 4.69-3.752 8.508-8.421 8.533zm.07-12.929c-2.31-.12-4.11 1.486-4.509 4.004-.329 2.085.255 4.624.752 4.756.239.057.838-.43 1.213-.805a4.265 4.265 0 002.087.747 4.406 4.406 0 004.6-4.116c.093-2.406-1.75-4.444-4.143-4.582v-.004z" fill="#fff"/></svg>