<svg width="29" height="32" fill="none" xmlns="http://www.w3.org/2000/svg"><path d="M16.493 12.395a15.388 15.388 0 01-3.13-4.497c-.48.43-4.186 4.86-4.694 5.51-.531.648-4.202 5.406-4.425 5.823-.371.678-.375 1.69.012 2.307a8.664 8.664 0 002.528 2.529c.617.386 1.63.382 2.307.011.417-.223 5.175-3.894 5.823-4.425.594-.464 4.342-3.596 5.314-4.497a15.436 15.436 0 01-3.735-2.76zm-2.24 3.352l-2.175 2.174a1.188 1.188 0 01-2.028-.84 1.187 1.187 0 01.35-.839l2.174-2.174a1.187 1.187 0 011.678 1.677v.002zm12.051-3.998A6.883 6.883 0 0021.14.007a6.882 6.882 0 00-6.556 6.275 13.783 13.783 0 006.772 7.481 6.858 6.858 0 004.95-2.014zM12.008 29.958l-.758-.758a4.583 4.583 0 00-6.475 0 1.406 1.406 0 01-1.988-1.988l.288-.288c.41.255 1.08.253 1.53.007.154-.083 1.211-.882 2.186-1.631a2.81 2.81 0 01-.603-.282l-.012-.007a9.472 9.472 0 01-1.582-1.282v-.003a9.441 9.441 0 01-1.282-1.582l-.008-.011a2.857 2.857 0 01-.28-.604c-.75.976-1.55 2.033-1.632 2.186-.246.45-.25 1.12.007 1.53l-.292.289a3.779 3.779 0 005.344 5.344 2.207 2.207 0 013.119 0l.758.758a1.186 1.186 0 001.945-1.293 1.185 1.185 0 00-.267-.385h.002z" fill="#fff"/></svg>