<svg width="164" height="35" fill="none" xmlns="http://www.w3.org/2000/svg"><path fill-rule="evenodd" clip-rule="evenodd" d="M58.859 17.498c0-5.725 2.954-10.305 8.281-10.305 5.328 0 8.281 4.58 8.281 10.305 0 5.727-2.954 10.306-8.28 10.306-5.328 0-8.282-4.58-8.282-10.306zm8.281 7.448c2.072 0 2.954-3.436 2.954-7.44 0-4.005-.889-7.44-2.954-7.44-2.065 0-2.954 3.436-2.954 7.44-.007 4.004.882 7.44 2.954 7.44zM3.843 7.485v5.44h.294l3.843-5.44h5.32l-7.098 6.294.294.285L19.51 7.478v4.58L7.973 16.063v.283l11.537-1v4.297l-11.537-1v.286l11.537 4.003v4.581L6.496 20.926l-.294.285 7.098 6.295H7.98l-3.843-5.441h-.294v5.44H0V7.472h3.843v.014zm19.23 0H28.1l-.294 12.02h.294l5.915-12.02h4.438V27.52h-5.026l.294-12.02h-.294L27.51 27.52h-4.438l.001-20.036zm23.955 0h-5.026V27.52h5.026v-8.876h4.137v8.876h5.026V7.485h-5.026v7.73h-4.137v-7.73zm45.25 0h-14.19V27.52h5.027v-16.6h4.137v16.6h5.026V7.485zm2.66 10.013c0-5.725 2.954-10.305 8.282-10.305 5.32 0 8.281 4.58 8.281 10.305 0 5.727-2.954 10.306-8.281 10.306-5.32 0-8.282-4.58-8.282-10.306zm8.282 7.448c2.072 0 2.954-3.436 2.954-7.44 0-4.005-.889-7.44-2.954-7.44-2.072 0-2.954 3.436-2.954 7.44 0 4.004.882 7.44 2.954 7.44zm15.967-17.461h-5.026V27.52h4.438l5.916-12.02h.294l-.294 12.02h5.026V7.485h-4.438l-5.916 12.02h-.294l.294-12.02zm23.669 13.164l4.732.57c-.889 4.005-2.954 6.585-7.364 6.585-5.32 0-8.016-4.58-8.016-10.306 0-5.725 2.689-10.305 8.016-10.305 4.317 0 6.475 2.575 7.364 6.295l-4.732 1.144c-.294-2.005-1.155-4.579-2.632-4.579-1.771 0-2.689 3.435-2.689 7.439 0 3.976.918 7.44 2.689 7.44 1.449.014 2.33-2.277 2.632-4.283zm11.83-13.163h-4.732V27.52h4.732v-8.876h.294l3.549 8.876H164l-5.177-10.305 5.026-9.73h-5.026l-3.843 8.876h-.294V7.485z" fill="#fff"/></svg>