<svg width="22" height="26" fill="none" xmlns="http://www.w3.org/2000/svg"><path opacity=".68" d="M18.92 6.4c.3-1.9 0-3.3-1-4.5-1.2-1.3-3.2-1.9-5.9-1.9h-7.7c-.5 0-1 .4-1.1.9L.02 21.5c-.1.4.2.7.6.8h4.9l-.3 2.1c0 .3.2.6.5.7h4.1c.5 0 .9-.3 1-.8v-.2l.8-4.8V19c.1-.5.5-.8 1-.8h.4c3.9 0 6.9-1.6 7.8-6.2.4-2.1.2-3.7-.8-4.8-.3-.3-.7-.6-1.1-.8z" fill="#0070BA"/><path opacity=".7" d="M18.92 6.4c.3-1.9 0-3.3-1-4.5-1.2-1.3-3.2-1.9-5.9-1.9h-7.7c-.5 0-1 .4-1.1.9L.02 21.5c-.1.4.2.7.6.8h4.9l1.2-7.6v.2c.1-.5.5-.9 1.1-.9h2.3c4.4 0 7.9-1.8 8.9-7.1-.1-.2-.1-.4-.1-.5z" fill="#000"/><path d="M7.92 6.4c.1-.5.5-.8 1-.8h6c.7 0 1.3 0 2 .1.2 0 .3.1.5.1s.3.1.5.1c.1 0 .2 0 .2.1.3.1.6.2.8.4.3-1.9 0-3.3-1-4.5-1.2-1.3-3.2-1.9-5.9-1.9h-7.7c-.5 0-1 .4-1.1.9L.02 21.5c-.1.4.2.7.6.8h4.9l1.2-7.6 1.2-8.3z" fill="#0070BA"/></svg>