<svg width="18" height="18" fill="none" xmlns="http://www.w3.org/2000/svg"><g clip-path="url(#clip0_2335_10426)" fill="#C1492E"><path d="M14.04.957H8.514c-.35 0-.686.14-.934.387L.387 8.536a1.32 1.32 0 000 1.867l5.526 5.527a1.32 1.32 0 001.867 0l7.193-7.193a1.32 1.32 0 00.387-.934V2.277c0-.73-.59-1.32-1.32-1.32zm-2.31 4.62a.99.99 0 11.001-1.98.99.99 0 010 1.98z"/><path d="M16.68 2.277v6.144c0 .304-.121.597-.337.812l-7.31 7.31.112.112a1.32 1.32 0 001.867 0l6.6-6.6c.249-.247.388-.583.388-.933V3.597c0-.729-.59-1.32-1.32-1.32z"/></g><defs><clipPath id="clip0_2335_10426"><path fill="#fff" d="M0 0h18v18H0z"/></clipPath></defs></svg>