<svg width="25" height="30" fill="none" xmlns="http://www.w3.org/2000/svg"><path d="M12.311 1c1.717 0 3.18.606 4.395 1.822v.001c1.216 1.218 1.822 2.683 1.822 4.403 0 1.72-.606 3.184-1.821 4.401v0c-1.216 1.218-2.679 1.824-4.396 1.824-1.716 0-3.18-.606-4.395-1.823C6.7 10.41 6.094 8.946 6.094 7.226c0-1.72.606-3.186 1.822-4.403C9.13 1.606 10.594 1 12.31 1zm6.099 14.491c.665 0 1.266.112 1.794.321v.001c.551.219 1.009.51 1.372.859h.001c.368.352.707.791 1.002 1.311.293.515.527 1.05.7 1.588.129.404.243.842.341 1.306l.092.472c.115.644.192 1.245.23 1.788v.001c.038.547.058 1.12.058 1.703l-.005.247c-.049 1.215-.459 2.127-1.163 2.797-.752.717-1.771 1.115-3.118 1.115H5.286c-1.346 0-2.366-.398-3.118-1.114C1.417 27.169 1 26.178 1 24.84c0-.58.02-1.153.058-1.703v0c.037-.545.114-1.146.23-1.789.114-.64.26-1.238.433-1.777a8.44 8.44 0 01.7-1.589c.294-.52.633-.959 1-1.311.365-.349.822-.64 1.373-.859a4.85 4.85 0 011.812-.32.6.6 0 01.08.028c.05.022.115.054.2.103l.33.203c.36.235.774.502 1.23.794h.001c.49.313 1.109.579 1.81.806.736.238 1.49.36 2.242.36s1.507-.122 2.242-.36v-.002c.702-.227 1.321-.492 1.81-.804l.002-.001 1.23-.793c.27-.177.428-.263.53-.306a.5.5 0 01.096-.03z" stroke="#C1492E" stroke-width="2"/></svg>