<svg width="21" height="25" fill="none" xmlns="http://www.w3.org/2000/svg"><path d="M10.036 1.425c1.305 0 2.402.447 3.32 1.347.916.9 1.365 1.967 1.365 3.228 0 1.261-.449 2.328-1.366 3.228-.917.9-2.014 1.348-3.319 1.348-1.305 0-2.403-.448-3.32-1.348C5.799 8.328 5.352 7.26 5.352 6c0-1.261.447-2.328 1.364-3.228.917-.9 2.015-1.347 3.32-1.347zm5.022 11.582c.48.005.908.086 1.278.23v0c.41.16.74.369.996.61.27.252.522.571.745.957.169.29.312.59.428.89l.107.3c.101.31.191.645.268 1.003l.072.365c.092.502.152.968.182 1.384v0c.015.214.027.433.035.655l.012.677c0 .972-.304 1.65-.825 2.136-.529.494-1.262.788-2.286.788H4.31c-1.024 0-1.758-.294-2.287-.788h.001c-.52-.487-.824-1.165-.824-2.136 0-.454.015-.903.045-1.332h.001a12.759 12.759 0 01.424-2.434l.097-.317a6.27 6.27 0 01.536-1.191v-.002a4.18 4.18 0 01.744-.956c.192-.18.427-.343.704-.48l.292-.129c.37-.144.797-.225 1.277-.23.056.024.163.08.363.208.294.188.633.402 1.005.635l.001.001c.327.205.71.382 1.13.536l.432.148a6.411 6.411 0 001.938.307c.571 0 1.143-.08 1.702-.236l.238-.071c.59-.187 1.126-.411 1.562-.684h.001c.377-.237.715-.45 1.005-.636v-.001c.199-.128.306-.183.362-.207z" stroke="#C1492E" stroke-width="2.398"/></svg>