<svg width="25" height="30" fill="none" xmlns="http://www.w3.org/2000/svg"><path d="M12.311 14.451c1.983 0 3.7-.712 5.103-2.117 1.403-1.404 2.114-3.123 2.114-5.109 0-1.985-.71-3.703-2.114-5.109C16.011.712 14.294 0 12.311 0c-1.983 0-3.7.712-5.103 2.117C5.805 3.52 5.094 5.24 5.094 7.225c0 1.986.711 3.705 2.114 5.11 1.404 1.404 3.12 2.116 5.103 2.116zm12.629 8.617a17.845 17.845 0 00-.243-1.895 14.941 14.941 0 00-.466-1.906 9.42 9.42 0 00-.783-1.778 6.708 6.708 0 00-1.18-1.54 5.202 5.202 0 00-1.695-1.066 5.853 5.853 0 00-2.164-.392c-.306 0-.602.126-1.173.498-.352.23-.763.495-1.222.789-.393.25-.924.485-1.581.697a6.271 6.271 0 01-1.934.313 6.278 6.278 0 01-1.934-.313c-.656-.212-1.188-.446-1.58-.697-.454-.29-.866-.556-1.223-.789-.57-.372-.866-.498-1.172-.498-.78 0-1.507.132-2.164.393-.66.26-1.23.62-1.696 1.066a6.706 6.706 0 00-1.18 1.54 9.436 9.436 0 00-.782 1.777 14.981 14.981 0 00-.465 1.906 17.79 17.79 0 00-.243 1.896c-.04.574-.06 1.17-.06 1.771 0 1.567.497 2.834 1.478 3.77.968.922 2.25 1.39 3.808 1.39h14.428c1.558 0 2.84-.468 3.808-1.39.98-.935 1.478-2.203 1.478-3.77 0-.604-.02-1.2-.06-1.772z" fill="#C1492E"/></svg>