<svg width="25" height="25" fill="none" xmlns="http://www.w3.org/2000/svg"><path d="M24.881 24.524c.238.238-.12.595-.357.357-2.62-2.262-4.881-2.857-7.024-2.976-1.19 0-2.262.119-3.571.119-.239 0-.477 0-.715.119h-.357c-.476 0-.952.119-1.31.119-2.023 0-4.047-.476-5.833-1.429a10.494 10.494 0 01-4.166-4.047C.595 15 0 13.096 0 11.19c0-2.023.595-3.928 1.429-5.595C3.57 2.143 7.262 0 11.429 0c2.023 0 4.047.476 5.952 1.429 1.905.952 3.214 2.38 4.167 4.047.952 1.667 1.547 3.69 1.547 5.595 0 .715-.119 1.548-.238 2.262 0 .12 0 .238-.119.357 0 .12-.119.239-.119.358-.357.952-.833 1.785-1.31 2.738-.119.119-.119 0-.119 0-.238-1.667-1.071-2.977-2.38-3.81h-.12l-.714-.357-1.071-.357c-.238-.12-.834 0-.596-.238.12-.12 1.191-.12 2.5 0h.12v-.833c0-2.143-.715-3.81-2.143-5.239-1.429-1.428-3.334-2.142-5.477-2.142-2.142 0-3.69.595-5.119 2.142-1.428 1.429-2.26 3.096-2.26 5.239 0 2.023.714 3.809 2.142 5.238C7.5 17.857 9.286 18.57 11.31 18.57h.357v-.119c-.12-1.428-.12-2.619.119-2.143.119.12.238.358.357.477.357.476.833 1.071 1.31 1.428h.118C15 19.643 16.548 20 17.976 20.357h.12c.237.12.475.12.833.238 1.785.476 3.69 1.19 5.952 3.929zm-5-8.81c-.238-.119-.357 0-.476.12-.12.237 0 .714.238 1.07.238.358.476.596.714.596.12 0 .12 0 .12-.119.118-.12.118-.357.118-.595-.119-.238-.238-.834-.714-1.072zm-2.62 1.905a.91.91 0 00-.594.238c-.358.357-.12.953.357 1.429.238.119.476.238.833.238.238 0 .595-.12.714-.357.238-.358.12-.834-.357-1.31a2.244 2.244 0 00-.952-.238z" fill="#FF8C00"/></svg>