<svg width="30" height="30" fill="none" xmlns="http://www.w3.org/2000/svg"><g clip-path="url(#clip0_2001_425)"><path d="M15.004 0h-.008C6.726 0 0 6.728 0 15a14.89 14.89 0 002.856 8.792l-1.87 5.572 5.766-1.843A14.87 14.87 0 0015.004 30C23.274 30 30 23.27 30 15S23.274 0 15.004 0z" fill="#DF3E1A"/><path d="M20.207 18.513c-.22.593-1.094 1.085-1.79 1.229-.477.097-1.099.174-3.194-.655-2.68-1.06-4.406-3.66-4.54-3.83-.13-.168-1.083-1.376-1.083-2.626 0-1.249.664-1.857.932-2.119.22-.214.584-.312.932-.312.113 0 .215.005.306.01.268.01.402.026.58.43.22.506.755 1.755.819 1.884.065.128.13.302.038.471-.085.174-.16.251-.295.4-.134.147-.262.26-.397.42-.123.138-.262.286-.107.542.155.25.691 1.085 1.48 1.755 1.018.865 1.843 1.142 2.138 1.26.22.087.483.066.643-.098.204-.21.456-.558.713-.9.182-.247.412-.277.654-.19.246.082 1.55.697 1.817.824.268.128.445.19.51.297.064.108.064.614-.156 1.208z" fill="#FAFAFA"/></g><defs><clipPath id="clip0_2001_425"><path fill="#fff" d="M0 0h30v30H0z"/></clipPath></defs></svg>