<svg width="50" height="50" fill="none" xmlns="http://www.w3.org/2000/svg"><rect width="50" height="50" rx="25" fill="#C1492E"/><path d="M34.588 19.847c-.23-.918-.906-1.641-1.763-1.888C31.26 17.5 25 17.5 25 17.5s-6.26 0-7.825.441c-.84.247-1.533.989-1.763 1.906C15 21.523 15 25 15 25s0 3.494.412 5.153c.23.918.906 1.641 1.763 1.888C18.756 32.5 25 32.5 25 32.5s6.26 0 7.825-.441c.857-.247 1.532-.97 1.763-1.888.412-1.677.412-5.153.412-5.153s.016-3.495-.412-5.17zm-11.581 8.365v-6.424L28.212 25l-5.205 3.212z" fill="#fff"/></svg>