<svg width="21" height="21" fill="none" xmlns="http://www.w3.org/2000/svg"><path d="M10.7 2.99a.356.356 0 01-.356-.356V.351a.356.356 0 01.712 0v2.283a.356.356 0 01-.356.356z" fill="#4E5058"/><path d="M12.124 4.014V2.47a.356.356 0 00-.356-.356H9.632a.36.36 0 00-.356.356v1.543a8.542 8.542 0 102.847 0z" fill="#FD5E95"/><path d="M12.124 4.25H9.276V2.472a.356.356 0 01.356-.356h2.136a.356.356 0 01.356.356v1.78z" fill="#FD5E95"/><path d="M10.344 2.115h-.712a.356.356 0 00-.356.356v1.78h.712V2.47a.356.356 0 01.356-.356z" fill="#D14D7B"/><path d="M15.591 8.06c2.208.965 3.652 2.565 3.652 4.377A8.542 8.542 0 0010.7 3.895c2.079 0 3.897 1.67 4.891 4.165z" fill="#FD5E95"/><path d="M15.591 16.815c-.994 2.494-2.812 4.165-4.89 4.165a8.542 8.542 0 008.542-8.543c0 1.812-1.444 3.413-3.652 4.378z" fill="#B169BF"/><path d="M5.81 16.814c-2.208-.965-3.652-2.566-3.652-4.377a8.542 8.542 0 008.542 8.542c-2.078 0-3.897-1.67-4.89-4.165zm0-8.755c.993-2.494 2.812-4.164 4.89-4.164a8.542 8.542 0 00-8.542 8.542c0-1.812 1.444-3.412 3.651-4.377z" fill="#FD5E95"/><path d="M15.591 8.06c.365.916.62 1.943.734 3.039 1.788.326 2.918.805 2.918 1.339 0-1.812-1.444-3.412-3.652-4.377zM5.075 11.1c.115-1.096.37-2.123.734-3.038-2.207.965-3.651 2.565-3.651 4.377 0-.534 1.13-1.013 2.917-1.34z" fill="#FD8EB4"/><path d="M16.325 13.777a11.46 11.46 0 01-.734 3.038c2.208-.965 3.652-2.566 3.652-4.378 0 .535-1.13 1.014-2.918 1.34z" fill="#FD5E95"/><path d="M5.81 16.815a11.457 11.457 0 01-.735-3.038c-1.788-.326-2.917-.805-2.917-1.34 0 1.812 1.444 3.413 3.651 4.378z" fill="#D14D7B"/><path d="M16.325 11.098a12.828 12.828 0 010 2.678c1.788-.326 2.918-.805 2.918-1.34 0-.533-1.13-1.012-2.918-1.338z" fill="#B169BF"/><path d="M5.075 13.776a12.831 12.831 0 010-2.678c-1.788.326-2.917.805-2.917 1.339 0 .534 1.13 1.013 2.917 1.34z" fill="#FD5E95"/><path d="M15.591 16.814c-1.022.447-2.207.758-3.49.89-.325 1.994-.832 3.275-1.4 3.275 2.078 0 3.896-1.67 4.89-4.165zm-3.49-9.644c1.282.132 2.468.443 3.49.89-.994-2.495-2.812-4.165-4.89-4.165.568 0 1.075 1.28 1.4 3.275z" fill="#E58FD0"/><path d="M5.81 8.06c1.021-.447 2.207-.758 3.489-.89.326-1.994.832-3.275 1.401-3.275-2.078 0-3.897 1.67-4.89 4.165z" fill="#FD8EB4"/><path d="M9.299 17.704c-1.282-.132-2.468-.443-3.49-.89.994 2.495 2.813 4.165 4.891 4.165-.569 0-1.075-1.28-1.401-3.275z" fill="#844A8F"/><path d="M16.325 11.098a11.457 11.457 0 00-.734-3.038c-1.022-.447-2.207-.758-3.49-.89.166 1.015.285 2.215.342 3.524 1.467.064 2.796.206 3.882.404zM9.3 7.17c-1.282.132-2.468.443-3.49.89a11.457 11.457 0 00-.734 3.038c1.086-.198 2.416-.34 3.883-.403.056-1.31.175-2.51.341-3.525zm-4.224 6.606a11.46 11.46 0 00.734 3.038c1.022.447 2.208.758 3.49.89a30.375 30.375 0 01-.341-3.524c-1.467-.064-2.797-.205-3.883-.404z" fill="#FD5E95"/><path d="M12.443 14.18a30.383 30.383 0 01-.342 3.525c1.282-.132 2.468-.443 3.49-.89a11.46 11.46 0 00.734-3.038c-1.086.199-2.415.34-3.882.404z" fill="#FD8EB4"/><path d="M8.92 12.438c0-.597.013-1.18.038-1.743-1.467.064-2.797.205-3.883.404a12.83 12.83 0 000 2.678c1.086.198 2.416.34 3.883.403a40.402 40.402 0 01-.037-1.742z" fill="#844A8F"/><path d="M12.48 12.438c0 .597-.013 1.18-.037 1.742 1.467-.063 2.796-.205 3.882-.403a12.828 12.828 0 000-2.678c-1.086-.199-2.415-.34-3.882-.404.024.563.037 1.146.037 1.743z" fill="#E58FD0"/><path d="M9.3 7.17a13.658 13.658 0 012.801 0c-.325-1.994-.832-3.275-1.4-3.275-.57 0-1.076 1.28-1.402 3.275zm2.8 10.534a13.633 13.633 0 01-2.802 0c.326 1.994.832 3.275 1.401 3.275.57 0 1.076-1.28 1.401-3.275z" fill="#FD5E95"/><path d="M10.7 14.217c-.597 0-1.18-.013-1.742-.037.056 1.31.175 2.51.34 3.524a13.633 13.633 0 002.803 0c.166-1.015.285-2.215.342-3.524-.58.025-1.162.037-1.743.037z" fill="#B169BF"/><path d="M10.7 10.657c.597 0 1.18.013 1.743.037A30.362 30.362 0 0012.1 7.17a13.653 13.653 0 00-2.802 0 30.377 30.377 0 00-.341 3.524c.58-.025 1.161-.037 1.742-.037z" fill="#FD8EB4"/><path d="M12.443 10.695a40.5 40.5 0 00-3.485 0 40.485 40.485 0 000 3.485 40.452 40.452 0 003.485 0 40.452 40.452 0 000-3.485z" fill="#FD5E95"/><path d="M3.293 15.098c-.722-.784-1.135-1.692-1.135-2.66A8.542 8.542 0 0010.7 20.98c-.488 0-.962-.093-1.415-.267a8.56 8.56 0 01-5.992-5.615z" fill="#D14D7B"/><path d="M2.9 13.164c-.476-.222-.742-.468-.742-.726 0 .968.413 1.876 1.135 2.66a8.502 8.502 0 01-.392-1.934z" fill="#B2325E"/><path d="M2.87 12.437c0-.244.01-.486.03-.726-.476.222-.742.468-.742.726 0 .26.266.505.743.727a8.67 8.67 0 01-.031-.727z" fill="#D14D7B"/><path d="M3.293 9.777c-.722.784-1.135 1.692-1.135 2.66 0-.258.266-.504.743-.726a8.502 8.502 0 01.392-1.934z" fill="#FD5E95"/><path d="M9.285 4.161a3.93 3.93 0 011.415-.266 8.542 8.542 0 00-8.542 8.542c0-.969.413-1.877 1.135-2.66A8.56 8.56 0 019.285 4.16z" fill="#D14D7B"/><path d="M20.774 2.867L19 2.262 18.498.255a.334.334 0 00-.647 0l-.502 2.007-1.774.605a.334.334 0 000 .632l1.774.606.502 2.007a.333.333 0 00.648 0L19 4.105l1.774-.606a.334.334 0 000-.632zM5.424 4.291l-1.773-.606-.502-2.006a.337.337 0 00-.324-.253.337.337 0 00-.324.253L2 3.686.226 4.29A.337.337 0 000 4.607c0 .141.092.27.226.316L2 5.529l.502 2.006a.337.337 0 00.323.253.337.337 0 00.324-.253l.502-2.006 1.774-.606a.334.334 0 000-.632zM17.273 17.38l-1.774-.606-.501-2.006a.334.334 0 00-.648 0l-.502 2.006-1.774.606a.334.334 0 000 .632l1.774.605.502 2.007a.333.333 0 00.648 0l.501-2.007 1.774-.605a.334.334 0 000-.632z" fill="#FFE88A"/></svg>