<svg width="42" height="42" fill="none" xmlns="http://www.w3.org/2000/svg"><path d="M19.852 1.656a1.592 1.592 0 012.296 0l2.586 2.696c.548.57 1.356.808 2.125.624l3.633-.87c.88-.21 1.758.354 1.932 1.242l.719 3.665a2.227 2.227 0 001.45 1.675l3.526 1.232a1.591 1.591 0 01.953 2.089l-1.377 3.471a2.227 2.227 0 00.316 2.193l2.3 2.943a1.592 1.592 0 01-.328 2.274l-3.036 2.175a2.228 2.228 0 00-.92 2.015l.344 3.72c.083.9-.6 1.69-1.504 1.735l-3.73.19c-.79.04-1.499.495-1.864 1.197l-1.721 3.315a1.591 1.591 0 01-2.203.647l-3.242-1.858a2.227 2.227 0 00-2.214 0l-3.242 1.858a1.591 1.591 0 01-2.203-.647l-1.721-3.315a2.227 2.227 0 00-1.864-1.197l-3.73-.19A1.591 1.591 0 015.629 32.8l.344-3.72a2.228 2.228 0 00-.92-2.015L2.017 24.89a1.592 1.592 0 01-.328-2.274l2.3-2.943a2.227 2.227 0 00.316-2.192l-1.377-3.472c-.334-.84.1-1.79.953-2.09l3.526-1.232a2.228 2.228 0 001.45-1.674l.72-3.665a1.591 1.591 0 011.93-1.242l3.634.87a2.227 2.227 0 002.125-.624l2.586-2.696z" fill="#C1492E" stroke="#C1492E" stroke-width=".636"/><path d="M27.978 16.074a1.16 1.16 0 00-1.642 0l-7.388 7.39-3.284-3.285a1.16 1.16 0 10-1.642 1.642l4.105 4.105a1.158 1.158 0 001.642 0l8.21-8.21a1.161 1.161 0 000-1.642z" fill="#fff"/></svg>