<svg width="24" height="21" fill="none" xmlns="http://www.w3.org/2000/svg"><mask id="path-1-inside-1_2335_10449" fill="#fff"><path fill-rule="evenodd" clip-rule="evenodd" d="M13.725.954a2.035 2.035 0 00-3.449 0l-4.08 6.423-3.118-1.82C1.516 4.648-.362 6.075.06 7.85l2.12 8.895c.047.196.157.37.312.493a.86.86 0 00.542.19h17.933a.86.86 0 00.542-.19.904.904 0 00.312-.493L23.94 7.85c.424-1.778-1.454-3.205-3.017-2.293l-3.117 1.818-4.08-6.422zm-1.479.966A.298.298 0 0012 1.784a.289.289 0 00-.246.136L7.222 9.056a.889.889 0 01-.533.383.866.866 0 01-.644-.093L2.2 7.106c-.223-.13-.492.074-.43.327l1.955 8.212h16.549l1.956-8.212a.296.296 0 00-.433-.328l-3.842 2.241a.866.866 0 01-.643.093.888.888 0 01-.533-.383L12.246 1.92z"/></mask><path fill-rule="evenodd" clip-rule="evenodd" d="M13.725.954a2.035 2.035 0 00-3.449 0l-4.08 6.423-3.118-1.82C1.516 4.648-.362 6.075.06 7.85l2.12 8.895c.047.196.157.37.312.493a.86.86 0 00.542.19h17.933a.86.86 0 00.542-.19.904.904 0 00.312-.493L23.94 7.85c.424-1.778-1.454-3.205-3.017-2.293l-3.117 1.818-4.08-6.422zm-1.479.966A.298.298 0 0012 1.784a.289.289 0 00-.246.136L7.222 9.056a.889.889 0 01-.533.383.866.866 0 01-.644-.093L2.2 7.106c-.223-.13-.492.074-.43.327l1.955 8.212h16.549l1.956-8.212a.296.296 0 00-.433-.328l-3.842 2.241a.866.866 0 01-.643.093.888.888 0 01-.533-.383L12.246 1.92z" fill="#C1492E"/><path d="M13.725.954l-1.689 1.072 1.69-1.071zm-3.449 0l1.688 1.073v-.001L10.277.954zm-4.08 6.423L5.188 9.105l1.663.97L7.884 8.45 6.196 7.377zm-3.118-1.82L4.086 3.83 3.078 5.558zM.06 7.85l-1.945.463L.06 7.85zm2.12 8.895l-1.946.463.002.009 1.944-.472zm.854.683v-2h-.01l.01 2zm17.933 0l.01-2h-.01v2zm.854-.683l1.944.472.002-.009-1.946-.463zM23.94 7.85l-1.945-.463 1.945.463zm-3.017-2.293l1.008 1.727-1.008-1.727zm-3.117 1.818l-1.688 1.072 1.032 1.625 1.663-.97-1.007-1.727zm-5.56-5.455L13.935.848l-.007-.011-1.682 1.083zm-.492 0L10.074.837l-.008.01 1.688 1.073zM7.222 9.056l1.681 1.083.007-.01-1.688-1.073zm-1.177.29l-1.007 1.728 1.007-1.728zM2.2 7.106l1.007-1.728-.002-.002L2.2 7.106zm-.43.327l1.945-.464-.002-.006-1.944.47zm1.955 8.212l-1.945.464.366 1.536h1.58v-2zm16.549 0v2h1.58l.365-1.536-1.945-.464zm1.956-8.212l1.945.463v-.002l-1.945-.461zm-.433-.328l-1-1.731-.007.004 1.008 1.727zm-3.842 2.241l1.005 1.73.003-.002-1.008-1.728zm-1.176-.29l-1.688 1.072.004.006.004.006 1.68-1.084zM13.725.954l1.688-1.072c-1.593-2.51-5.232-2.51-6.825 0L10.276.954l1.689 1.072a.103.103 0 01.018-.023A.038.038 0 0112 2c.01 0 .016.003.017.003l.003.002a.107.107 0 01.016.021L13.725.954zm-3.449 0L8.588-.118l-4.08 6.423 1.688 1.072L7.884 8.45l4.08-6.423L10.276.954zm-4.08 6.423L7.204 5.65 4.086 3.83 3.078 5.558 2.07 7.285l3.118 1.82 1.008-1.728zm-3.118-1.82L4.086 3.83C.936 1.992-2.696 4.903-1.885 8.313L.06 7.85l1.946-.462A.166.166 0 012 7.338l.002-.01a.1.1 0 01.033-.04c.02-.015.032-.014.024-.014h-.013c-.003-.001.004 0 .025.011l1.007-1.727zM.06 7.85l-1.945.464 2.119 8.894 1.946-.463 1.945-.464-2.12-8.894L.06 7.85zm2.12 8.895l-1.944.472c.15.618.5 1.178 1.007 1.584l1.25-1.563 1.248-1.562c.197.158.327.37.382.597l-1.943.472zm.312.493l-1.249 1.563a2.86 2.86 0 001.802.627l-.011-2-.01-2c.266-.002.519.09.717.248l-1.249 1.562zm.542.19v2h17.933v-4H3.034v2zm17.933 0l-.01 2a2.86 2.86 0 001.8-.628l-1.248-1.562-1.25-1.562c.199-.158.452-.25.719-.248l-.011 2zm.542-.19l1.249 1.563a2.904 2.904 0 001.007-1.584l-1.944-.472-1.943-.472c.055-.227.185-.44.382-.597l1.249 1.562zm.312-.493l1.946.463 2.118-8.893-1.946-.464-1.945-.463-2.118 8.893 1.945.464zM23.94 7.85l1.946.464c.813-3.413-2.82-6.323-5.97-4.485l1.008 1.728 1.007 1.727c.02-.012.029-.013.025-.012a.047.047 0 01-.013.001c-.008 0 .003-.001.023.014s.03.031.032.039a.034.034 0 01.003.011c0 .005 0 .02-.006.05l1.945.463zm-3.017-2.293L19.915 3.83l-3.118 1.818 1.008 1.728 1.007 1.728 3.118-1.819-1.008-1.727zm-3.117 1.818l1.688-1.073-4.08-6.421L13.725.954l-1.688 1.073 4.08 6.421 1.688-1.072zm-5.56-5.455L13.928.837a2.298 2.298 0 00-.82-.767l-.968 1.75-.967 1.751a1.701 1.701 0 01-.608-.568l1.681-1.083zm-.106-.1l.967-1.75A2.289 2.289 0 0012-.216v4c-.291 0-.576-.074-.827-.213l.967-1.75zM12 1.784v-2c-.389 0-.77.1-1.106.286l.967 1.75.967 1.751a1.711 1.711 0 01-.828.213v-2zm-.14.036L10.895.07a2.298 2.298 0 00-.82.767l1.68 1.083 1.682 1.083c-.15.233-.357.43-.608.568l-.967-1.75zm-.106.1L10.066.848 5.534 7.983l1.688 1.073 1.688 1.072 4.533-7.136-1.689-1.072zM7.222 9.056L5.541 7.972c.146-.227.382-.404.67-.474l.478 1.941.479 1.942a2.889 2.889 0 001.735-1.242L7.222 9.056zm-.533.383L6.21 7.498c.289-.072.59-.026.841.12L6.045 9.346l-1.007 1.728a2.866 2.866 0 002.13.307l-.48-1.942zm-.644-.093l1.007-1.728-3.844-2.24-1.007 1.727-1.007 1.728 3.844 2.24 1.007-1.727zM2.2 7.106l1.005-1.73c-1.796-1.043-3.84.619-3.38 2.527l1.944-.47 1.944-.47c.34 1.401-1.168 2.656-2.518 1.872L2.2 7.105zm-.43.327l-1.946.463L1.78 16.11l1.945-.464 1.946-.463L3.716 6.97l-1.946.464zm1.955 8.212v2h16.549v-4H3.726v2zm16.549 0l1.945.464 1.956-8.213-1.945-.463-1.946-.464-1.956 8.213 1.945.463zm1.956-8.212l1.946.46c.45-1.896-1.58-3.56-3.38-2.52L21.8 7.106l1 1.732c-1.35.78-2.844-.475-2.515-1.865l1.947.46zm-.433-.328L20.79 5.378l-3.842 2.24 1.007 1.728 1.008 1.728 3.842-2.24-1.008-1.729zm-3.842 2.241l-1.004-1.73c.25-.145.552-.19.84-.119l-.48 1.942-.479 1.941a2.865 2.865 0 002.128-.305l-1.005-1.729zm-.643.093l.479-1.942c.287.07.522.247.668.474l-1.68 1.085-1.68 1.084a2.889 2.889 0 001.733 1.24l.48-1.941zm-.533-.383l1.688-1.073L13.934.848 12.246 1.92l-1.688 1.073 4.534 7.135 1.688-1.072z" fill="#C1492E" mask="url(#path-1-inside-1_2335_10449)"/><mask id="path-3-inside-2_2335_10449" fill="#fff"><path d="M3.793 19.215a.853.853 0 00-.62.259.9.9 0 00-.26.634c0 .493.395.892.88.892H20.21a.86.86 0 00.62-.259.912.912 0 00.26-.633.922.922 0 00-.26-.634.872.872 0 00-.62-.26H3.793z"/></mask><path d="M3.793 19.215a.853.853 0 00-.62.259.9.9 0 00-.26.634c0 .493.395.892.88.892H20.21a.86.86 0 00.62-.259.912.912 0 00.26-.633.922.922 0 00-.26-.634.872.872 0 00-.62-.26H3.793z" fill="#C1492E"/><path d="M3.793 19.215l-.014 2h.014v-2zm-.88.893l-2-.013v.013h2zM20.21 21l.015-2h-.015v2zm.88-.892l2 .016v-.029l-2 .013zm-.88-.893v2h.015l-.015-2zm-16.416 0l.014-2a2.852 2.852 0 00-1.12.22l.771 1.846.772 1.845c-.142.06-.295.09-.451.089l.014-2zm-.335.066l-.771-1.845a2.873 2.873 0 00-.938.634l1.425 1.404L4.6 20.877c-.103.105-.228.19-.37.25l-.77-1.846zm-.284.193L1.749 18.07c-.266.27-.475.588-.617.935l1.85.76 1.85.758c-.052.13-.13.25-.233.354l-1.425-1.403zm-.192.29l-1.85-.759a2.922 2.922 0 00-.218 1.09l2 .013 2 .013a1.076 1.076 0 01-.081.402l-1.85-.759zm-.068.344h-2C.914 21.68 2.18 23 3.794 23v-4c.643 0 1.12.52 1.12 1.108h-2zm.88.892v2H20.21v-4H3.793v2zm16.415 0l-.014 2c.78.005 1.52-.309 2.057-.854l-1.424-1.405-1.424-1.404a1.14 1.14 0 01.82-.337l-.015 2zm.62-.259l1.423 1.405c.536-.544.83-1.272.837-2.022l-2-.016-2-.016c.002-.273.11-.546.315-.755l1.424 1.404zm.26-.633l2-.013a2.92 2.92 0 00-.219-1.09l-1.85.76-1.85.758a1.077 1.077 0 01-.081-.402l2-.013zm-.069-.344l1.85-.759a2.9 2.9 0 00-.616-.935l-1.425 1.404-1.425 1.403a1.099 1.099 0 01-.234-.354l1.85-.759zm-.191-.29l1.425-1.404a2.873 2.873 0 00-.939-.634l-.771 1.845-.771 1.845a1.127 1.127 0 01-.37-.249l1.426-1.403zm-.285-.193l.771-1.845a2.852 2.852 0 00-1.12-.221l.014 2 .015 2c-.157 0-.31-.03-.451-.089l.771-1.845zm-.335-.066v-2H3.793v4H20.21v-2z" fill="#C1492E" mask="url(#path-3-inside-2_2335_10449)"/></svg>