<svg width="44" height="38" fill="none" xmlns="http://www.w3.org/2000/svg"><path d="M32.045 1c2.757 0 5.4 1.116 7.443 3.169 2.244 2.254 3.533 5.458 3.512 8.79-.017 2.687-1.091 5.657-3.32 8.84-1.722 2.462-4.126 5.043-7.162 7.668-3.849 3.326-7.65 5.815-9.392 6.9l-.98.594a.29.29 0 01-.29 0h-.002c-.198-.115-5.279-3.061-10.426-7.494-3.049-2.625-5.455-5.207-7.171-7.667C2.035 18.614.983 15.642 1 12.955c.02-3.205 1.17-6.2 3.214-8.442C6.29 2.235 9.038 1 11.955 1c3.731 0 7.183 2.088 9.186 5.46L22 7.908l.86-1.448C24.863 3.088 28.314 1 32.045 1z" stroke="#C1492E" stroke-width="2"/></svg>