<svg width="35" height="30" fill="none" xmlns="http://www.w3.org/2000/svg"><path d="M17.5 30a1.03 1.03 0 01-.513-.136c-.172-.099-4.265-2.454-8.416-6.002-2.46-2.103-4.425-4.19-5.838-6.2C.905 15.06-.015 12.557 0 10.223c.018-2.716 1-5.27 2.764-7.192C4.56 1.076 6.954 0 9.51 0c3.275 0 6.268 1.818 7.991 4.697C19.223 1.817 22.216 0 25.49 0c2.414 0 4.717.971 6.485 2.734 1.94 1.936 3.043 4.67 3.025 7.502-.015 2.33-.952 4.829-2.784 7.427-1.418 2.01-3.38 4.095-5.83 6.198-4.136 3.548-8.2 5.903-8.37 6.001-.16.092-.338.138-.516.138z" fill="#C1492E"/></svg>