<svg width="44" height="38" fill="none" xmlns="http://www.w3.org/2000/svg"><path d="M22 38a1.29 1.29 0 01-.645-.172c-.216-.125-5.361-3.108-10.58-7.603-3.093-2.664-5.563-5.306-7.339-7.853C1.138 19.076-.018 15.906 0 12.949c.022-3.44 1.256-6.676 3.475-9.11C5.732 1.363 8.743 0 11.955 0 16.07 0 19.835 2.302 22 5.95 24.166 2.303 27.93 0 32.045 0c3.035 0 5.93 1.23 8.152 3.464 2.44 2.45 3.825 5.914 3.803 9.501-.019 2.952-1.197 6.117-3.5 9.409-1.782 2.545-4.248 5.186-7.329 7.85-5.2 4.494-10.308 7.477-10.523 7.602A1.29 1.29 0 0122 38z" fill="#C1492E"/></svg>