<svg width="262" height="230" fill="none" xmlns="http://www.w3.org/2000/svg"><g clip-path="url(#clip0_414_1364)" fill="#fff" opacity=".2"><path d="M21.643 222.661l14.228 23.671-1.994 1.395-15.795-22.574-7.12 4.982 34.875 49.847 7.12-4.982-16.538-23.638 1.28-.896 18.82 22.043 7.83-5.479-22.099-22.191-12.777-27.656-7.83 5.478zm29.232-10.373a444.125 444.125 0 013.431 6.504 1110.92 1110.92 0 003.404 6.531 903.178 903.178 0 013.845 7.389 702.34 702.34 0 015.095 9.974l-29.625-30.787-6.835 4.783 34.598 35.935 7.655-5.356-2.58 2.924a5.16 5.16 0 01.278 2.288 2.75 2.75 0 01-1.188 1.682c-.529.37-1.058.74-1.577 1.001-.498.284-1.013.537-1.543.757-.51.285-1.034.55-1.571.784l4.382 6.264 2.009-.767c.33-.124.648-.276.952-.453l1.491-.831c.53-.3 1.077-.635 1.661-1.005a35.998 35.998 0 001.412-.932c1.71-1.197 2.762-2.5 3.153-3.908.396-1.404.226-3.247-.522-5.522a60.834 60.834 0 00-3.781-8.591 951.124 951.124 0 01-6.586-13.052 325.384 325.384 0 00-3.378-6.652 2271.93 2271.93 0 01-3.797-7.32c-1.285-2.489-2.55-4.927-3.793-7.314a2576.348 2576.348 0 00-3.452-6.6l-7.09 4.96c1.445 2.672 2.762 5.11 3.952 7.314zm16.694-21.758l-4.344 3.039-2.777 1.943-4.344 3.039 34.876 49.847 7.12-4.982-29.211-41.753-3.508 1.328.2-.141 5.424-3.794 1.698-1.188 29.741 42.509 7.121-4.982-34.875-49.847-.709.496-6.412 4.486zm22.791-15.946l20.399 38.549-.503.352-24.165-35.914-7.121 4.982 34.875 49.847 7.121-4.982-.048-.069-20.308-38.723.498-.348 24.202 36.101 7.121-4.982-34.876-49.847-7.12 4.982-.075.052zm56.08 35.398l11.767-4.096-33.539-47.937-3.773 1.781 5.35-4.248a390.553 390.553 0 017.162-5.531 1554.451 1554.451 0 00-3.664-11.928l-18.186 22.101 34.883 49.858zm3.828-92.6c-3.682-.308-7.92 3.028-9.913 5.699-2.601 3.49-4.91 7.793-5.421 12.335-.41 4.35.808 8.698 3.417 12.204l28.194 40.297a26.918 26.918 0 005.61 6.138 14.934 14.934 0 005.797 2.745c2.055.441 4.175.49 6.248.144a41.021 41.021 0 006.771-1.719 29.374 29.374 0 005.829-2.652 7.468 7.468 0 003.238-3.841c.563-1.561.503-3.505-.185-5.805-.687-2.301-2.209-5.152-4.538-8.48a95467.161 95467.161 0 01-34.694-49.375c-2.349-3.526-5.895-7.31-10.353-7.69zm32.701 59.714a29.689 29.689 0 013.274 5.716c.634 1.605.073 2.762-1.641 3.512a4.175 4.175 0 01-4.655-.684 27.209 27.209 0 01-4.23-4.92l-27.358-39.102a20.013 20.013 0 01-2.572-4.938 4.167 4.167 0 01.956-4.491 2.677 2.677 0 011.856-1.007 3.236 3.236 0 011.875.595 8.557 8.557 0 011.899 1.769 38.26 38.26 0 011.816 2.393l28.78 41.157zm-15.365-64.136c2.247 3.414 4.494 6.832 6.742 10.256a1234.67 1234.67 0 016.663 10.255c2.48 3.86 4.943 7.729 7.388 11.608 3.656 5.788 7.315 11.581 10.873 17.421a70.495 70.495 0 015.001 9.345c.823 2.088.99 3.476.512 4.189a5.345 5.345 0 01-2.712 1.756l7.203 10.295 2.785-.829c3.639-1.073 6.088-2.416 7.295-4.103 1.207-1.688 1.24-4.288.02-7.721-1.763-4.929-4.577-9.493-7.324-13.915-4.703-7.577-9.706-15.156-14.563-22.695a722.741 722.741 0 00-5.948-9.132c-1.817-2.732-3.569-5.383-5.316-8.015a904.84 904.84 0 01-5.286-8.074 628.753 628.753 0 00-5.634-8.549l-3.762 2.632 3.348-3.256 2.528-2.447 54.685 78.162 11.768-4.096-66.819-95.504-17.082 20.761c2.532 3.897 5.077 7.782 7.635 11.656zm34.432-56.47c-3.782-1.42-8.882 1.045-11.068 4.048a22.413 22.413 0 00-4.251 14.007c.36 6.147 3.454 12.201 6.925 17.22l44.048 62.956c2.533 3.429 5.043 6.905 8.186 9.82a24.174 24.174 0 007.313 4.9 15.422 15.422 0 006.957 1.169 28.462 28.462 0 006.951-1.475 19.376 19.376 0 005.645-2.901 6.718 6.718 0 002.542-4.837c.217-2.066-.343-4.748-1.689-7.967a65.926 65.926 0 00-7.12-12.158 533432.002 533432.002 0 00-50.551-72.04c-3.76-5.013-7.883-10.489-13.888-12.742zm51.247 86.211a65.668 65.668 0 015.152 8.412c1.131 2.314.831 3.837-.9 4.57-1.734.732-3.549.119-5.416-1.782a60.81 60.81 0 01-6.122-7.624l-41.548-59.386a44.765 44.765 0 01-4.181-7.225c-1.055-2.343-.975-4.188.249-5.501a2.045 2.045 0 012.045-.738c.895.252 1.717.71 2.402 1.338a19.422 19.422 0 012.638 2.835 74.83 74.83 0 012.691 3.634l42.99 61.467zM216.209 29.679a21.03 21.03 0 00-3.768 14.583c.851 7.04 4.484 13.798 8.579 19.482l52.191 74.597a77.62 77.62 0 009.407 11.463 31.002 31.002 0 008.112 5.964 15.542 15.542 0 007.373 1.65 25.395 25.395 0 007.093-1.361 13.941 13.941 0 005.555-3.256c1.33-1.365 1.964-3.218 1.872-5.581-.093-2.362-.999-5.392-2.749-9.054a94.993 94.993 0 00-8.118-13.382l-8.762-12.523-10.236 5.452 5.523 7.893a89.237 89.237 0 016.089 9.751c1.379 2.67 1.204 4.369-.525 5.095-1.734.733-3.689-.035-5.846-2.285a75.782 75.782 0 01-7.12-8.926l-48.723-69.64a61.206 61.206 0 01-4.901-8.13c-1.235-2.533-1.222-4.496.06-5.874 1.282-1.378 2.842-1.13 4.694.75a59.215 59.215 0 016.037 7.503l11.796 16.86 8.848-7.435-15.431-22.056c-4.215-5.72-8.998-12.027-15.525-14.97-3.725-1.72-9.214.245-11.525 3.43z"/></g><defs><clipPath id="clip0_414_1364"><path fill="#fff" transform="rotate(-34.978 296.039 121.19)" d="M0 0h334.224v155.68H0z"/></clipPath></defs></svg>