<svg width="109" height="51" fill="none" xmlns="http://www.w3.org/2000/svg"><g clip-path="url(#clip0_2006_593)" fill="#fff"><path d="M99.906 21.904v1.624l9.093-1.923v-3.548l-9.093 3.847zm0 5.696l9.093.701v-3.024l-9.093.7V27.6zm0 4.075l9.093 3.847v-3.548l-9.093-1.925v1.626zM4.252 15.338l-.624 8.986h-.794v-8.986H0v19.84h2.834V25.77h.51l.908 9.409h3.116L5.612 25.117l1.756-9.779H4.252zm9.75 2.694c-.095.812-.195 1.606-.299 2.38a370.47 370.47 0 00-.311 2.38c-.103.813-.22 1.711-.354 2.694a230.717 230.717 0 01-.503 3.618l-2.16-13.766H7.652L10.18 31.41h3.047l-1.236.299a1.685 1.685 0 01-.354.663.897.897 0 01-.631.227c-.21 0-.421 0-.609-.027a4.485 4.485 0 01-.554-.087 5.755 5.755 0 01-.566-.084v2.493l.68.171c.111.029.225.048.34.057l.553.057a13.58 13.58 0 001.183.057c.681 0 1.206-.152 1.573-.455.369-.301.668-.826.893-1.573a19.85 19.85 0 00.596-3.003 320.4 320.4 0 01.68-4.719 107 107 0 00.341-2.409c.114-.869.232-1.758.354-2.666a630.398 630.398 0 00.666-5.073h-2.822l-.312 2.694zm8.529-2.694h-4.563v19.84h2.834V18.56l-1.185-.3h2.914v16.919h2.835v-19.84H22.53zm9.072 0l-1.756 14.115h-.2l.256-14.115H27.07v19.84h2.834v-.027l1.814-14.144h.197l-.282 14.172h2.835v-19.84h-2.866zm8.367 19.944l3.91 1.105v-19.08l-1.34-.23 2.223-.134a126.92 126.92 0 012.948-.14 462.01 462.01 0 001.25-3.872l-8.99 2.506v19.845zm18.336-24.029c-.927-.77-2.683-.672-3.715-.33-1.348.446-2.769 1.164-3.754 2.282a5.761 5.761 0 00-1.37 3.9v16.04a8.829 8.829 0 00.352 2.689 4.87 4.87 0 001.036 1.817 5.444 5.444 0 001.643 1.206c.686.33 1.399.6 2.131.807.668.202 1.357.33 2.053.381.56.047 1.12-.102 1.584-.421.442-.312.79-.842 1.036-1.586.246-.743.372-1.79.372-3.114-.015-6.559-.028-13.119-.04-19.68.032-1.382-.208-3.056-1.328-3.99zm-2.426 22.07a9.683 9.683 0 01-.194 2.14c-.13.547-.497.752-1.095.632a1.36 1.36 0 01-1.116-1.053 8.88 8.88 0 01-.21-2.106V17.372a6.526 6.526 0 01.235-1.8 1.358 1.358 0 011.095-1.021.875.875 0 01.685.078c.18.125.316.303.39.51.1.264.16.544.176.827.025.324.038.65.038.979l-.004 16.379zm7.885-20.01l-.116 4a407.02 407.02 0 01-.137 3.987c-.059 1.495-.124 2.99-.196 4.483-.105 2.23-.21 4.462-.351 6.688a23.147 23.147 0 01-.41 3.432c-.172.712-.386 1.114-.647 1.215a1.744 1.744 0 01-1.053-.038v4.098l.899.299c1.173.394 2.078.493 2.716.267.638-.225 1.133-.913 1.45-2.059.45-1.647.55-3.392.643-5.088.16-2.903.24-5.864.352-8.787.05-1.297.093-2.482.118-3.552.025-1.07.053-2.106.078-3.136.025-1.03.059-2.07.097-3.146.038-1.008.067-2.124.092-3.337h-1.497l1.504-.244 1.133-.182v31.11l3.91 1.106V6.416L63.904 8.77a611.809 611.809 0 00-.14 4.543zM83.523 4.66c-.745-1.087-2.569-1.381-3.714-.988a7.309 7.309 0 00-3.755 2.948c-1.053 1.71-1.358 3.907-1.368 5.897v25.058c.035 1.39.056 2.788.351 4.155.18.948.531 1.855 1.038 2.676.415.657.977 1.21 1.64 1.613.671.39 1.388.694 2.134.906.663.205 1.356.3 2.05.28a2.19 2.19 0 001.584-.817c.445-.512.796-1.333 1.038-2.445.287-1.51.412-3.045.371-4.58l-.04-28.702c-.067-2.042-.145-4.276-1.329-6.001zM81.1 37.278a21.434 21.434 0 01-.196 3.211c-.13.83-.496 1.181-1.095 1.053-.6-.128-.97-.632-1.114-1.489a19.776 19.776 0 01-.21-3.181V13.235c-.007-.91.07-1.818.233-2.713.156-.823.522-1.3 1.095-1.423a.668.668 0 01.684.185c.192.235.326.511.392.807.1.41.158.829.175 1.25.028.486.041.978.04 1.475L81.1 37.278zM92.323.145a6.859 6.859 0 00-3.733 3.193c-1.089 2.04-1.382 4.525-1.35 6.81v29.69c-.03 1.616.094 3.23.37 4.823a10.106 10.106 0 001.053 3.11 5.067 5.067 0 001.662 1.82 8.28 8.28 0 002.15.962 4.544 4.544 0 002.093.168c.61-.116 1.127-.493 1.544-1.141.416-.649.74-1.628.958-2.933.25-1.686.362-3.39.332-5.094v-4.985l-3.754-.457v3.142a29.086 29.086 0 01-.196 3.744c-.13.972-.495 1.393-1.093 1.264-.6-.129-.979-.7-1.135-1.704a24.758 24.758 0 01-.234-3.717V11.122a19.84 19.84 0 01.211-3.089c.143-.907.514-1.43 1.114-1.558.6-.128.97.23 1.114 1.078a19.33 19.33 0 01.21 3.134v6.71l3.755-.332V8.286c-.057-2.316-.156-4.896-1.35-6.903C95.37.227 93.536-.274 92.324.145z"/></g><defs><clipPath id="clip0_2006_593"><path fill="#fff" d="M0 0h109v50.772H0z"/></clipPath></defs></svg>