<svg width="89" height="25" fill="none" xmlns="http://www.w3.org/2000/svg"><g clip-path="url(#clip0_2018_2595)"><path d="M19.467 3.281l-3.305 11.485h-.565L12.292 3.28A4.546 4.546 0 007.925 0H0v25h7.935V10.225H8.5L13.043 25h5.673l4.533-14.775h.566V25h7.934V0h-7.925a4.543 4.543 0 00-4.357 3.281zM63.4 25h7.984v-7.393h8.033c4.201 0 7.779-2.382 9.163-5.732H63.4V25zM49.257 2.637l-5.585 12.138h-.566V0h-7.935v25h6.736a4.547 4.547 0 004.123-2.637l5.586-12.129h.566V25h7.934V0H53.38a4.547 4.547 0 00-4.123 2.637z" fill="#006848"/><path d="M80.207 0a8.72 8.72 0 015.937 2.324A8.737 8.737 0 0189 8.8a9.09 9.09 0 01-.146 1.553h-14.74c-4.99 0-9.22-3.282-10.644-7.813-.02-.049-.03-.107-.049-.166-.039-.137-.068-.283-.107-.42A11.643 11.643 0 0163.03 0h17.176z" fill="url(#paint0_linear_2018_2595)"/></g><defs><linearGradient id="paint0_linear_2018_2595" x1="89" y1="32.375" x2="63.19" y2="32.375" gradientUnits="userSpaceOnUse"><stop stop-color="#1E5CD8"/><stop offset="1" stop-color="#02AFFF"/></linearGradient><clipPath id="clip0_2018_2595"><path fill="#fff" d="M0 0h89v25H0z"/></clipPath></defs></svg>