<svg width="10" height="9" fill="none" xmlns="http://www.w3.org/2000/svg"><path d="M9.193 7.205c-.191.514-.948.94-1.551 1.065-.413.084-.953.15-2.769-.568C2.551 6.783 1.055 4.53.94 4.383.827 4.237 0 3.19 0 2.107 0 1.024.576.497.808.271.998.085 1.314 0 1.616 0c.098 0 .186.005.265.008.232.01.349.023.502.373.19.439.655 1.522.71 1.633.057.111.113.262.034.408-.074.151-.14.218-.256.347-.117.128-.227.226-.344.364-.107.12-.227.248-.093.47.135.216.599.94 1.283 1.52.882.75 1.597.99 1.853 1.092.19.076.418.058.557-.084.177-.182.395-.484.618-.78.158-.214.357-.24.567-.165.213.07 1.342.604 1.574.714.233.112.386.164.442.258.055.093.055.532-.135 1.047z" fill="#FAFAFA"/></svg>