<svg width="17" height="20" fill="none" xmlns="http://www.w3.org/2000/svg"><path d="M8.372 1c1.089 0 2.004.374 2.77 1.125.764.75 1.137 1.64 1.137 2.691 0 1.053-.373 1.942-1.138 2.693-.765.75-1.68 1.125-2.77 1.125-1.088 0-2.003-.374-2.769-1.125-.764-.75-1.138-1.64-1.138-2.693 0-1.051.374-1.94 1.138-2.691C6.368 1.374 7.282 1 8.372 1zm4.188 9.662a3.02 3.02 0 011.067.192c.256.1.476.223.66.362l.171.146c.224.21.435.477.621.799.188.324.338.659.447.994.084.257.16.537.224.836l.06.305c.057.313.1.61.128.885l.023.269c.025.356.039.73.039 1.11 0 .812-.253 1.377-.688 1.782-.441.413-1.053.658-1.907.658h-9.81c-.747 0-1.31-.188-1.734-.511l-.173-.147C1.252 17.936 1 17.371 1 16.56c0-.19.003-.377.01-.562l.028-.548c.025-.348.075-.737.151-1.154a8.84 8.84 0 01.285-1.141l-.001-.001c.109-.335.26-.67.447-.993.185-.32.396-.588.621-.8.214-.2.49-.374.831-.507.309-.12.665-.188 1.066-.192.047.02.135.067.301.173a119 119 0 00.84.53v.002c.364.227.812.414 1.303.57a5.35 5.35 0 001.618.255 5.34 5.34 0 001.617-.255h0c.491-.157.94-.343 1.303-.57v-.001c.315-.197.597-.376.839-.531a2.52 2.52 0 01.3-.173z" stroke="#C1492E" stroke-width="2"/></svg>