<svg width="19" height="18" fill="none" xmlns="http://www.w3.org/2000/svg"><path d="M15 6.48l-1.242.501a1.324 1.324 0 01-1.474-.327 1.335 1.335 0 01-.353-1l.094-1.337-.863-1.026a1.316 1.316 0 01-.3-.793H2.69C1.21 2.498 0 3.708 0 5.194v7.496c0 1.487 1.21 2.69 2.69 2.69h2.047l-.044 1.254A1.328 1.328 0 006.023 18c.276 0 .553-.095.787-.271l3.124-2.35h3.603c1.48 0 2.69-1.203 2.69-2.69V6.975L15 6.479zm-6.573 4.46H5.12a.567.567 0 010-1.135h3.307a.567.567 0 010 1.134zm2.93-2.865H5.122a.567.567 0 010-1.133h6.237a.567.567 0 010 1.133z" fill="#C1492E"/><path d="M15.328.182l.913 1.46 1.671.417c.277.07.386.404.203.624l-1.107 1.319.12 1.718a.387.387 0 01-.53.385L15 5.46l-1.597.646a.386.386 0 01-.53-.385l.12-1.718-1.108-1.32a.387.387 0 01.203-.623l1.671-.416.913-1.461a.386.386 0 01.655 0z" fill="#C1492E"/></svg>