<svg width="20" height="16" fill="none" xmlns="http://www.w3.org/2000/svg"><path d="M11 5.274a6.234 6.234 0 10-9.53 8.042A6.234 6.234 0 0011 5.274zm-1.847 7.63a5.085 5.085 0 01-6.663.136 5.085 5.085 0 017.162-7.162 5.085 5.085 0 01-.5 7.026z" fill="#F3B73F"/><path d="M11.485 9.786A5.085 5.085 0 012.49 13.04a5.086 5.086 0 007.162-7.162l.155.134a5.07 5.07 0 011.678 3.775z" fill="#E0802B"/><path d="M9.779 6.035c.367-.313.778-.57 1.22-.763a6.258 6.258 0 00-1.638-1.374 6.447 6.447 0 00-1.287 1.084 5.08 5.08 0 011.578.895c.043.052.086.104.127.158zm-.626 6.868a5.104 5.104 0 01-1.051.733c.373.403.796.757 1.26 1.053.45-.262.865-.578 1.237-.943a4.918 4.918 0 01-1.43-.824l-.016-.02z" fill="#E0802B"/><path d="M9.807 6.011a5.162 5.162 0 00-.155-.134c.044.052.086.105.127.158a.735.735 0 01.028-.024zm-.638 6.912l-.016-.02a5.07 5.07 0 01-1.051.733c.213.23.442.444.686.641.42-.223.805-.504 1.146-.835a4.84 4.84 0 01-.765-.52z" fill="#CF5F1F"/><path d="M.986 7.489a.164.164 0 01-.153-.222 5.282 5.282 0 011.353-2 .164.164 0 11.223.242 4.953 4.953 0 00-1.27 1.874.164.164 0 01-.153.106zM.66 9.129H.654a.164.164 0 01-.159-.169c.008-.227.03-.453.066-.677a.164.164 0 11.324.053 5 5 0 00-.062.635.164.164 0 01-.163.159z" fill="#F0CD81"/><path d="M4.865 2.568l-.187 1.325-1.867 1.03-1.22-.551A2.728 2.728 0 01.002 2.178a.346.346 0 01.676-.104l.155.493a1.641 1.641 0 00.89 1.001l.08.036c.201.091.42.14.641.145h.033a1.642 1.642 0 001.625-1.412l.011-.086a1.64 1.64 0 00-.37-1.287L3.41.57a.346.346 0 01.484-.49 2.726 2.726 0 01.971 2.489z" fill="#F3B73F"/><path d="M2.125 2.484L1.176.764A.492.492 0 012.038.29l.949 1.72-.862.474z" fill="#F3B73F"/><path d="M3.334.478l.41.486a1.64 1.64 0 01.37 1.287l-.011.086a1.64 1.64 0 01-2.3 1.266l-.079-.035a1.64 1.64 0 01-.89-1.001L.643 1.96a.586.586 0 01.092-.53 2.953 2.953 0 012.1-1.158.586.586 0 01.499.206z" fill="#E7F2DA"/><path d="M1.196 2.325a.164.164 0 01-.017-.327A2.804 2.804 0 003.079.95a.164.164 0 11.257.203 3.134 3.134 0 01-2.14 1.171z" fill="#B1CDB4"/><path d="M2.997 4.07l-1.03-1.868a.492.492 0 01.863-.475l1.029 1.868-.862.475z" fill="#F3B73F"/><path d="M2.997 4.07a.164.164 0 01-.288.159l-.264-.48h.033c.109 0 .217-.01.324-.032l.195.354zm1.085-.41a.164.164 0 01-.223-.064l-.195-.354a1.65 1.65 0 00.218-.285l.264.48a.164.164 0 01-.064.223zm-.9 1.409a.164.164 0 01-.079-.308l1.575-.868.078-.547a.164.164 0 01.325.045l-.09.63a.164.164 0 01-.082.12L3.26 5.05a.163.163 0 01-.079.02z" fill="#E0802B"/><path d="M12.797 3.06a6.234 6.234 0 100 12.47 6.234 6.234 0 000-12.47zm-.492 11.157a5.064 5.064 0 01-3.253-1.177 5.086 5.086 0 017.162-7.162 5.085 5.085 0 01-3.909 8.339z" fill="#F3B73F"/><path d="M18.047 9.786a5.085 5.085 0 01-8.995 3.253 5.086 5.086 0 007.162-7.162 5.075 5.075 0 011.833 3.91z" fill="#E0802B"/><path d="M7.549 7.489a.164.164 0 01-.154-.222 5.283 5.283 0 011.354-2 .164.164 0 11.222.242 4.953 4.953 0 00-1.269 1.874.164.164 0 01-.153.106zm-.327 1.64h-.005a.164.164 0 01-.16-.169c.008-.227.03-.453.066-.677a.164.164 0 11.324.053c-.034.21-.054.422-.061.635a.164.164 0 01-.164.159z" fill="#F0CD81"/></svg>