<svg width="30" height="30" fill="none" xmlns="http://www.w3.org/2000/svg"><g clip-path="url(#clip0_2006_560)"><path d="M15 30c8.284 0 15-6.716 15-15 0-8.284-6.716-15-15-15C6.716 0 0 6.716 0 15c0 8.284 6.716 15 15 15z" fill="#039BE5"/><path d="M10.13 14.41l10.11-4.16c.47-.18.88.123.728.88l-1.72 8.654c-.128.614-.47.763-.948.474l-2.621-2.062-1.265 1.3c-.14.15-.258.275-.528.275l.186-2.847 4.858-4.684c.212-.199-.047-.31-.326-.113L12.6 16.161l-2.588-.861c-.562-.19-.574-.6.119-.89z" fill="#fff"/></g><defs><clipPath id="clip0_2006_560"><path fill="#fff" d="M0 0h30v30H0z"/></clipPath></defs></svg>