<svg width="50" height="50" fill="none" xmlns="http://www.w3.org/2000/svg"><rect width="50" height="50" rx="25" fill="#C1492E"/><path d="M38.006 31.047a1.786 1.786 0 00-.09-.172c-.455-.821-1.327-1.83-2.614-3.025l-.027-.027-.014-.014-.013-.013h-.014c-.584-.557-.954-.931-1.109-1.123-.283-.365-.346-.735-.192-1.109.11-.283.52-.88 1.232-1.793.375-.484.671-.871.89-1.163 1.579-2.1 2.263-3.44 2.053-4.025l-.081-.136c-.055-.082-.196-.158-.424-.226-.229-.069-.52-.08-.877-.034l-3.942.027a.511.511 0 00-.274.007l-.178.041-.068.034-.055.041a.612.612 0 00-.15.144.942.942 0 00-.137.24 22.343 22.343 0 01-1.465 3.08 29.154 29.154 0 01-.93 1.47c-.284.416-.52.722-.712.918a4.947 4.947 0 01-.52.472c-.156.119-.274.17-.356.15a8.438 8.438 0 01-.233-.054.91.91 0 01-.308-.335 1.501 1.501 0 01-.158-.534 5.864 5.864 0 01-.048-.555 11.61 11.61 0 01.007-.657 20.2 20.2 0 00.014-.575c0-.346.007-.723.02-1.129.014-.406.025-.728.035-.965.01-.237.013-.488.013-.753s-.016-.472-.047-.623a2.135 2.135 0 00-.144-.438.738.738 0 00-.28-.328 1.583 1.583 0 00-.459-.185c-.484-.11-1.1-.169-1.848-.178-1.697-.018-2.788.091-3.272.329a1.85 1.85 0 00-.52.41c-.164.2-.187.31-.068.329.547.082.935.278 1.163.588l.082.165c.064.118.128.328.192.63.064.3.105.633.123.998a10.55 10.55 0 010 1.711c-.046.475-.089.844-.13 1.11a2.22 2.22 0 01-.185.642 2.71 2.71 0 01-.164.301.235.235 0 01-.068.069 1.024 1.024 0 01-.37.069c-.128 0-.283-.064-.465-.192a3.284 3.284 0 01-.568-.527 7.04 7.04 0 01-.664-.938 16.339 16.339 0 01-.767-1.424l-.219-.396a33.962 33.962 0 01-.561-1.116c-.237-.488-.447-.96-.63-1.417a.903.903 0 00-.328-.438l-.069-.041a.942.942 0 00-.219-.117c-.1-.04-.205-.07-.314-.088l-3.751.027c-.383 0-.643.087-.78.26l-.055.082a.443.443 0 00-.041.22c0 .1.027.223.082.369a45.153 45.153 0 001.786 3.723c.643 1.195 1.202 2.159 1.677 2.888.474.73.958 1.42 1.45 2.067.494.648.82 1.063.98 1.246.16.183.285.32.376.41l.342.329c.22.219.54.481.965.787.425.306.895.607 1.41.904a7.645 7.645 0 001.8.725c.685.187 1.35.262 1.999.226h1.574c.32-.028.561-.128.726-.301l.054-.069a.907.907 0 00.103-.253c.032-.114.048-.24.048-.376-.01-.393.02-.746.088-1.061.069-.315.146-.552.233-.712a1.749 1.749 0 01.528-.602.907.907 0 01.109-.048c.219-.073.476-.002.773.212.297.215.575.48.835.794.26.315.573.669.938 1.061.365.393.684.684.958.876l.274.165c.183.11.42.21.712.3.292.092.547.115.766.07l3.504-.055c.347 0 .617-.058.808-.172.192-.114.306-.24.342-.376a1.05 1.05 0 00.007-.466 1.724 1.724 0 00-.096-.362z" fill="#fff"/></svg>