<svg width="50" height="50" fill="none" xmlns="http://www.w3.org/2000/svg"><path d="M25.006 0h-.012C11.209 0 0 11.213 0 25a24.814 24.814 0 004.76 14.653l-3.116 9.288 9.61-3.072A24.784 24.784 0 0025.005 50C38.791 50 50 38.784 50 25S38.79 0 25.006 0z" fill="#58DF5D"/><path d="M33.678 30.855c-.366.989-1.822 1.809-2.982 2.048-.795.162-1.832.29-5.324-1.092-4.466-1.767-7.343-6.1-7.567-6.381C17.59 25.148 16 23.135 16 21.052c0-2.082 1.108-3.096 1.554-3.531.367-.358.973-.521 1.554-.521.188 0 .357.01.51.016.446.019.67.044.965.717.366.843 1.26 2.926 1.366 3.14.108.214.216.504.064.785-.142.29-.268.42-.492.666-.224.247-.437.435-.661.7-.205.23-.437.477-.179.904.259.417 1.152 1.808 2.466 2.926 1.697 1.442 3.072 1.902 3.565 2.098.366.145.803.111 1.071-.161.34-.35.76-.93 1.187-1.502.304-.41.688-.46 1.09-.316.411.136 2.583 1.161 3.03 1.374.446.214.74.315.848.495.107.18.107 1.023-.26 2.013z" fill="#FAFAFA"/></svg>